<svg width="257" height="64" viewBox="0 0 257 64" fill="none" xmlns="http://www.w3.org/2000/svg" class="logo-svg"><g class="logo-svg__default-red-elements"><path d="M242.941 35.607C242.041 35.5122 240.582 35.9703 240.161 36.2863C240.051 36.7075 239.987 36.8918 239.566 38.4716C239.382 39.1509 239.587 39.4931 240.045 39.3615C241.951 38.8191 243.184 38.4136 244.7 37.9187C245.079 37.7976 245.237 37.4237 244.711 37.013C244.39 36.7655 243.436 36.0283 242.941 35.607Z" fill="currentColor"></path><path fill-rule="evenodd" clip-rule="evenodd" d="M232.384 0.426408C240.166 -1.58511 248.276 3.71225 250.487 12.2691H250.493C250.998 14.2122 251.151 16.1605 250.998 18.0299C250.182 27.266 242.947 35.607 241.446 35.4437C240.619 36.2863 231.188 33.8324 224.648 24.849C223.606 23.2851 222.8 21.5105 222.294 19.5622C220.083 11.0106 224.595 2.4432 232.384 0.426408ZM229.577 14.6334C229.561 14.6703 225.37 10.721 225.37 10.721L225.364 10.6841C226.402 8.25134 228.808 5.37623 231.594 4.51791C231.594 4.51791 235.016 7.44041 234.985 7.46674C233.126 8.63574 230.472 11.1475 229.577 14.6334Z" fill="currentColor"></path><path d="M143.75 35.6596V46.286H143.829C144.087 45.6646 144.451 45.138 144.919 44.7115C145.388 44.285 145.909 43.9322 146.494 43.6583C147.078 43.3845 147.689 43.1844 148.321 43.0528C148.958 42.9211 149.574 42.8579 150.169 42.8579C151.491 42.8579 152.597 43.0422 153.476 43.4003C154.361 43.7637 155.072 44.2692 155.619 44.9169C156.162 45.5646 156.546 46.3386 156.767 47.2338C156.988 48.129 157.099 49.1189 157.099 50.209V63.4418H153.792V49.8193C153.792 48.5766 153.429 47.5866 152.702 46.8599C151.975 46.1333 150.975 45.7699 149.706 45.7699C148.695 45.7699 147.815 45.9279 147.078 46.2386C146.341 46.5492 145.72 46.9916 145.23 47.5603C144.735 48.129 144.366 48.7977 144.119 49.5665C143.871 50.3301 143.75 51.1673 143.75 52.0783V63.4418H140.443V35.6544H143.75V35.6596Z" fill="currentColor"></path><path d="M174.797 62.1675C173.291 63.3102 171.395 63.8789 169.115 63.8789C167.504 63.8789 166.114 63.6209 164.929 63.0996C163.75 62.5782 162.754 61.8516 161.949 60.9195C161.143 59.9875 160.543 58.8711 160.137 57.5705C159.737 56.2751 159.511 54.8586 159.458 53.3263C159.458 51.794 159.69 50.3933 160.158 49.1242C160.627 47.8552 161.28 46.7494 162.122 45.8173C162.965 44.8853 163.966 44.1586 165.119 43.6373C166.272 43.1212 167.536 42.8579 168.915 42.8579C170.706 42.8579 172.191 43.2266 173.37 43.969C174.55 44.7062 175.498 45.6488 176.214 46.7915C176.925 47.9341 177.42 49.1769 177.693 50.5302C177.967 51.8782 178.078 53.1631 178.025 54.3847H162.965C162.939 55.2694 163.044 56.1014 163.276 56.8965C163.507 57.6863 163.887 58.3867 164.403 58.9975C164.919 59.6084 165.582 60.0928 166.388 60.4561C167.193 60.8195 168.141 61.0038 169.226 61.0038C170.627 61.0038 171.775 60.6773 172.67 60.0296C173.565 59.3819 174.155 58.3972 174.439 57.0703H177.709C177.267 59.3293 176.293 61.0301 174.792 62.1675H174.797ZM173.997 49.2453C173.697 48.545 173.296 47.9394 172.791 47.4339C172.285 46.9284 171.685 46.5282 171.001 46.228C170.311 45.9279 169.552 45.7805 168.726 45.7805C167.899 45.7805 167.099 45.9279 166.409 46.228C165.719 46.5282 165.129 46.9337 164.64 47.455C164.145 47.9763 163.755 48.5766 163.471 49.2664C163.186 49.9562 163.018 50.6881 162.965 51.4675H174.523C174.471 50.6881 174.297 49.9509 173.997 49.2506V49.2453Z" fill="currentColor"></path><path d="M196.303 63.8789C195.444 63.8789 194.765 63.6367 194.26 63.1575C193.754 62.6783 193.501 61.8937 193.501 60.8037C192.59 61.8937 191.537 62.6783 190.331 63.1575C189.125 63.6367 187.82 63.8789 186.419 63.8789C185.508 63.8789 184.655 63.7841 183.849 63.5893C183.044 63.3944 182.338 63.068 181.727 62.6151C181.116 62.1623 180.637 61.5777 180.29 60.8616C179.942 60.1507 179.763 59.2871 179.763 58.2761C179.763 57.1334 179.958 56.2014 180.347 55.4747C180.737 54.748 181.248 54.1583 181.885 53.7054C182.522 53.2526 183.244 52.905 184.065 52.6733C184.881 52.4416 185.719 52.2468 186.577 52.0888C187.483 51.9098 188.346 51.7729 189.168 51.6781C189.984 51.5886 190.705 51.4569 191.327 51.2884C191.948 51.1199 192.443 50.8724 192.806 50.5512C193.17 50.2248 193.349 49.7561 193.349 49.1295C193.349 48.4028 193.212 47.8183 192.938 47.376C192.664 46.9337 192.317 46.5966 191.885 46.365C191.458 46.1333 190.974 45.9753 190.447 45.8963C189.915 45.8173 189.389 45.7805 188.873 45.7805C187.472 45.7805 186.303 46.049 185.371 46.5756C184.439 47.1074 183.928 48.1132 183.854 49.5929H180.548C180.6 48.3449 180.858 47.297 181.327 46.4387C181.796 45.5804 182.417 44.8905 183.196 44.3587C183.976 43.8268 184.871 43.4424 185.882 43.2108C186.893 42.9791 187.956 42.8579 189.073 42.8579C189.979 42.8579 190.884 42.9211 191.779 43.0528C192.675 43.1844 193.486 43.4477 194.212 43.8479C194.939 44.2481 195.523 44.8168 195.966 45.5435C196.408 46.2702 196.629 47.218 196.629 48.387V58.7395C196.629 59.5188 196.671 60.0875 196.766 60.4509C196.856 60.8142 197.161 60.9985 197.682 60.9985C197.967 60.9985 198.304 60.9353 198.693 60.8037V63.3734C198.125 63.7104 197.33 63.8789 196.319 63.8789H196.303ZM191.669 53.7423C190.995 53.8845 190.289 54.0003 189.547 54.0898C188.81 54.1793 188.062 54.2847 187.309 54.4005C186.556 54.5164 185.882 54.7059 185.287 54.9639C184.692 55.222 184.202 55.5958 183.828 56.075C183.449 56.5542 183.265 57.2124 183.265 58.0392C183.265 58.5868 183.375 59.0449 183.596 59.4188C183.818 59.7979 184.102 60.0981 184.449 60.335C184.802 60.5667 185.213 60.7352 185.697 60.8405C186.177 60.9459 186.666 60.9985 187.156 60.9985C188.246 60.9985 189.178 60.8511 189.957 60.5509C190.737 60.2508 191.369 59.8769 191.864 59.424C192.353 58.9712 192.722 58.4762 192.954 57.9444C193.185 57.4125 193.301 56.9123 193.301 56.4436V53.0577C192.885 53.3684 192.343 53.5948 191.669 53.737V53.7423Z" fill="currentColor"></path><path d="M203.933 35.6596V63.4471H200.626V35.6596H203.933Z" fill="currentColor"></path><path d="M216.339 43.3266V46.2438H212.332V58.7395C212.332 59.1292 212.363 59.4398 212.427 59.6715C212.49 59.9032 212.616 60.0875 212.795 60.2139C212.979 60.3456 213.227 60.4298 213.553 60.4667C213.875 60.5035 214.301 60.5246 214.817 60.5246H216.334V63.4418H213.806C212.948 63.4418 212.216 63.3839 211.605 63.2681C210.994 63.1522 210.499 62.9363 210.125 62.6256C209.752 62.315 209.472 61.8726 209.288 61.3039C209.104 60.7352 209.014 59.9822 209.014 59.0449V46.2386H205.592V43.3213H209.014V37.2868H212.321V43.3213H216.328L216.339 43.3266Z" fill="currentColor"></path><path fill-rule="evenodd" clip-rule="evenodd" d="M221.731 35.6596V46.286H221.81C222.068 45.6646 222.431 45.138 222.9 44.7115C223.369 44.285 223.89 43.9322 224.474 43.6583C225.059 43.3845 225.67 43.1844 226.302 43.0528C226.939 42.9211 227.555 42.8579 228.15 42.8579C229.472 42.8579 230.577 43.0422 231.457 43.4003C232.341 43.7637 233.052 44.2692 233.6 44.9169C234.142 45.5646 234.527 46.3386 234.748 47.2338C234.969 48.129 235.08 49.1189 235.08 50.209V63.4418H231.773V49.8193C231.773 48.5766 231.409 47.5866 230.683 46.8599C229.956 46.1333 228.956 45.7699 227.687 45.7699C226.676 45.7699 225.796 45.9279 225.059 46.2386C224.322 46.5492 223.7 46.9916 223.211 47.5603C222.716 48.129 222.347 48.7977 222.1 49.5665C221.852 50.3301 221.731 51.1673 221.731 52.0783V63.4418H218.424V35.6544H221.731V35.6596Z" fill="currentColor"></path></g><g class="logo-svg__default-black-elements"><path d="M254.226 57.1229C254.647 57.3019 255.016 57.5442 255.327 57.8601C255.637 58.1761 255.885 58.5447 256.058 58.9659C256.238 59.3872 256.327 59.8453 256.327 60.3298C256.327 60.8142 256.238 61.2776 256.058 61.6989C255.879 62.1201 255.637 62.4835 255.327 62.7994C255.016 63.1101 254.647 63.3576 254.226 63.5313C253.805 63.7104 253.347 63.7999 252.852 63.7999C252.357 63.7999 251.904 63.7104 251.477 63.5313C251.056 63.3523 250.687 63.1101 250.377 62.7994C250.066 62.4887 249.819 62.1201 249.645 61.6989C249.466 61.2776 249.376 60.8195 249.376 60.3298C249.376 59.84 249.466 59.3872 249.645 58.9659C249.824 58.5447 250.066 58.1708 250.377 57.8601C250.687 57.5442 251.056 57.3019 251.477 57.1229C251.899 56.9439 252.357 56.8544 252.852 56.8544C253.347 56.8544 253.799 56.9439 254.226 57.1229ZM251.677 57.5863C251.319 57.7443 251.009 57.9549 250.745 58.2235C250.482 58.492 250.282 58.808 250.134 59.166C249.987 59.5294 249.913 59.919 249.913 60.335C249.913 60.751 249.987 61.1407 250.134 61.504C250.282 61.8674 250.487 62.178 250.745 62.4466C251.009 62.7152 251.319 62.9258 251.677 63.0838C252.035 63.2417 252.425 63.3155 252.852 63.3155C253.278 63.3155 253.657 63.2365 254.015 63.0838C254.373 62.9258 254.684 62.7152 254.947 62.4466C255.211 62.178 255.416 61.8621 255.563 61.504C255.711 61.1407 255.79 60.751 255.79 60.335C255.79 59.919 255.716 59.5294 255.563 59.166C255.416 58.8027 255.211 58.492 254.947 58.2235C254.684 57.9549 254.373 57.7443 254.015 57.5863C253.657 57.4283 253.268 57.3546 252.852 57.3546C252.436 57.3546 252.035 57.4336 251.677 57.5863ZM251.588 62.3413V58.3235H253.131C253.584 58.3235 253.915 58.4183 254.126 58.6079C254.337 58.7974 254.437 59.0712 254.437 59.4346C254.437 59.6084 254.41 59.7611 254.358 59.8927C254.305 60.0243 254.231 60.1349 254.136 60.2244C254.042 60.314 253.936 60.3877 253.815 60.4403C253.694 60.493 253.563 60.5299 253.426 60.5562L254.621 62.3413H254.042L252.91 60.5562H252.078V62.3413H251.583H251.588ZM253.183 60.1244C253.331 60.1139 253.457 60.0875 253.573 60.0454C253.684 60.0033 253.773 59.9296 253.842 59.8348C253.91 59.74 253.942 59.6084 253.942 59.4398C253.942 59.2977 253.915 59.1818 253.863 59.0923C253.81 59.0028 253.736 58.9343 253.647 58.8817C253.557 58.829 253.457 58.7922 253.341 58.7764C253.231 58.7553 253.11 58.75 252.989 58.75H252.083V60.1402H252.736C252.883 60.1402 253.031 60.1402 253.178 60.1244H253.183Z" fill="currentColor"></path><path d="M244.669 63.7999C239.629 58.2656 242.799 52.2995 246.122 47.7183C247.486 45.8436 248.276 43.8637 248.412 41.9996C248.534 40.3409 248.123 38.8191 247.254 37.7028C245.722 35.7386 243.057 35.2647 240.124 36.439L239.74 35.4859C241.435 34.8066 243.11 34.6118 244.584 34.9224C245.995 35.2173 247.196 35.9651 248.065 37.0709C249.092 38.3873 249.581 40.1672 249.439 42.0786C249.287 44.1323 248.428 46.2912 246.954 48.3238C244.821 51.2621 243.636 53.637 243.226 55.8065C242.71 58.5236 243.431 60.9143 245.427 63.1101L244.663 63.8052L244.669 63.7999Z" fill="currentColor"></path><path d="M13.3013 46.1333C12.3903 45.2749 11.1213 44.8484 9.48891 44.8484C8.31991 44.8484 7.29835 45.0959 6.4137 45.5856C5.52905 46.0806 4.79711 46.7283 4.21261 47.5339C3.62811 48.3396 3.18579 49.2559 2.89091 50.2774C2.59076 51.3042 2.44332 52.3469 2.44332 53.4105C2.44332 54.4742 2.59076 55.5168 2.89091 56.5437C3.19105 57.5705 3.62811 58.4815 4.21261 59.2871C4.79711 60.0928 5.52905 60.7405 6.4137 61.2355C7.29835 61.7305 8.31991 61.9727 9.48891 61.9727C10.2419 61.9727 10.9528 61.8305 11.6321 61.5461C12.3061 61.2618 12.9011 60.8669 13.4224 60.3613C13.9385 59.8558 14.3703 59.2503 14.7073 58.5499C15.0443 57.8496 15.2497 57.086 15.3286 56.2541H17.7825C17.4455 58.6921 16.5503 60.593 15.097 61.9569C13.6436 63.3207 11.7743 64 9.49417 64C7.96184 64 6.60854 63.7209 5.429 63.1627C4.24947 62.6046 3.25424 61.8463 2.44858 60.8879C1.64292 59.9296 1.03209 58.8079 0.62136 57.5231C0.205365 56.2383 0 54.8692 0 53.4158C0 51.9625 0.205365 50.5934 0.62136 49.3085C1.03736 48.0237 1.64818 46.9021 2.44858 45.9437C3.25424 44.9853 4.24421 44.2165 5.429 43.6478C6.60854 43.0791 7.96184 42.7895 9.49417 42.7895C11.6479 42.7895 13.4698 43.3582 14.96 44.5009C16.4503 45.6435 17.3402 47.3707 17.6245 49.6771H15.1707C14.8337 48.1711 14.2123 46.9916 13.3013 46.1333Z" fill="currentColor"></path><path d="M22.4109 35.6596V46.8283H22.4899C22.9585 45.6067 23.7852 44.6272 24.9806 43.89C26.1759 43.1528 27.4818 42.779 28.9141 42.779C30.3464 42.779 31.4891 42.9633 32.4369 43.3213C33.3847 43.6847 34.143 44.1955 34.7117 44.8589C35.2804 45.5224 35.6859 46.3334 35.9176 47.2917C36.1493 48.2501 36.2651 49.3296 36.2651 50.5249V63.4471H33.8113V50.9146C33.8113 50.0563 33.7323 49.2611 33.5796 48.5186C33.4216 47.7814 33.153 47.139 32.7634 46.5914C32.3737 46.049 31.8471 45.6172 31.1889 45.3065C30.5254 44.9959 29.704 44.8379 28.7193 44.8379C27.7346 44.8379 26.8552 45.0116 26.0916 45.3645C25.3281 45.7173 24.6752 46.1964 24.1486 46.802C23.6167 47.4128 23.2007 48.1395 22.9006 48.982C22.6004 49.8246 22.4372 50.7408 22.4109 51.7255V63.4418H19.957V35.6544H22.4109V35.6596Z" fill="currentColor"></path><path d="M41.7732 35.6596V39.5932H39.3193V35.6596H41.7732ZM41.7732 43.3635V63.4471H39.3193V43.3635H41.7732Z" fill="currentColor"></path><path d="M47.2864 35.6596V63.4471H44.8325V35.6596H47.2864Z" fill="currentColor"></path><path d="M65.9167 63.4524V59.6399H65.8377C65.5797 60.2876 65.1953 60.8879 64.6898 61.4303C64.1843 61.9779 63.6051 62.4361 62.9574 62.8099C62.3097 63.1891 61.6146 63.4787 60.8774 63.6841C60.1402 63.8894 59.403 63.9947 58.6763 63.9947C57.144 63.9947 55.817 63.7156 54.6848 63.1575C53.558 62.5993 52.6154 61.8358 51.8624 60.8616C51.1094 59.8874 50.5512 58.7606 50.1879 57.4757C49.8245 56.1909 49.6455 54.8376 49.6455 53.4105C49.6455 51.9835 49.8245 50.6302 50.1879 49.3454C50.5512 48.0605 51.1094 46.9336 51.8624 45.9595C52.6154 44.9853 53.558 44.2165 54.6848 43.6425C55.8117 43.0738 57.144 42.7842 58.6763 42.7842C59.4293 42.7842 60.1612 42.8737 60.8774 43.058C61.5883 43.2423 62.257 43.5214 62.8836 43.8953C63.505 44.2692 64.0579 44.7326 64.5371 45.2749C65.0163 45.8173 65.3849 46.4545 65.6482 47.1811H65.7272V35.6596H68.181V63.4471H65.922L65.9167 63.4524ZM52.468 56.5068C52.7154 57.5336 53.1051 58.4446 53.637 59.2503C54.1688 60.0559 54.8481 60.7089 55.6801 61.2144C56.5121 61.7199 57.5073 61.9727 58.6763 61.9727C59.9717 61.9727 61.0722 61.7199 61.9674 61.2144C62.8626 60.7089 63.5893 60.0507 64.1474 59.2503C64.7056 58.4446 65.1058 57.5336 65.3533 56.5068C65.6008 55.48 65.7219 54.4532 65.7219 53.4105C65.7219 52.3679 65.6008 51.3411 65.3533 50.3143C65.1058 49.2874 64.7056 48.3765 64.1474 47.5708C63.5893 46.7651 62.8626 46.1122 61.9674 45.6067C61.0722 45.1012 59.9769 44.8484 58.6763 44.8484C57.5073 44.8484 56.5121 45.1012 55.6801 45.6067C54.8481 46.1122 54.1688 46.7704 53.637 47.5708C53.1051 48.3765 52.7154 49.2874 52.468 50.3143C52.2205 51.3411 52.0994 52.3732 52.0994 53.4105C52.0994 54.4479 52.2205 55.48 52.468 56.5068Z" fill="currentColor"></path><path d="M73.4941 43.3687V48.0763H73.5731C74.1944 46.4439 75.1633 45.1854 76.4745 44.3008C77.7857 43.4214 79.3496 43.0159 81.1663 43.0949V45.5487C80.05 45.4961 79.0389 45.6435 78.1332 45.9963C77.2222 46.3439 76.4376 46.8441 75.7794 47.4971C75.1159 48.1448 74.6052 48.9188 74.2418 49.814C73.8785 50.7092 73.6994 51.6886 73.6994 52.7523V63.4576H71.2456V43.374H73.5046L73.4941 43.3687Z" fill="currentColor"></path><path d="M84.0733 56.8175C84.3208 57.7653 84.7157 58.6131 85.2581 59.3661C85.8058 60.1191 86.4903 60.7405 87.3223 61.2355C88.1543 61.7305 89.1495 61.9727 90.3185 61.9727C92.1089 61.9727 93.5096 61.504 94.5206 60.572C95.5316 59.6399 96.232 58.392 96.6216 56.8333H99.0755C98.5542 59.1186 97.6011 60.8827 96.2162 62.1254C94.826 63.3734 92.8619 63.9947 90.3185 63.9947C88.7335 63.9947 87.3644 63.7156 86.2112 63.1575C85.058 62.5993 84.1155 61.8358 83.3888 60.8616C82.6621 59.8874 82.125 58.7606 81.7722 57.4757C81.4194 56.1909 81.2456 54.8376 81.2456 53.4105C81.2456 52.0888 81.4194 50.7882 81.7722 49.5191C82.1197 48.2501 82.6621 47.1127 83.3888 46.1122C84.1155 45.1117 85.0528 44.306 86.2112 43.7005C87.3644 43.0896 88.7335 42.7842 90.3185 42.7842C91.9035 42.7842 93.3042 43.1107 94.4416 43.7584C95.5843 44.4061 96.5111 45.2591 97.2272 46.307C97.9381 47.3602 98.4541 48.566 98.7648 49.9246C99.0755 51.2884 99.2071 52.6681 99.1545 54.0688H83.7047C83.7047 54.9534 83.8258 55.8644 84.0733 56.8122V56.8175ZM96.2162 49.3243C95.916 48.466 95.4948 47.7077 94.9524 47.0495C94.4048 46.386 93.7465 45.8542 92.9672 45.454C92.1879 45.0538 91.3085 44.8484 90.3185 44.8484C89.3286 44.8484 88.4123 45.0485 87.633 45.454C86.8536 45.8542 86.1954 46.386 85.6478 47.0495C85.1054 47.713 84.6684 48.4765 84.3419 49.3454C84.0154 50.2142 83.8048 51.1041 83.6995 52.0098H96.7006C96.6743 51.0778 96.5111 50.1826 96.2162 49.3243Z" fill="currentColor"></path><path d="M103.967 43.3687V46.8336H104.046C104.515 45.6119 105.342 44.6325 106.537 43.8953C107.732 43.1581 109.038 42.7842 110.47 42.7842C111.903 42.7842 113.045 42.9685 113.993 43.3266C114.941 43.6899 115.699 44.2007 116.268 44.8642C116.837 45.5277 117.242 46.3386 117.474 47.297C117.706 48.2554 117.822 49.3348 117.822 50.5302V63.4524H115.368V50.9198C115.368 50.0615 115.289 49.2664 115.136 48.5239C114.978 47.7867 114.709 47.1443 114.32 46.5966C113.93 46.0543 113.404 45.6225 112.745 45.3118C112.082 45.0011 111.26 44.8431 110.276 44.8431C109.291 44.8431 108.412 45.0169 107.648 45.3697C106.885 45.7225 106.232 46.2017 105.705 46.8073C105.173 47.4181 104.757 48.1448 104.457 48.9873C104.157 49.8298 103.994 50.7461 103.967 51.7308V63.4471H101.513V43.3635H103.967V43.3687Z" fill="currentColor"></path><path d="M134.456 47.2812C134.172 46.723 133.787 46.2649 133.308 45.9016C132.829 45.5382 132.276 45.2749 131.655 45.1064C131.033 44.9379 130.37 44.8537 129.67 44.8537C129.127 44.8537 128.574 44.9116 128.016 45.0274C127.458 45.1433 126.947 45.3381 126.478 45.6119C126.01 45.8858 125.636 46.2438 125.352 46.6809C125.067 47.1232 124.925 47.6656 124.925 48.3133C124.925 48.8609 125.062 49.319 125.336 49.6929C125.61 50.072 125.952 50.388 126.368 50.646C126.784 50.904 127.237 51.1199 127.732 51.2884C128.221 51.4569 128.68 51.5938 129.096 51.6992L132.366 52.4364C133.066 52.5417 133.761 52.726 134.446 52.9998C135.135 53.2736 135.741 53.6317 136.273 54.0688C136.805 54.5111 137.242 55.0535 137.579 55.7011C137.916 56.3488 138.084 57.1176 138.084 57.997C138.084 59.087 137.837 60.0138 137.347 60.7773C136.852 61.5409 136.225 62.1675 135.462 62.6467C134.698 63.1259 133.835 63.4682 132.871 63.6788C131.913 63.8841 130.965 63.9895 130.028 63.9895C127.669 63.9895 125.752 63.4313 124.288 62.3149C122.824 61.1986 121.987 59.4082 121.776 56.9439H124.23C124.335 58.6026 124.936 59.8558 126.041 60.6984C127.142 61.5409 128.511 61.9621 130.149 61.9621C130.744 61.9621 131.36 61.899 131.997 61.7673C132.634 61.6357 133.224 61.4145 133.766 61.1038C134.309 60.7931 134.756 60.3982 135.109 59.919C135.462 59.4398 135.636 58.8501 135.636 58.1497C135.636 57.5547 135.515 57.0544 135.267 56.649C135.02 56.2488 134.688 55.9118 134.272 55.638C133.856 55.3641 133.382 55.1377 132.85 54.9587C132.318 54.7796 131.781 54.6217 131.233 54.49L128.079 53.7897C127.274 53.5843 126.536 53.3421 125.862 53.0683C125.188 52.7944 124.599 52.4574 124.093 52.0572C123.588 51.657 123.193 51.1621 122.903 50.5776C122.619 49.9931 122.476 49.2716 122.476 48.4186C122.476 47.4076 122.703 46.5387 123.156 45.812C123.609 45.0854 124.198 44.5009 124.925 44.0585C125.652 43.6162 126.463 43.295 127.358 43.0844C128.253 42.879 129.143 42.7737 130.022 42.7737C131.033 42.7737 131.976 42.9053 132.845 43.1634C133.714 43.4214 134.477 43.8268 135.141 44.3692C135.804 44.9116 136.331 45.5909 136.715 46.3913C137.105 47.1969 137.326 48.1448 137.379 49.2348H134.925C134.898 48.4818 134.74 47.8288 134.456 47.2707V47.2812Z" fill="currentColor"></path><path d="M122.887 37.3078L120.755 43.3793H119.217L120.491 37.3078H122.887Z" fill="currentColor"></path></g><g class="logo-svg__default-balloon-reflection"><path d="M225.37 10.721C225.37 10.721 229.561 14.6703 229.577 14.6335C230.472 11.1475 233.126 8.63574 234.985 7.46674C235.016 7.44041 231.594 4.51791 231.594 4.51791C228.808 5.37623 226.402 8.25134 225.364 10.6841" fill="currentColor"></path></g></svg>