<svg id="Layer_1" data-name="Layer 1" xmlns="http://www.w3.org/2000/svg" viewBox="0 0 643.85 171.11"><defs><style>.cls-1{fill:#fff}</style></defs><path class="cls-1" d="M232.15 42.21c-.2-6 1.39-7.93-8.72-7.93v-4.06c4.66.1 10.3.1 16 .19 5.65-.09 11.3-.09 16-.19v4.06c-9.62 0-8.73 1.68-8.73 7.93V77.5c-.29 11.8 4 18.34 16.66 18.34 12.39 0 19.62-6.64 19.62-19V42.21c0-7.34-.59-7.93-10-7.93v-4.06c4.17.1 8.23.1 12.39.19 4.07-.09 8-.09 12.1-.19v4.06c-8.92 0-8.92 1.29-8.92 7.93V77.4c0 16.56-11.21 22.4-26.57 22.4-18.54 0-29.74-3-29.74-23.09Z" transform="translate(-17.95 -23.14)"/><path class="cls-1" d="M312.54 58.07c5.56-3.87 8.53-6.84 16.06-6.84 10.71 0 14 5.45 14 15.27v20.42c0 6-1.09 8.23 7 8.23V99c-4.56-.1-9.12-.1-13.68-.2-4.56.1-9.12.1-12.39.2v-3.85c6.74 0 5.75-3 5.75-8.23V68.08c0-5.65-1.19-9.81-7.73-9.81-6.75 0-8.53 5.65-8.53 11.2v17.45c0 5.25-1 8.23 5.75 8.23V99c-3.27-.1-7.83-.1-12.39-.2-4.56.1-9.12.1-13.58.2v-3.85c8 0 6.94-2.28 6.94-8.23v-22.8c0-6 1.09-8.23-6.94-8.23V52c3.27.1 6.64.1 9.91.2 3.27-.1 6.54-.1 9.81-.2Z" transform="translate(-17.95 -23.14)"/><path class="cls-1" d="M369.06 87c0 5.85-1.09 8.13 7 8.13V99c-4.56-.1-9.12-.1-13.68-.2-4.56.1-9.12.1-13.68.2v-3.85c8.13 0 7-2.28 7-8.13V62.93c0-4.56.89-6.84-7-6.84v-3.87h20.32Zm-13.18-51.63c0-4.46 2.18-7.63 6.84-7.63s6.84 3.17 6.84 7.63-2.18 7.53-6.84 7.53-6.84-3.07-6.84-7.53ZM425.73 55.59c-5.15 0-6.84 2.48-8.33 6.55L403.62 99c-1.58-.1-3.07-.1-4.65-.2-1.59.1-3.08.1-4.66.2l-13.68-36.86c-1.29-4.56-2.68-6.15-7.74-6.55V52c4.57.1 9.12.1 13.69.2 4.55-.1 9-.1 13.57-.2v3.57c-3.56.3-5.25 1.09-5.84 3.27-.2.8-.1 1.49.59 3.37l9 24.89 7.46-26.1a14.69 14.69 0 0 0 .59-2.78c-.3-1.79-2.38-2.58-5.75-2.58V52c3.27.1 6.55.1 9.82.2 3.27-.1 6.44-.1 9.71-.2Z" transform="translate(-17.95 -23.14)"/><path class="cls-1" d="M437.31 76.61c0 6.54-1.09 19.13 8.82 19.13 5.26 0 7.54-2.28 8.83-8 .39-1.58.2-2.58 1.58-2.77h6.25c1.39 0 1.19 1.58 1.09 2.67-.7 9.52-10 12.19-17.75 12.19-18.34 0-23.29-7.23-23.29-24.68 0-17.94 6.34-23.89 22.4-23.89 17.45 0 20.92 8.23 20.23 25.38Zm14.87-4.56c-.2-9.32.79-16.95-7.53-16.95-7.74 0-7.14 8-7.34 16.95ZM486.21 57.87c2.87-3.86 6.34-6.64 11.4-6.64 5.65 0 9.42 3 9.42 8.82 0 4.17-.2 5.85-5 5.85-2.68 0-5.06-.3-5.16-3.57-.09-2.47-.79-4.75-3.76-4.75-5.26 0-6.45 6.14-6.45 12v17.24c0 6.84-1 8.33 8.13 8.33V99c-5.65-.1-10.21-.1-14.77-.2-4.56.1-9.12.1-13.58.2v-3.85c8 0 6.94-2.28 6.94-8.33V64c0-6 1.09-8.33-6.94-8.33V52c4.36.1 8.72.1 13.09.2 2.18-.1 4.46-.1 6.64-.2ZM544.57 65.7h-6.05c-.1-6.24-1.78-10.6-8.82-10.6-4.36 0-7.93 1.78-7.93 6.64 0 12 25 3.37 25 23.1 0 8.22-5.75 15-19 15a88.77 88.77 0 0 1-18.44-1.88V84.34h6.64l.3 4.16c.4 4.86 4.16 7.64 8.82 7.64 5.45 0 9.22-2.08 9.22-7.93 0-6.25-9.61-7.24-15.07-9-5.85-1.89-9.91-6-9.91-12.4 0-12.78 10.11-15.56 20.92-15.56a47.34 47.34 0 0 1 14.37 2.08ZM569.5 87c0 5.85-1.09 8.13 7 8.13V99c-4.56-.1-9.12-.1-13.69-.2-4.55.1-9.11.1-13.67.2v-3.85c8.12 0 7-2.28 7-8.13V62.93c0-4.56.9-6.84-7-6.84v-3.87h20.36Zm-13.19-51.63c0-4.46 2.18-7.63 6.84-7.63s6.85 3.17 6.85 7.63-2.18 7.53-6.84 7.53-6.85-3.07-6.85-7.53ZM582.7 56.78h-6.54v-4.56h6.54V39l13.3-4.32v17.54h9.72v4.56H596v24.69c0 5-.69 13.28 6.45 13.28a10 10 0 0 0 4.16-.69v3.76a41.82 41.82 0 0 1-11.4 2c-8.73 0-12.49-3.27-12.49-12.29ZM616.7 62.14c-2.38-5.66-1.89-5.76-7.74-6.55V52c4.57.1 9.12.1 13.69.2 4.56-.1 9-.1 13.58-.2v3.57l-1.79.3c-1.29.2-3.76.59-4.16 2.18a10 10 0 0 0 .69 4.07l9 25L647.33 62a23.77 23.77 0 0 0 1-3.67c.5-3-4.16-2.58-6.05-2.78V52c3.27.1 6.55.1 9.82.2 3.27-.1 6.44-.1 9.71-.2v3.57c-2.87.89-5.26-1.68-8.82 8.43l-17 44.21c-2.08 5.45-7.63 15.36-17.85 15.36-3.66 0-7.23-2.77-7.23-6.73a5.13 5.13 0 0 1 4.56-5.26c4.46-.59 5 4.76 8.82 4.46 4.16-.39 6.74-6.34 8-9.81l2.87-7.44h-4.85ZM232.74 131.24c-.2-6.05 1.39-8-8.72-8v-4.06c4.66.1 10.31.1 16 .19 5.65-.09 11.3-.09 16-.19v4.06c-9.61 0-8.72 1.69-8.72 8v18.34h27.26v-18.34c-.2-6.05 1.39-8-8.73-8v-4.06c4.66.1 10.31.1 16 .19 5.64-.09 11.3-.09 15.95-.19v4.06c-9.61 0-8.72 1.69-8.72 8v44.61c0 6.35-.89 8 8.72 8v4.06c-4.65-.09-10.31-.09-15.95-.19-5.66.1-11.31.1-16 .19v-4.06c10.12 0 8.53-2 8.73-8v-21.41h-27.34v21.41c0 6.35-.89 8 8.72 8v4.06c-4.66-.09-10.31-.09-16-.19-5.65.1-11.3.1-16 .19v-4.06c10.11 0 8.52-2 8.72-8Z" transform="translate(-17.95 -23.14)"/><path class="cls-1" d="M311.43 165.54c0 6.55-1.09 19.13 8.83 19.13 5.25 0 7.53-2.28 8.82-8 .4-1.58.2-2.57 1.58-2.77h6.25c1.39 0 1.19 1.58 1.09 2.67-.69 9.52-10 12.2-17.74 12.2-18.34 0-23.3-7.24-23.3-24.69 0-17.94 6.34-23.89 22.4-23.89 17.45 0 20.92 8.23 20.23 25.38ZM326.3 161c-.2-9.32.8-16.95-7.53-16.95-7.73 0-7.14 8-7.34 16.95ZM370.41 183.28c-5.25 3.48-8.92 5.46-15.16 5.46-8.82 0-13.19-5.26-13.19-13.78 0-7.93 4.27-12.69 12.3-13.48a61.55 61.55 0 0 1 7.43-.4h8.13c0-5.94 2.38-16.85-6.44-16.85-3.87 0-6.45 1.49-6.74 7.83.19 2.18-.4 3-2 3h-6.94c-1.19.2-2.18-.59-2-3-.79-8.92 8.82-11.9 17.65-11.9 14.37.79 19.72 2 19.72 15.27v20.42c0 7.83-1.48 8.23 7 8.23v3.86c-3.27-.09-6.64-.09-9.91-.19-3.27.1-6.64.1-9.92.19Zm-.49-18.28h-3.77c-5.15 0-8.32 1-9.71 6.54-.79 5-.4 11.2 6 11.2 5.26 0 7.44-3.57 7.44-8.62ZM413.2 175.85c0 6-1.09 8.23 7 8.23v3.86c-4.56-.09-9.12-.09-13.68-.19-4.56.1-9.12.1-13.68.19v-3.86c8.13 0 7-2.28 7-8.23v-50.06c0-6 1.09-8.23-7-8.23v-3.67h20.36ZM426.92 145.72h-6.54v-4.57h6.54V128l13.28-4.36v17.54h9.72v4.57h-9.72v24.65c0 5-.69 13.28 6.45 13.28a10 10 0 0 0 4.16-.69v3.77a41.82 41.82 0 0 1-11.4 2c-8.73 0-12.49-3.27-12.49-12.29ZM474.9 146.71h.19c3.47-4.56 9.22-6.44 15.07-6.44 11.5 0 14 5.45 14 15.76v19.82c0 6-1.09 8.23 7 8.23v3.86c-4.56-.09-9.12-.09-13.68-.19-4.56.1-9.12.1-12.49.19v-3.86c6.84 0 5.85-2.87 5.85-8.23v-18.24c0-5.55-.6-10.61-7.44-10.61-6.44 0-8.92 5.16-8.52 11v17.84c0 5.36-1 8.23 5.85 8.23v3.86c-3.38-.09-7.94-.09-12.5-.19-4.56.1-9.12.1-13.68.19v-3.86c8.13 0 7-2.28 7-8.23v-50.05c0-6 1.09-8.23-7-8.23v-3.67h20.35ZM188.43 108.13l-.93-.92-24.17-24.15V47.6h-36l-23.48-23.53-.93-.93-.92.93L78.46 47.6H42.85v35.62l-24 24-.92.92.92.92 24 24v36.22h35.2l24.09 24.09.93.92.92-.92 24.09-24.09h35.25v-36l24.17-24.15Zm-85.36 33.55-.93.92L80 164.74v-32.68H46.58l23-23 .92-.92-.92-.92-22.42-22.45H80v-32l22 22 .92.92.93-.92 22.31-22.34v32.34h33l-22.43 22.44-.92.92.92.93 23 23h-33.6v32.72L104 142.6Z" transform="translate(-17.95 -23.14)"/></svg>
