<svg id="Layer_1" data-name="Layer 1" xmlns="http://www.w3.org/2000/svg" viewBox="0 0 139.4 42.03"><defs><style>.cls-1{fill:#124a7e}</style></defs><path class="cls-1" d="M.84.1h.83v2.44h2.8V.1h.83v5.84h-.83V3.28h-2.8v2.66H.84V.1zM11.49 0c1.77 0 2.81 1.29 2.81 3.02s-1.03 3.02-2.81 3.02-2.81-1.25-2.81-3.02S9.72 0 11.49 0m0 5.31c1.35 0 1.92-1.12 1.92-2.28S12.77.74 11.49.75c-1.29 0-1.93 1.1-1.93 2.28s.58 2.28 1.93 2.28M22.54 3.52c0 1.64-.83 2.52-2.27 2.52S18 5.16 18 3.52V.1h.84v3.31c0 1.12.35 1.89 1.43 1.89s1.43-.77 1.43-1.89V.1h.84v3.42ZM29.2.98c-.43-.17-.66-.24-1.09-.24-.47 0-1.02.17-1.02.78 0 1.12 2.51.86 2.51 2.79 0 1.25-.96 1.74-2.13 1.74-.41 0-.81-.12-1.2-.24l.08-.78c.29.12.79.28 1.21.28.48 0 1.15-.27 1.15-.95 0-1.31-2.51-.95-2.51-2.76 0-1.04.82-1.59 1.87-1.59.39 0 .85.07 1.25.21l-.12.77ZM34.62.84H32.8V.1h4.47v.74h-1.81v5.1h-.84V.84zM42.91 0c1.77 0 2.81 1.29 2.81 3.02s-1.03 3.02-2.81 3.02-2.81-1.25-2.81-3.02S41.14 0 42.91 0m0 5.31c1.35 0 1.92-1.12 1.92-2.28S44.2.74 42.91.75c-1.29 0-1.92 1.09-1.92 2.28s.58 2.28 1.92 2.28M49.41.1h1.14l2.58 4.71h.02V.1h.83v5.84h-1.07l-2.64-4.8h-.02v4.8h-.84V.1zM39.86 36.62h.76v4.65h2.22v.67h-2.99v-5.32ZM45.73 36.62h2.98v.67h-2.22v1.56h2.02v.67h-2.02v1.75h2.22v.67h-2.98v-5.32ZM53.63 36.62h.8l2.25 5.32h-.83l-.54-1.34H52.7l-.54 1.34h-.8l2.27-5.32Zm.37.71-1.06 2.64h2.12L54 37.33ZM59.42 36.62h1.57c1.58 0 2.84.97 2.84 2.61 0 1.78-1.08 2.71-2.84 2.71h-1.57v-5.32Zm.76 4.65h.8c1.31 0 2.04-.63 2.04-2 0-1.24-.85-1.98-1.94-1.98h-.89v3.98ZM66.79 36.62h.76v5.32h-.76v-5.32ZM71 36.62h1.04l2.35 4.28h.01v-4.28h.76v5.32h-.98l-2.41-4.38h-.01v4.38H71v-5.32ZM82.57 37.57c-.37-.24-.78-.36-1.46-.36-1.23 0-2.04.89-2.04 2.08 0 1.25.9 2.08 2 2.08.53 0 .66-.05.85-.09v-1.62H80.8v-.62h1.88v2.77c-.29.1-.79.24-1.62.24-1.68 0-2.8-1.08-2.8-2.77s1.19-2.73 2.81-2.73c.78 0 1.12.11 1.56.27l-.06.77ZM90.31 36.62h1.26l1.67 4.42 1.64-4.42h1.26v5.32h-.76v-4.6h-.02l-1.76 4.6h-.75l-1.76-4.6h-.01v4.6h-.76v-5.32ZM99.56 36.62h2.98v.67h-2.22v1.56h2.02v.67h-2.02v1.75h2.22v.67h-2.98v-5.32ZM105.73 36.62h1.57c1.58 0 2.83.97 2.83 2.61 0 1.78-1.08 2.71-2.83 2.71h-1.57v-5.32Zm.76 4.65h.8c1.31 0 2.04-.63 2.04-2 0-1.24-.85-1.98-1.94-1.98h-.89v3.98ZM113.3 36.62h.76v5.32h-.76v-5.32ZM120.82 37.5c-.34-.2-.71-.3-1.1-.3-1.23 0-2.04.88-2.04 2.08s.9 2.08 2.01 2.08c.38 0 .89-.1 1.16-.26l.05.74c-.4.17-.9.19-1.21.19-1.68 0-2.81-1.08-2.81-2.77s1.19-2.73 2.81-2.73c.41 0 .82.06 1.2.23l-.06.74ZM124.1 36.62h.76v5.32h-.76v-5.32ZM128.23 36.62h1.04l2.35 4.28h.01v-4.28h.76v5.32h-.98L129 37.56h-.02v4.38h-.76v-5.32ZM135.79 36.62h2.98v.67h-2.22v1.56h2.02v.67h-2.02v1.75h2.22v.67h-2.98v-5.32ZM32.38 21.86c0-4.09 2.6-7.84 7.24-7.84s6.45 3.03 6.45 6.42v.36h-9.61v.36c0 4.08 1.32 7.05 4.71 7.05 2.3 0 3.39-.82 4.61-2.97l.63.43c-1.19 2.4-3.49 4.22-6.49 4.22-5.17 0-7.54-3.62-7.54-8.03m9.65-1.94c0-2.44-.3-5.1-2.54-5.1-1.81 0-2.93 1.97-3.03 5.17l5.57-.06ZM50.26 25.29v-9.32h-3v-1.42h3.06V9.61h3.65v4.94h4.38v1.42H54v8.99c0 1.65.49 2.93 2.24 2.93 1.65 0 1.81-1.32 1.94-2.67h.79c-.2 2.5-1.61 4.67-4.51 4.67s-4.22-1.68-4.22-4.61M59.45 28.66c.59-.04.99-.1 1.45-.26.63-.2.85-.72.85-1.45V8.2c-.03-.72-.36-1.55-.89-1.91-.39-.26-1.61-.49-2.21-.53V5.1l6.65-.36.2.23v11.59h.07c1.25-1.25 2.5-2.7 5.3-2.7 3.03 0 4.41 2.04 4.41 5.17v7.77c0 .72.23 1.22.82 1.48.46.2.85.29 1.45.36v.66h-8.2v-.66c.49-.04.99-.1 1.38-.26.56-.2.72-.72.72-1.45v-7.94c0-2.24-1.09-3.39-2.37-3.39-2.11 0-3.23 1.42-3.59 2.18v8.99c0 .72.23 1.18.76 1.48.46.23.92.36 1.41.4v.66h-8.23v-.66ZM105.86 28.66c.59-.04.99-.1 1.45-.26.59-.2.85-.79.85-1.45v-9.58c-.03-.73-.33-1.28-.85-1.65-.4-.26-1.35-.59-1.94-.63v-.63l6.35-.4.23.23v12.45c0 .69.3 1.25.89 1.52.49.23.99.33 1.45.4v.66h-8.43v-.66Zm1.48-20.88c0-1.35 1.08-2.4 2.4-2.4s2.43 1.02 2.43 2.34-1.06 2.44-2.43 2.44-2.4-1.05-2.4-2.37M116.94 28.55l-.46.99h-1.05l-.16-5.31h.69c.49 1.78 2.47 4.87 5.14 4.87 2.04 0 2.83-1.12 2.83-2.7 0-1.71-1.45-2.4-3.82-3.13-2.14-.66-4.41-1.91-4.41-4.84 0-2.47 2.01-4.44 5.33-4.44 1.78 0 3.1.52 3.69.86l.33-.89h.99l.23 4.8h-.66c-.53-2.04-2.14-3.98-4.38-3.98-1.68 0-2.4 1.09-2.4 2.3 0 1.78 1.22 2.21 3.72 3.03 2.67.89 4.45 2.21 4.45 4.91 0 3.09-2.57 4.87-5.86 4.87-1.84 0-3.59-.79-4.18-1.35M130.67 25.29v-9.32h-2.99v-1.42h3.06V9.61h3.65v4.94h4.38v1.42h-4.35v8.99c0 1.65.49 2.93 2.24 2.93 1.65 0 1.81-1.32 1.94-2.67h.79c-.2 2.5-1.61 4.67-4.51 4.67s-4.22-1.68-4.22-4.61M103.18 28.04c-.52-.36-.78-.88-.85-1.56V5.39l-.23-.23-7.16.36v.62c.88.07 2.28.36 2.83.75.52.33.81 1.17.85 1.86V15c-.49-.19-1.92-.81-3.84-.81-1.59 0-3.13.56-4.38 1.55a7.576 7.576 0 0 0-1.84 2.13 7.896 7.896 0 0 0-1.04 3.97c0 1.7.36 3.18.97 4.4-.11.37-.25.71-.4 1.01-.57 1.16-1.43 1.88-2.64 1.88-2.7 0-3.61-3.42-3.61-7.29 0-3.13.62-6.9 3.64-6.9.52 0 .96.13 1.35.35.22.13.41.29.59.48.02-.04.06-.08.1-.13.06-.07.13-.14.2-.21.33-.33.8-.72.8-.72-.19-.07-.39-.13-.59-.18-.09-.03-.51-.14-.58-.15l-.48-.09c-.46-.07-.93-.08-1.4-.08-4.75 0-7.84 3.22-7.84 7.88 0 4.88 3.52 7.85 7.65 7.85 1.99 0 3.61-.54 4.86-1.46a7.095 7.095 0 0 0 2.17-2.6c.58-1.17.88-2.52.88-3.96s-.32-2.79-.91-3.92c.1-.3.22-.56.34-.82.67-1.38 1.66-2.17 2.83-2.17 1.95 0 2.83 1.5 3.16 2.57v9.28c-.78.88-1.53 1.5-2.93 1.5-.88 0-1.46-.14-2.02-.61-.44.67-.99 1.26-1.64 1.74.7.26 1.44.4 2.23.4 2.02 0 3.55-1.27 4.26-2.02l.13.03v1.43l.23.23 6.21-.22v-.65c-.58-.03-1.53-.36-1.92-.62ZM30.24 28.22c-.44-.21-.68-.48-.8-.83 0-.05-.02-.1-.02-.16V9.57h-1.43L16.92 26.41V9.57h-1.43L4.41 26.41c-.26.38-.84 1.59-2.52 2.03-.47.12-1.89.25-1.89.25v.64h9.42v-.64c-.53-.06-1.06-.12-1.59-.22-.48-.1-.95-.22-1.4-.4-.35-.15-.6-.32-.66-.73-.04-.26.04-.51.18-.73.8-1.27 7.01-11.07 7.01-11.07v13.79h3.77l8.74-13.81v11.45c0 .52-.28.92-.74 1.24-.04.03-.08.05-.13.07-.4.2-1.91.35-2.43.4v.64h10.2v-.64c-.52-.06-1.82-.29-2.14-.46Z"/></svg>
