<?xml version="1.0" encoding="UTF-8"?><svg id="Layer_2" xmlns="http://www.w3.org/2000/svg" viewBox="0 0 414.9686 97.006"><defs><style>.cls-1{fill:#fff;}</style></defs><g id="Layer_1-2"><g><path class="cls-1" d="m136.6226,71.4572c-.4286,1.0194-.9879,1.9821-1.6748,2.8849-.6885.9044-1.459,1.7331-2.3145,2.4878-.8555.7547-1.7189,1.4054-2.5918,1.9521-.8729.5452-1.7016.9705-2.4831,1.2746-.783.3041-1.4401.4569-1.9742.4601-1.1013.0048-1.971-.4128-2.6075-1.251-.6381-.8382-.9595-1.9348-.9674-3.2851-.0031-.6664.0898-1.3896.2773-2.1648.1891-.7767.3971-1.5031.6287-2.1806.23-.6759.4443-1.2525.6412-1.7284.1985-.4758.3135-.7484.3466-.8161l-.1245-.074c-.0347.0504-.167.1938-.3986.4286-.2332.2347-.5184.5278-.8587.8791-.3403.3514-.7232.7405-1.1454,1.1691-.4238.427-.8461.8539-1.2699,1.281-.4238.427-.8272.8272-1.2085,1.1943-.3813.3686-.7059.6712-.9706.9059-.2663.2505-.5861.5404-.9595.8681-.3734.3261-.7641.6665-1.1706,1.0179-.4065.3513-.8098.6995-1.2085,1.0446-.3986.3435-.7641.6538-1.0966.9296-.3325.2773-.6097.4994-.8351.6681-.2237.167-.3608.2505-.4112.2505-.1339.0015-.2962-.0693-.4884-.2096-.1922-.1402-.2899-.3198-.2899-.5357-.0016-.0662.0945-.2836.2836-.6523.1906-.3671.4427-.824.7563-1.3676.3151-.542.6743-1.1486,1.0808-1.8182.4049-.6681.8146-1.3455,1.2274-2.0325.4144-.6854.824-1.355,1.2289-2.0073.4065-.6523.7736-1.2368,1.106-1.7551.479-.7705.9879-1.5771,1.5267-2.4232.5373-.8445,1.0336-1.6544,1.4889-2.4327.4553-.7784.8303-1.492,1.1281-2.1443s.4443-1.1612.4427-1.5283c-.0016-.5168-.2379-.7752-.7043-.7721-.1339,0-.3624.0426-.6869.1277-.3246.0851-.7043.208-1.1376.3686-.4317.1607-.8981.3592-1.3975.5956-.4995.2347-.9894.4963-1.4716.7814-.9642.5877-1.6922,1.0682-2.1822,1.4369-.4916.3687-.7358.5955-.7358.6791.0016.0835.0804.1655.2395.2489.1591.0819.2379.2237.2395.4238,0,.0662-.1119.2127-.3356.4396-.2237.2253-.5058.4868-.8461.7799-.3403.2931-.7153.6034-1.1218.9296-.4081.3277-.7894.6255-1.147.895-.3577.2678-.668.49-.9343.6664s-.4238.2647-.4742.2647c-.1497.0016-.3088-.0725-.4758-.2221-.1686-.1497-.2521-.2994-.2537-.449,0-.0835.2001-.3513.5971-.8035.3986-.4522.9248-.9974,1.5803-1.6339.657-.6365,1.4164-1.3077,2.2798-2.012.8634-.7043,1.7536-1.3597,2.6674-1.9647.9154-.6034,1.8261-1.1045,2.7336-1.5015.906-.3955,1.7426-.5955,2.5099-.5987.3009-.0016.5845.0504.8524.1576.2663.1071.5089.2473.7263.4223.2174.1733.3907.3765.5168.6097s.1891.4758.1906.7247c.0032.4837-.0945.9973-.293,1.5409-.1969.542-.4538,1.106-.7673,1.6906-.3135.5861-.6743,1.2006-1.0793,1.845-.4065.6444-.8161,1.3093-1.2289,1.9946-.4301.687-.8807,1.4354-1.3534,2.2452-.4711.813-.917,1.5724-1.3392,2.283-.4222.7121-.7862,1.3219-1.0919,1.8324-.3057.5089-.4932.8161-.5593.9154l.2757.074c.0993-.0851.345-.3025.7358-.6555.3892-.3513.8414-.7578,1.3566-1.2179.5152-.4617,1.0462-.9485,1.5945-1.459.5483-.512,1.0288-.9674,1.4448-1.3707.4144-.4018.8839-.876,1.407-1.4196.5231-.5452,1.021-1.0572,1.4936-1.5346.4727-.4758.8918-.8823,1.2573-1.2195.3655-.334.5971-.5026.698-.5026.2001-.0016.4254.0898.6775.271.2505.1828.3766.416.3781.6995,0,.0835-.0788.3009-.2347.6523-.1576.3498-.3592.7894-.6066,1.3156-.2474.5263-.5073,1.1234-.7799,1.7914-.271.6696-.531,1.366-.7783,2.0923-.2458.7279-.4475,1.4668-.6019,2.2184-.1544.7515-.23,1.4684-.2269,2.1522.0031.668.1891,1.2462.5577,1.7362.3703.4884.9296.7326,1.6795.7295.501-.0016,1.1123-.1639,1.8371-.4853.7232-.3198,1.4842-.7563,2.283-1.3093.7972-.5562,1.5866-1.2006,2.3665-1.938.7799-.7389,1.4858-1.5251,2.1144-2.3618.6302-.8382,1.1391-1.7079,1.5267-2.6107.3876-.9012.5798-1.7867.5751-2.6532-.0031-.6665-.1182-1.2541-.3451-1.763-.2285-.5074-.5184-.9312-.8697-1.2715-.3514-.3387-.7279-.5955-1.1297-.7689-.4002-.1749-.7768-.26-1.1265-.2584-.4679.0016-.8098.063-1.0257.1812-.0835-.0331-.1339-.104-.1513-.2127-.0158-.1087-.0252-.1954-.0252-.2631.1166-.0504.2868-.1056.5121-.1655.2253-.0583.4285-.0882.6129-.0898.5499-.0031,1.0919.0992,1.626.3041.5357.2064,1.0162.4963,1.4432.8697.427.3734.7752.8209,1.0446,1.3455.2694.5247.4065,1.1029.4096,1.7362.0047,1.0682-.208,2.1113-.6365,3.1306"/><path class="cls-1" d="m142.2036,70.8169c-.0851-.0929-.2805-.1387-.5814-.1371-.1686,0-.375.0709-.6192.2143-.2442.1418-.5026.3309-.7736.5688-.2726.2363-.5451.5152-.8161.8366-.271.3214-.5278.6617-.772,1.0209.3577-.0772.7531-.2158,1.1848-.4159.4317-.2001.8303-.4128,1.1974-.6413.3655-.2269.6759-.4443.9296-.6539.2521-.208.3781-.3592.3781-.4538,0-.1308-.0425-.2442-.1276-.3387m3.1354,3.107c-.5058.5767-1.1801,1.2431-2.0246,2.001-.4317.3797-.8713.7484-1.3219,1.1076s-.9012.6775-1.3518.9516c-.4506.2773-.8965.4963-1.3376.657-.4412.1623-.8603.2442-1.2557.2458-.6775.0031-1.2352-.1954-1.6701-.5987-.4349-.4034-.6539-.991-.657-1.7631-.0047-.865.208-1.7331.6365-2.6012.4286-.8681.9422-1.6464,1.5425-2.3381.5987-.6901,1.2037-1.2478,1.8134-1.6733.6098-.4286,1.1029-.6428,1.4795-.6444.2647-.0016.4853.0882.6649.2663.1796.1765.3561.323.5262.4349.1686.1118.3766.2347.6224.3639.2458.1308.3687.3466.3703.6476.0016.3387-.2048.6932-.6161,1.0635-.4128.3687-.9059.7232-1.4779,1.0651-.5735.3419-1.1738.646-1.804.9123-.6302.2679-1.1612.4585-1.5929.5735-.2064.3954-.3734.7925-.5026,1.188-.1292.397-.1938.7641-.1922,1.1029.0016.3766.0914.6728.2726.8886.1796.2159.4207.3214.7216.3214.3009-.0016.635-.0693,1.002-.2032.3655-.1323.7468-.3183,1.1407-.5562.3939-.2363.7941-.5073,1.1974-.8098.4033-.3025.802-.6255,1.1959-.9658.731-.6444,1.4101-1.2967,2.0372-1.96.6287-.6618,1.1013-1.21,1.4196-1.6449.1686,0,.2773.0803.3261.2395.0473.1592.0252.3151-.0693.4663-.2237.2647-.5892.6854-1.095,1.262"/><path class="cls-1" d="m158.3681,70.0051c-.1875.0016-.4695.1339-.8445.3986-.3766.2647-.7988.6097-1.2668,1.0335-.468.4254-.9469.9107-1.4338,1.4558-.4869.5467-.9359,1.0934-1.3471,1.6386-.5436.7169-.9627,1.3565-1.262,1.9206-.2978.5641-.4475.9973-.4459,1.2967.0016.1891.0299.282.0866.282.0567-.0015.2206-.0992.4932-.2978.271-.1985.5908-.4443.9564-.7373.3655-.2915.7453-.6129,1.1391-.9627.3939-.3482.75-.6649,1.0682-.9485.3387-.3009.6649-.6034.9847-.9044.3183-.3009.6192-.5751.8996-.8209-.1323-.0362-.2442-.0819-.3403-.1386-.0945-.0552-.1402-.1024-.1418-.1403,0-.0362.0378-.0898.1119-.156.0756-.0662.1513-.1465.2253-.2394.0378-.0378.1308-.1733.282-.4097.1481-.2348.3025-.4884.4616-.7626.1575-.2726.3025-.531.4333-.7752.1308-.2457.1954-.4049.1954-.4805,0-.1686-.0851-.2521-.2552-.2521m5.5223,3.0676c-.2064.2364-.4459.5011-.7169.7941-.271.293-.5483.5861-.8287.8791-.2805.2931-.5152.5263-.7027.6964-.2064.1702-.4459.3781-.7169.6239-.2726.2458-.553.4837-.8445.7106-.2899.2269-.5861.4207-.887.5829-.3009.1623-.5625.2426-.7894.2442-.3387.0016-.5845-.167-.7358-.5057-.1528-.3387-.23-.7516-.2316-1.2415-.0016-.2442.0299-.5452.0945-.9044.063-.3577.1135-.5735.1513-.6507.0189-.0552.0142-.1024-.0142-.1403-.0284-.0378-.0614-.0567-.0993-.0567-.0189,0-.1182.0772-.2962.2284-.178.1513-.3939.3356-.646.553-.2537.2174-.5247.4553-.8161.7106-.2899.2552-.5578.4963-.802.7232-.2426.2285-.5388.4979-.8855.8098-.3466.3135-.6885.6066-1.0257.8807-.3387.2742-.6475.5121-.9296.7106-.2805.1985-.4884.2978-.6192.2994-.1891,0-.345-.1119-.4679-.3372-.1229-.2253-.1859-.4789-.1875-.761-.0016-.4695.1087-1.0178.3309-1.6401.2237-.6223.5168-1.2636.8807-1.9254.364-.6601.7846-1.3061,1.262-1.9411.4758-.6318.9737-1.199,1.4889-1.7016.5152-.501,1.0351-.9076,1.5614-1.221.5247-.3135,1.0147-.4711,1.4668-.4727.375-.0016.6917.0993.9469.3057.2552.2064.3844.5247.386.9579,0,.1134-.0315.2679-.0961.4663-.0662.1985-.1497.416-.2521.6507-.1024.2363-.219.4774-.3498.7232-.1308.2442-.2521.4616-.364.6507.1875-.0945.3293-.1434.4238-.1434.2253-.0015.4096.0536.5514.167.1418.1118.2127.3009.2143.5641,0,.1702-.0362.3718-.1103.6081-.0741.2348-.1576.4805-.2505.7342-.0929.2553-.1765.5058-.2505.75-.074.2458-.1103.4632-.1103.6507.0016.1513.0252.282.0725.3955.0473.1118.1465.1686.2978.167.2064,0,.5451-.1906,1.0131-.5688.4695-.3797.9658-.8146,1.4905-1.3077.282-.2836.5625-.5719.8445-.865.2804-.2931.542-.5625.7862-.8083.2426-.2458.4506-.4632.6176-.6539.1702-.1875.2915-.3293.3655-.4238.0567-.0015.1182.0457.1843.1403.0662.0929.0536.2442-.0394.4522-.0378.0567-.1591.2032-.3655.4396"/><path class="cls-1" d="m169.9753,75.4723c-.4128.4632-.9658.9895-1.6591,1.5756-.5246.4538-1.0793.8477-1.6606,1.1801-.5829.3324-1.1265.4994-1.6339.5026-.3135.0015-.605-.1056-.8729-.3214-.2694-.2143-.4033-.5389-.4065-.9721-.0016-.3576.1481-.7736.4506-1.2447.3025-.4726.635-.9406.9958-1.4038.3624-.4616.698-.887,1.0068-1.2746s.4632-.6759.4616-.865c-.0016-.1308-.1528-.1969-.4522-.1954-.2458.0016-.5231.0221-.8319.0614-.3088.0378-.6475.0583-1.0178.0599-.4049.0032-.7405-.0835-1.0052-.2568-.2647-.1733-.397-.4238-.3986-.7515,0-.208.115-.4963.3498-.865.2332-.3671.5152-.7263.8461-1.0761.3309-.3498.6822-.657,1.0556-.9233.3718-.2662.709-.3986,1.0099-.4002.5829-.0031.876.156.8776.4758,0,.0945-.0977.2931-.2946.594-.1954.3025-.4443.6144-.7421.9359-.2631.3025-.4979.5767-.7027.8224-.2064.2458-.3088.3876-.3088.4254,0,.0945.1087.1513.3246.1686.2174.0174.4853.0252.8067.0237.5262-.0016.969.104,1.3282.3198s.5388.5798.542,1.0903c.0016.2836-.1528.6444-.4616,1.0808s-.6444.8729-1.0099,1.3093c-.3655.438-.7011.8413-1.0115,1.2116-.3088.3702-.4616.6397-.4616.8098.0016.2647.115.397.3403.3954.2269,0,.5704-.115,1.0288-.3435.4616-.2284.9627-.5593,1.5078-.9957.2805-.2269.5656-.4774.8571-.7516.2915-.2741.5625-.5309.8161-.7673.2521-.2363.4679-.4443.646-.6255.178-.178.2946-.2962.3514-.3545.0945,0,.1371.0614.1276.1828-.0094.1229-.041.2316-.0961.3261-.0567.0945-.2915.3734-.7027.8366"/><path class="cls-1" d="m175.8409,70.656c-.0851-.0929-.2789-.1387-.5798-.1371-.1686,0-.375.0709-.6192.2143-.2442.1418-.5026.3309-.7736.5688-.2726.2363-.5451.5152-.8161.8366-.271.3214-.5294.6617-.772,1.0209.3577-.0772.7531-.2158,1.1848-.4159.4317-.2001.8303-.4128,1.1974-.6413.3655-.2269.6759-.4443.9296-.6539.2521-.208.3781-.3592.3781-.4538,0-.1308-.0425-.2442-.1292-.3387m3.137,3.107c-.5058.5767-1.1801,1.2431-2.0246,2.001-.4317.3797-.8713.7484-1.3219,1.1076s-.9012.6775-1.3518.9516c-.4506.2773-.8965.4963-1.3376.657-.4427.1623-.8603.2442-1.2557.2458-.6775.0031-1.2352-.1954-1.6701-.5987-.4349-.4034-.6539-.9894-.657-1.7615-.0047-.8665.208-1.7347.6365-2.6028.4286-.8681.9422-1.6464,1.5425-2.3381.5987-.6885,1.2037-1.2478,1.8134-1.6733.6098-.4286,1.1029-.6428,1.4795-.6444.2647,0,.4853.0882.6649.2663s.3561.323.5262.4349c.1686.1118.3766.2347.6224.3639.2458.1308.3687.3466.3703.6476.0016.3387-.2048.6932-.6161,1.0635-.4128.3687-.9059.7232-1.4779,1.0651-.5735.3419-1.1738.646-1.804.9123-.6302.2679-1.1612.4585-1.5929.5735-.2064.3954-.3734.7925-.5026,1.188-.1292.397-.1938.7641-.1922,1.1029.0016.3766.0914.6728.2726.8886.1796.2159.4207.3214.7216.3214.3009-.0016.635-.0693,1.002-.2032.3655-.1323.7468-.3183,1.1407-.5562.3939-.2363.7925-.5073,1.1974-.8098.4033-.3025.802-.6255,1.1959-.9658.731-.6444,1.4101-1.2967,2.0372-1.96.6287-.6618,1.1013-1.21,1.4196-1.6433.1686-.0016.2773.0788.3261.2379.0473.1592.0252.3151-.0693.4663-.2237.2647-.5892.6854-1.095,1.262"/><path class="cls-1" d="m192.9045,71.4369c-.2741-.2347-.6176-.3513-1.032-.3482-.1512,0-.2647.0111-.3387.03-.5971,1.002-1.2605,2.0955-1.9899,3.2866-.7279,1.1896-1.4668,2.3696-2.2152,3.5403-.0552.0945-.1072.1749-.1528.241-.0473.0662-.0993.1466-.1544.2411.2253-.0378.4932-.0882.8035-.145.3104-.0583.6161-.126.917-.2032.3009-.0756.583-.1576.8461-.2442.2647-.0851.4616-.1655.5924-.2426.1875-.1135.4553-.3214.802-.6255.3466-.3025.6932-.6807,1.0399-1.1344s.6491-.9627.9107-1.5283c.2615-.5672.3907-1.1612.3876-1.782-.0031-.49-.1418-.8508-.416-1.0856m-5.7791,2.4138c-.8713.8713-1.7174,1.8355-2.5414,2.8943-.824,1.0572-1.6008,2.168-2.3287,3.3292-.7279,1.1612-1.3739,2.2751-1.9332,3.3418s-.9973,2.0341-1.314,2.9006c-.3151.8681-.4727,1.5472-.4695,2.0372,0,.1686.0063.3198.0158.4506.011.1323.063.1985.156.1969.0189,0,.1371-.1607.3513-.4805.2159-.3214.4963-.7516.8413-1.2888.3466-.5388.7421-1.1627,1.1911-1.8702.449-.709.9154-1.459,1.4022-2.2531.4853-.7925.9847-1.6008,1.4983-2.4216.5152-.8224,1.0052-1.6102,1.4716-2.3665.6917-1.1123,1.4022-2.2326,2.1317-3.3559.7279-1.1234,1.4117-2.168,2.0466-3.1306-.8067.4742-1.6465,1.147-2.5193,2.0167m6.964.137c-.2048.4711-.4427.9249-.7137,1.3582-.271.4348-.5373.8082-.8004,1.1202-.2615.312-.4396.4963-.5325.553l.0567.1702c.0756-.0394.1969-.0961.3655-.1717.1702-.0756.3482-.1528.5357-.2284s.3671-.1481.5357-.2143c.1702-.0662.3009-.1292.3955-.1859.074-.0567.1402-.0851.1969-.0851.0945-.0015.1418.0552.1418.1686.0016.1134-.074.2269-.2237.3403-.0756.0756-.3246.2505-.7468.5246-.4223.2758-.9249.5609-1.5062.8555-.583.2946-1.2085.5609-1.8749.8004-.6681.2379-1.2841.3577-1.8481.3608-.2253.0016-.49.0016-.7909.0032s-.5751-.0158-.8193-.052c-.7484,1.1518-1.5472,2.3744-2.398,3.6695-.8508,1.2936-1.6543,2.4878-2.4122,3.5844-.7563,1.095-1.4117,2.0025-1.9632,2.721-.5515.7184-.9044,1.0777-1.0541,1.0777-.1891.0016-.3687-.1481-.5388-.449-.1717-.2994-.2584-.657-.26-1.0714-.0031-.7169.1765-1.6023.5388-2.658.3624-1.0572.8555-2.1837,1.4794-3.3827.6271-1.199,1.3503-2.4216,2.1727-3.6679.8224-1.2462,1.6922-2.4121,2.6107-3.5009.917-1.0871,1.8576-2.0467,2.8234-2.8801.9658-.8319,1.9001-1.4401,2.8029-1.8214.5042-.7547.9343-1.3833,1.2888-1.8843.3561-.4995.5798-.8161.6743-.9485.1497-.1891.3088-.3639.4774-.5262.1686-.1607.3482-.2411.5357-.2426.1323,0,.1985.0552.1985.1686s-.1387.4396-.4191.9768c-.2804.5389-.6633,1.2226-1.1486,2.053.0378,0,.0662-.0032.0851-.0142.0189-.0095.0473-.0142.0851-.0142,1.563-.0079,2.3476.7326,2.3539,2.22.0031.3766-.0993.8004-.3041,1.273"/><path class="cls-1" d="m202.0894,69.7963c-.1875.0016-.4695.1339-.8445.3986-.3766.2647-.7973.6097-1.2668,1.0335-.468.4254-.9469.9107-1.4322,1.4558-.4884.5467-.9375,1.0934-1.3487,1.6386-.542.7169-.9627,1.3565-1.262,1.9206-.2978.5641-.4459.9973-.4443,1.2967,0,.1891.0284.282.0851.282.0567-.0015.2206-.0992.4932-.2978s.5908-.4443.9564-.7373c.3655-.2915.7453-.6129,1.1391-.9627.3939-.3482.75-.6649,1.0682-.9485.3387-.3009.6665-.6034.9847-.9044.3183-.3009.6192-.5751.8996-.8209-.1323-.0362-.2458-.0819-.3387-.1386-.0961-.0552-.1418-.1024-.1418-.1403,0-.0362.0362-.0898.1119-.156.074-.0662.1497-.1465.2237-.2394.0378-.0378.1308-.1749.282-.4097.1481-.2348.3025-.4884.4616-.7626.1575-.2726.3025-.531.4333-.7767.1308-.2442.1954-.4034.1954-.479,0-.1686-.0851-.2521-.2552-.2521m5.5223,3.0676c-.2064.2364-.4459.5011-.7169.7941-.271.293-.5483.5861-.8287.8791-.2805.2931-.5152.5263-.7027.6948-.2064.1717-.4459.3797-.7169.6255-.2726.2458-.553.4821-.8445.7106-.2899.2269-.5861.4207-.887.5829-.2994.1623-.5625.2426-.7894.2442-.3387.0016-.5845-.167-.7358-.5057-.1528-.3387-.23-.7516-.2316-1.2415-.0016-.2442.0299-.5467.0945-.9044.063-.3577.1135-.5751.1513-.6507.0189-.0552.0142-.1024-.0142-.1403-.0284-.0378-.0614-.0567-.0993-.0567-.0189,0-.1182.0772-.2962.2284-.178.1513-.3923.3356-.646.553-.2537.2174-.5247.4538-.8161.7106-.2899.2552-.5578.4963-.802.7232-.2426.2269-.5388.4979-.8855.8098s-.6885.6066-1.0257.8807c-.3372.2742-.6475.5121-.9296.7106-.2805.1985-.4884.2978-.6192.2994-.1891,0-.3435-.1119-.4679-.3372-.1229-.2253-.1859-.4789-.1859-.761-.0031-.4711.1071-1.0178.3309-1.6401.2222-.6223.5152-1.2636.8792-1.9254.364-.6601.7846-1.3077,1.262-1.9411.4774-.6318.9737-1.199,1.4889-1.7016.5152-.501,1.0367-.9091,1.5614-1.221.5247-.3135,1.0147-.4711,1.4668-.4727.375-.0016.6917.0993.9469.3057.2552.2064.3844.5247.386.9579,0,.1134-.0315.2679-.0961.4663-.0662.1985-.1497.416-.2521.6507-.1024.2363-.219.4774-.3498.7232-.1308.2442-.2521.4616-.364.6507.1875-.0945.3293-.1434.4238-.1434.2253-.0015.4096.0536.5514.167.1418.1118.2127.2994.2143.5641,0,.1702-.0362.3718-.1103.6081-.0741.2348-.1576.4805-.2505.7342-.0929.2553-.1765.5042-.2505.75s-.1103.4632-.1103.6507c.0016.1513.0252.282.0725.3955.0473.1118.1465.1686.2978.167.2064,0,.5451-.1906,1.0131-.5688.4695-.3797.9658-.8146,1.4905-1.3077.282-.2836.5625-.5719.8445-.865.2804-.2931.542-.5625.7862-.8083.2426-.2458.4506-.4632.6176-.6539.1702-.1875.2915-.3293.3655-.4238.0567-.0015.1182.0457.1843.1403.0662.0929.0536.2442-.0394.4522-.0378.0567-.1591.2032-.3655.4396"/><path class="cls-1" d="m212.6449,70.8481c-.0473.0756-.1166.1135-.2111.1151-.1135,0-.1891-.0473-.2269-.1418-.0378-.0929-.0945-.1969-.1701-.3088-.0756-.1134-.1938-.2158-.3545-.3104-.1607-.093-.4112-.1387-.75-.1371-.3577.0016-.6964.0788-1.0147.2316-.3198.1512-.6019.3466-.8445.5829-.2442.2363-.4364.5105-.5751.8224-.1402.3104-.2096.6349-.208.9737.0016.3214.0693.6224.2017.9044.1339.2805.2804.5625.4427.8445.1607.282.3072.5641.4412.8445.1323.2836.2001.5845.2017.9043.0031.3955-.0945.7579-.2915,1.0887-.1954.3309-.4475.6239-.7578.8792-.3088.2552-.6523.4553-1.0273.5971-.3766.1434-.7437.2158-1.1013.2174-.2647.0015-.5515-.0677-.8618-.208-.312-.1386-.5073-.3592-.583-.6602.0756-.0756.1686-.1134.282-.115.0945,0,.23.0552.4097.1686.1796.1118.4112.167.6932.1654.4711-.0016.8981-.1922,1.2825-.5704.3844-.3781.5751-.8035.5735-1.2746-.0016-.3009-.0835-.5782-.2442-.8319-.1623-.2536-.3419-.5168-.5404-.7893-.2001-.271-.3797-.5672-.5404-.8855-.1623-.3198-.2442-.7058-.2458-1.158-.0031-.5452.1024-1.0588.3167-1.5394.2143-.4821.5042-.8981.8697-1.2478.3655-.3498.7925-.6255,1.2809-.8256.4884-.2001,1.0052-.3009,1.5519-.3041.1323,0,.3151.0646.5514.1954.2363.1308.468.2899.6948.4774.2269.1875.4207.3782.5814.5751.1607.1969.2426.3623.2426.4931.0016.0756-.022.1513-.0693.2269"/><path class="cls-1" d="m218.9435,70.818c-.0473.0756-.1166.1135-.2111.1151-.1135,0-.1891-.0473-.2269-.1418-.0378-.0929-.0945-.1969-.1701-.3104-.0756-.1118-.1938-.2143-.3545-.3088-.1607-.093-.4112-.1387-.75-.1371-.3577.0016-.6964.0788-1.0147.23-.3198.1528-.6019.3482-.8445.5845-.2442.2363-.4364.5105-.5751.8209-.1402.312-.2096.6365-.208.9753.0016.3214.0677.6224.2017.9044.1339.2805.2804.5625.4427.8445.1607.282.3072.5641.4412.8461.1323.2805.2001.5829.2017.9028.0031.3955-.0945.7579-.2915,1.0887-.1954.3309-.4475.6239-.7578.8792-.3088.2552-.6523.4538-1.0273.5971-.3766.1434-.7437.2158-1.1013.2174-.2647.0015-.5515-.0677-.8618-.208-.312-.1386-.5073-.3592-.583-.6602.074-.0756.1686-.1134.282-.115.0945,0,.23.0552.4097.167.1796.1134.4112.1686.6932.167.4711-.0031.8981-.1922,1.2825-.5704.3844-.3781.5751-.8035.5735-1.2746-.0016-.3009-.0835-.5782-.2442-.8319-.1623-.2536-.3419-.5152-.5404-.7893-.2001-.271-.3797-.5672-.5404-.8871-.1623-.3183-.2442-.7043-.2458-1.1564-.0031-.5452.1024-1.0588.3167-1.5409.2143-.4805.5042-.8965.8697-1.2462.3655-.3498.7925-.6255,1.2809-.8256.4884-.2001,1.0052-.3009,1.5519-.3041.1323,0,.3151.0646.5514.1954.2363.1308.468.2899.6948.4774.2269.1859.4207.3782.5814.5751.1607.1969.2426.3623.2426.4947.0016.074-.022.1512-.0693.2253"/><path class="cls-1" d="m224.2124,68.2933c-.0457.0851-.1071.1686-.1812.2537-.0756.0851-.1512.1623-.2253.2284-.0756.0662-.1402.0993-.1969.0993s-.1371-.0315-.2411-.0977c-.104-.0646-.208-.1449-.312-.2379-.104-.0945-.1938-.1922-.2694-.2962-.0756-.1024-.1135-.2017-.115-.2962,0-.1875.0882-.4002.2663-.6365.178-.2363.3703-.3545.5767-.356.3576-.0016.5562.0929.594.2804.0394.0945.0772.2395.1166.4364.0378.1985.0583.3435.0583.438,0,.0378-.0236.0992-.0709.1843m-1.095,7.1373c-.178.1513-.375.312-.5908.4822-.2159.1717-.4364.3419-.6618.512-.2253.1702-.4128.3041-.5625.3986-.3198.1891-.709.4034-1.1691.6397-.4601.2379-.9075.3592-1.3408.3608-.282.0016-.5278-.0725-.7342-.2237-.208-.1481-.3135-.4301-.3151-.8445-.0016-.3576.0898-.7625.2773-1.2163.1843-.4538.4002-.8823.6428-1.2888.2426-.4049.4711-.7547.687-1.0477.2143-.2931.3403-.468.3781-.5247.1875-.2269.2804-.4349.2804-.6224-.0016-.0945.041-.2158.1245-.3671.0851-.1512.1922-.2978.323-.4412.1308-.1418.2773-.2599.4364-.3545s.3246-.1418.4931-.1434c.2269-.0016.4144.0583.5656.1812.1512.1213.2285.2489.2285.3797,0,.1513-.0268.3781-.0819.6791-.0552.3009-.1292.5184-.2222.6507-.0567.0567-.1512.1607-.282.312-.1308.1513-.2804.3167-.449.4963-.1686.1796-.3466.3687-.5341.5672s-.3466.3828-.4774.553c-.2804.3593-.5562.7374-.8272,1.1344-.2726.3955-.4065.7074-.4049.9327,0,.0756.0284.156.0851.2411.0567.0835.1418.126.2552.1244.2442,0,.5593-.0914.9453-.2726.3844-.1796.783-.3939,1.1958-.6412.3766-.2458.7374-.4869,1.0856-.7248.3466-.2379.605-.4317.7736-.5829.0567,0,.1134.0284.1702.0835.0551.0567.0756.1418.0567.2537-.0552.0567-.1733.1623-.3513.3135"/><path class="cls-1" d="m230.056,70.6518c-.3955.0016-.8287.1087-1.2967.3167-.4711.2095-.9343.4805-1.3944.8114-.4601.3324-.9059.7106-1.3361,1.1376-.4317.4254-.8161.8555-1.1533,1.2888-.3356.4364-.6018.8618-.7988,1.2762-.1954.416-.2915.7736-.2915,1.0745.0031.5262.2678.7894.7956.7878.2631-.0016.5782-.1024.9438-.3025.3671-.1985.7515-.4506,1.1549-.7531.4033-.3025.8067-.6444,1.21-1.0225.4033-.3797.7689-.7484,1.0966-1.1076.3277-.3576.5892-.6854.7862-.9768.1954-.2931.2931-.5152.2931-.6665-.0378-.0378-.0898-.0929-.156-.1686-.0662-.074-.0993-.2348-.1008-.479-.0016-.3198.0866-.5751.2647-.7641.1765-.1891.2663-.3025.2663-.3403,0-.074-.0945-.1134-.2836-.1119m1.4511,2.1112c-.0567,0-.1418.0158-.2552.0441-.1119.0284-.2348.052-.3655.0725-.2804.4916-.6538,1.0336-1.1218,1.6291-.468.5956-.9879,1.1486-1.5598,1.6591-.5719.5121-1.1675.9422-1.7883,1.2951-.6192.3514-1.2211.5278-1.804.531-.6034.0032-1.1076-.1497-1.5141-.4585-.4065-.3088-.6113-.7752-.6145-1.396-.0016-.3576.0914-.772.2773-1.2431.1859-.4726.438-.9532.7563-1.4448.3167-.4916.6681-.9737,1.0525-1.4464.3829-.4726.772-.8965,1.1659-1.2762.3939-.3781.7689-.6822,1.125-.9091.3561-.2284.6665-.3419.9312-.3435.0929,0,.1686.0331.2253.0977.0567.0662.1135.1402.1717.2253.0567.0835.1087.1591.156.2253.0473.0662.0993.0977.156.0977.1308,0,.3482-.0394.6475-.1166.3025-.0756.5751-.115.8193-.1166.3577-.0016.6791.1339.9627.4049.2836.2726.427.7184.4301,1.3408l.0016.1686c.0567.1513.1087.2962.156.4364.0489.1418.0914.2316.1292.2678.1323.1686.0867.2537-.1402.2552"/><path class="cls-1" d="m242.5055,72.2028c-.1213.3955-.2789.8256-.4743,1.2873-.1954.4616-.4002.939-.6145,1.4291-.2143.4915-.4191.9343-.6145,1.3298-.1969.397-.3545.7232-.4758.9784-.1213.2536-.1828.3907-.1828.4096.0016.1135.0473.1686.1418.1686s.2269-.052.3955-.1576c.1702-.104.3104-.156.4238-.156.074-.0016.1213.0315.1418.0977.0189.0662.0284.1261.0284.1828,0,.0567-.0835.1607-.2521.312-.1686.1513-.3703.312-.605.4821-.2363.1717-.4648.323-.6901.4569-.2253.1324-.3939.1985-.5073.2001-.1135,0-.2741-.1213-.4821-.3655-.208-.2427-.3135-.5168-.3151-.8177,0-.2253.0725-.542.2221-.9469.1481-.4049.3293-.8445.5436-1.3156.2143-.4726.4475-.9579.6995-1.459.2521-.4995.4853-.9674.6995-1.4007.2143-.4349.3955-.8114.5452-1.1328s.2237-.5373.2237-.6507c-.0016-.2631-.1339-.3939-.397-.3939-.3214.0016-.7011.0929-1.1439.2741-.4412.1812-.9154.4191-1.4227.7122-.5073.2946-1.0336.6318-1.5771,1.0115s-1.0793.7673-1.6039,1.1643c-.5625.4191-1.0919.8303-1.5897,1.2368-.4979.4081-.9422.7673-1.3361,1.0793-.3939.3135-.709.5688-.9438.7689-.2348.1985-.3608.2978-.3797.2978-.0378,0-.1072-.0284-.2111-.0835-.104-.0567-.2174-.126-.3403-.2111-.1229-.0835-.2316-.1717-.3261-.2662-.0945-.093-.1418-.178-.1418-.2537s.0882-.2458.2647-.5105c.178-.2631.4065-.5798.6885-.9485.2805-.3687.5893-.761.9264-1.177.3372-.416.6539-.7988.9548-1.1486.2994-.3482.5656-.6381.8004-.865.2347-.2269.3986-.3403.4931-.3419.1497,0,.282.0693.3955.2095.115.1418.1717.2679.1717.3813,0,.0378-.0473.1323-.1402.2836-.093.1513-.219.3498-.3781.594-.1591.2458-.3372.5199-.5325.8224-.1969.3025-.3986.605-.6035.9075.5058-.4175,1.1124-.8918,1.8151-1.4212.7043-.531,1.4353-1.0336,2.1963-1.5078.7594-.4742,1.511-.8775,2.2531-1.2116.7421-.3324,1.4148-.5011,2.0167-.5042.3198-.0016.6365.1055.9485.3198.312.2143.468.5199.4711.917,0,.2253-.0583.5357-.1796.9327"/><path class="cls-1" d="m249.7924,69.5694c-.1875,0-.4695.1339-.8445.3971-.3766.2647-.7988.6097-1.2668,1.0351-.468.4238-.9469.9091-1.4322,1.4542-.4884.5483-.9375,1.0934-1.3487,1.6401-.5436.7153-.9627,1.355-1.262,1.9206-.2978.5641-.4459.9957-.4443,1.2967,0,.1875.0284.2804.0851.2804s.2206-.0992.4932-.2978c.271-.1985.5908-.4427.9564-.7358.3655-.2931.7453-.6145,1.1391-.9627.3939-.3498.75-.6649,1.0698-.9485.3372-.3025.6633-.6034.9831-.906.3183-.3009.6192-.5751.8996-.8193-.1323-.0363-.2458-.0835-.3403-.1387-.0945-.0567-.1402-.1024-.1418-.1418,0-.0362.0378-.0882.1119-.1544.0756-.0662.1513-.1465.2269-.241.0363-.0378.1308-.1733.2805-.4097.1497-.2348.3025-.4884.4616-.761s.3041-.531.4349-.7768c.1292-.2442.1954-.4049.1938-.4789,0-.1686-.0851-.2537-.2552-.2521m5.5223,3.066c-.2064.2379-.4459.5011-.7169.7941-.271.293-.5483.5861-.8287.8791-.2805.2946-.5152.5263-.7027.6964-.2064.1702-.4443.3781-.7169.6239-.271.2473-.553.4837-.8445.7106-.2899.2269-.5861.4223-.887.5829-.2994.1623-.5625.2442-.7894.2442-.3387.0016-.5845-.1654-.7358-.5057-.1528-.3372-.23-.75-.2316-1.24-.0016-.2442.0299-.5467.0945-.9059.0646-.3577.115-.5735.1513-.6492.0189-.0567.0142-.104-.0142-.1418-.0284-.0378-.0614-.0552-.0993-.0552-.0189,0-.1166.0756-.2962.2269-.178.1513-.3939.3356-.646.553-.2537.219-.5247.4553-.8161.7106-.2899.2568-.5578.4979-.802.7247-.2426.2269-.5388.4963-.8855.8083s-.6885.6066-1.0257.8807c-.3387.2758-.6475.5121-.9296.7106-.2805.1985-.4884.2994-.6192.2994-.1891.0015-.3435-.1119-.4679-.3356-.1229-.2253-.1859-.4805-.1859-.7626-.0031-.4695.1071-1.0178.3309-1.6401.2222-.6223.5152-1.2636.8792-1.9238s.7846-1.3077,1.262-1.9411c.4774-.6334.9737-1.2006,1.4889-1.7016.5152-.5026,1.0351-.9091,1.5614-1.2226.5247-.3135,1.0147-.4711,1.4668-.4727.3766-.0016.6917.1008.9469.3057.2552.2064.3844.5263.386.9579,0,.1134-.0315.2694-.0961.4663-.0662.1985-.1497.416-.2521.6523-.1024.2364-.219.4758-.3482.7216-.1308.2458-.2537.4616-.364.6507.1875-.0945.3277-.1418.4223-.1434.2253,0,.4096.0552.5514.167.1418.1118.2127.3009.2143.5641,0,.1702-.0362.3734-.1103.6081-.0741.2363-.1576.4805-.2505.7358-.0929.2537-.1765.5042-.2505.7499-.074.2458-.1103.4617-.1103.6492.0016.1513.0252.282.0725.3955.0473.1134.1465.1686.2978.1686.2064-.0016.5451-.1906,1.0131-.5704.4695-.3781.9674-.813,1.4921-1.3062.2804-.2836.5609-.5719.8429-.865.2804-.2931.542-.5625.7862-.8098.2426-.2458.4506-.4632.6176-.6523.1702-.1891.2915-.3309.3655-.4254.0567,0,.1182.0473.1843.1403.0662.0945.0536.2442-.0394.4522-.0378.0567-.1591.2032-.3655.4396"/><path class="cls-1" d="m264.569,61.3919c-.1402.1513-.2868.3025-.4364.4538-.074.0961-.2852.345-.6318.7515s-.7752.9327-1.2919,1.574c-.5136.6429-1.084,1.3739-1.7111,2.1979-.6271.8209-1.2589,1.6764-1.8938,2.565.6019-.0221,1.1092-.0347,1.5236-.0363.4333-.0016.6885-.0031.7641-.0031.1497-.0016.282.0315.3955.0961.1135.0662.1702.137.1702.2111,0,.1135-.093.2127-.2805.2978-.1891.0866-.4002.1575-.635.2158-.2347.0567-.4711.1008-.7058.1292-.2363.0299-.3907.0441-.4663.0457-.1308,0-.2111-.0079-.2395-.0268-.0283-.0189-.0425-.0662-.0441-.1418,0-.0378.0047-.0756.0142-.1134.0094-.0378.0142-.074.0142-.1119,0-.0378-.0189-.0567-.0567-.0567l-.7909.0032c-.4869.6444-1.0147,1.366-1.585,2.1696-.5719.8035-1.0997,1.6149-1.585,2.4358-.4853.8224-.8965,1.6197-1.2305,2.3932-.3356.7736-.5026,1.4527-.4994,2.0357.0016.3954.0977.7058.2867.9312.1891.2253.416.3356.6807.3356.2631-.0016.5262-.0504.7893-.145.2631-.0961.5121-.2048.7468-.3293.2348-.1229.4412-.2505.6192-.3829.178-.1339.3151-.2379.4081-.3135.0756.0378.1323.0945.1702.1686.0378.0756.0394.1512.0016.2253-.0945.0756-.2348.1859-.4222.3277-.1875.1418-.4034.2836-.6476.427-.2442.1418-.5168.2647-.8177.3703-.3009.1055-.6019.1591-.9028.1591-.4711.0032-.8587-.1638-1.1612-.5026-.3025-.3372-.4553-.8067-.4585-1.4101-.0031-.6948.1166-1.4354.3577-2.2184.2395-.7815.542-1.5645.9059-2.3492.364-.7815.7657-1.5425,1.2037-2.2799.438-.7358.865-1.4148,1.2762-2.0387-.3766.0015-.6649-.0016-.8618-.0095-.1985-.0095-.3435-.0126-.438-.0126s-.1607.0016-.1969.0016h-.0851c-.1323,0-.2647.011-.3955.0299-.1323.0189-.1985-.0173-.1985-.1118s.0457-.1702.1402-.2269c.093-.0567.1969-.0851.3104-.0866h.1134c.0552,0,.1449-.0047.2678-.0158.1213-.0094.3151-.0205.5782-.0299.2631-.0111.6224-.0174,1.073-.0205.0945-.1135.1733-.2206.2395-.3246.0646-.104.1355-.2032.2096-.2978.2615-.397.594-.8744.9973-1.4322.4018-.5562.8319-1.1375,1.2904-1.7425s.917-1.2053,1.3755-1.8009.8792-1.1234,1.262-1.5866c.3844-.4632.7074-.8413.9705-1.1359.2615-.2915.4301-.4396.5058-.4396.0946,0,.2127.0174.3529.0552.1418.0378.2741.0835.397.1387.1213.0567.2316.126.3261.2111.0945.0835.1418.1733.1418.2678.0016.1875-.0677.3577-.2095.5089"/><path class="cls-1" d="m265.1203,70.2307c-.0851-.0945-.2789-.1403-.5798-.1387-.1702,0-.3766.0725-.6208.2143-.2442.1434-.5026.3324-.7736.5688-.2726.2363-.5451.5168-.8161.8382-.271.3214-.5278.6618-.772,1.0194.3577-.0772.7531-.2158,1.1848-.4144.4317-.2001.8303-.4144,1.1974-.6412.3671-.2285.6759-.4459.9296-.6555.2521-.208.3781-.3592.3781-.4538,0-.1308-.0425-.2442-.1276-.3372m3.1354,3.1054c-.5058.5782-1.1801,1.2447-2.0246,2.001-.4317.3797-.8713.7484-1.3219,1.1076-.449.3608-.8996.6775-1.3518.9532-.4506.2758-.8965.4948-1.3376.657s-.8603.2426-1.2557.2457c-.6775.0032-1.2337-.1969-1.6701-.6003-.4349-.4018-.6539-.9894-.657-1.7615-.0047-.8665.208-1.7331.6365-2.6028.4301-.8665.9422-1.6464,1.5425-2.3365.5987-.6901,1.2037-1.2479,1.8134-1.6748.6098-.427,1.1029-.6412,1.481-.6428.2631-.0016.4837.0866.6649.2647.1796.178.3545.323.5247.4364.1686.1118.3766.2332.6224.3639.2458.1308.3687.3466.3703.6476.0016.3387-.2032.6917-.6161,1.0619-.4128.3687-.9059.7248-1.4779,1.0667-.5735.3419-1.1738.646-1.8024.9107-.6318.2679-1.1627.4585-1.5945.5735-.2048.397-.3734.7925-.5026,1.188-.1292.397-.1938.7641-.1922,1.1029.0016.3766.093.6728.2726.8886.1796.2159.4207.323.7216.3214.3009-.0016.635-.0693,1.002-.2017.3671-.1339.7468-.3198,1.1407-.5562.3939-.2379.7941-.5074,1.1974-.8114.4033-.3025.802-.6255,1.1959-.9658.731-.6428,1.4101-1.2967,2.0372-1.9584.6287-.6618,1.1013-1.21,1.4196-1.6449.1686-.0016.2773.0788.3261.2379.0473.1607.0252.3151-.0693.4663-.2237.2647-.5892.6854-1.095,1.262"/><path class="cls-1" d="m282.1828,71.0098c-.2741-.2332-.6176-.3498-1.032-.3482-.1512.0016-.2647.0111-.3387.03-.5987,1.002-1.2605,2.0971-1.9899,3.2866-.7279,1.1896-1.4668,2.3696-2.2152,3.5403-.0552.0945-.1072.1765-.1544.241-.0457.0677-.0977.1466-.1528.2411.2253-.0378.4932-.0867.8035-.145.3104-.0567.6161-.126.917-.2017.3009-.0772.583-.1592.8461-.2442.2647-.0867.4616-.167.5924-.2427.1875-.115.4553-.323.802-.6255.3466-.3025.6932-.6807,1.0399-1.136.3466-.4522.6491-.9627.9107-1.5283.26-.5672.3892-1.1612.3876-1.782-.0031-.4884-.1418-.8508-.416-1.0856m-5.7791,2.4153c-.8713.8697-1.7189,1.834-2.5414,2.8927-.824,1.0588-1.6008,2.168-2.3287,3.3292-.7279,1.1628-1.3739,2.2751-1.9332,3.3434-.5593,1.0651-.9958,2.0325-1.314,2.9006-.3151.8681-.4727,1.5456-.4695,2.0356,0,.1702.0063.3198.0158.4522.011.1307.063.1985.156.1969.0189,0,.1371-.1607.3513-.4821.2159-.3214.4963-.75.8413-1.2888.3466-.5388.7421-1.1612,1.1911-1.8702.449-.7074.9154-1.459,1.4007-2.2515.4869-.7941.9863-1.6008,1.4999-2.4216.5152-.8224,1.0052-1.6102,1.4716-2.3665.6917-1.1139,1.4022-2.2326,2.1302-3.3575.7295-1.1234,1.4117-2.1664,2.0482-3.1306-.8083.4758-1.6465,1.147-2.5193,2.0183m6.964.1355c-.2048.4727-.4427.9249-.7137,1.3597-.271.4333-.5373.8067-.8004,1.1202-.2615.3104-.4396.4947-.5325.553l.0567.1686c.0756-.0378.1969-.0945.3655-.1717.1702-.0756.3482-.1512.5357-.2284.1875-.0756.3671-.1465.5357-.2143.1686-.0662.3009-.1277.3955-.1843.074-.0583.1402-.0867.1969-.0867.0945,0,.1418.0567.1418.1686.0016.1134-.074.2269-.2237.3403-.0756.0756-.3246.252-.7468.5262s-.9249.5593-1.5078.8539c-.5814.2962-1.2069.5609-1.8733.8004-.6681.2379-1.2841.3593-1.8481.3608-.2253.0016-.49.0032-.7909.0048-.3025.0015-.5751-.0174-.8193-.0536-.7484,1.1533-1.5472,2.376-2.398,3.6695-.8508,1.2936-1.6543,2.4894-2.4122,3.5844-.7578,1.0966-1.4117,2.0025-1.9632,2.7226-.553.7169-.9044,1.0761-1.0541,1.0777-.1891,0-.3687-.1497-.5388-.449-.1717-.3009-.2568-.6586-.26-1.073-.0031-.7153.1765-1.6008.5388-2.658.3624-1.0556.8555-2.1837,1.481-3.3811.6255-1.199,1.3471-2.4216,2.1711-3.6679.8224-1.2478,1.6922-2.4137,2.6091-3.5009.9185-1.0871,1.8591-2.0483,2.825-2.8801.9658-.8335,1.9001-1.4416,2.8029-1.8229.5042-.7547.9343-1.3833,1.2888-1.8828.3545-.5011.5798-.8177.6743-.9501.1497-.1891.3088-.3639.4774-.5246.1686-.1607.3466-.2427.5357-.2427.1308-.0015.1969.0552.1985.1686,0,.1134-.1387.438-.4191.9768-.2804.5373-.6633,1.2226-1.1486,2.0529.0378,0,.0662-.0047.0851-.0141.0173-.0095.0473-.0158.0851-.0158,1.5614-.0063,2.3476.7326,2.3539,2.22.0031.3766-.0993.802-.3041,1.273"/><path class="cls-1" d="m291.3694,69.3707c-.1891,0-.4695.1339-.8461.3971-.375.2647-.7972.6097-1.2652,1.0351-.4695.4238-.9485.9091-1.4338,1.4542-.4884.5483-.9375,1.0934-1.3471,1.6401-.5452.7153-.9642,1.355-1.2636,1.9206-.2978.5641-.4459.9957-.4443,1.2967,0,.1875.0283.2804.0851.2804s.2206-.0992.4932-.2978c.271-.1985.5908-.4443.9579-.7358.3655-.2931.7437-.6145,1.1376-.9627.3939-.3498.75-.6649,1.0698-.9485.3372-.3025.6649-.6034.9847-.906.3183-.3009.6176-.5751.8981-.8193-.1323-.0363-.2442-.0835-.3388-.1387-.0945-.0567-.1418-.104-.1418-.1418,0-.0362.0362-.0882.1119-.1544s.1497-.1465.2253-.241c.0362-.0378.1308-.1733.2804-.4097.1497-.2348.3041-.4884.4616-.761.1591-.2726.3041-.531.4349-.7768.1308-.2442.1954-.4049.1954-.4789-.0016-.1686-.0867-.2537-.2552-.2521m5.5223,3.066c-.2064.2379-.4459.5011-.7169.7941-.271.293-.5467.5861-.8287.8791-.2805.2931-.5152.5263-.7027.6964-.2064.1702-.4459.3781-.7169.6239-.2726.2473-.553.4837-.8445.7106-.2899.2269-.5861.4223-.887.5829-.3009.1623-.5641.2442-.7894.2442-.3387.0016-.5845-.1654-.7374-.5057-.1512-.3372-.23-.75-.2316-1.24-.0016-.2442.0299-.5467.0945-.9059.0646-.3577.115-.5735.1528-.6492.0173-.0567.0142-.104-.0158-.1418-.0268-.0378-.0599-.0567-.0977-.0552-.0205,0-.1182.0756-.2962.2269-.1796.1513-.3939.3356-.6475.553-.2521.2174-.5246.4553-.8146.7106-.2915.2568-.5578.4979-.8035.7247-.2426.2269-.5389.4963-.8855.8083s-.6885.6066-1.0257.8807c-.3387.2758-.6475.5121-.9296.7106-.2804.1985-.4884.2994-.6192.2994-.1891.0015-.3435-.1119-.4679-.3356-.1229-.2253-.1859-.4805-.1875-.7626-.0016-.4695.1087-1.0178.3324-1.6401.2221-.6223.5152-1.2636.8792-1.9238s.7846-1.3077,1.262-1.9411.9737-1.2006,1.4889-1.7016c.5152-.5026,1.0367-.9091,1.5614-1.2226.5262-.3135,1.0147-.4711,1.4668-.4727.3766-.0016.6932.1008.9485.3057.2552.2064.3829.5263.386.9579,0,.1134-.0331.2694-.0977.4663-.0646.1985-.1481.416-.2505.6523-.1024.2364-.219.4758-.3498.7216-.1308.2458-.2521.4616-.364.6507.1875-.0945.3277-.1418.4223-.1434.2269,0,.4096.0552.5515.167.1418.1118.2143.3009.2143.5641.0016.1702-.0347.3734-.1087.6081-.0741.2363-.1576.4805-.2505.7358-.0945.2537-.178.5042-.2521.7499-.0741.2458-.1103.4617-.1087.6492,0,.1513.0236.282.0725.3955.0473.1134.1465.1686.2962.1686.208-.0016.5452-.1906,1.0162-.5704.4679-.3781.9642-.813,1.4889-1.3062.282-.2836.5641-.5719.8445-.865.2804-.2931.5436-.5625.7862-.8098.2442-.2458.4506-.4632.6192-.6523.167-.1891.2899-.3309.3655-.4254.0567,0,.1166.0473.1828.1403.0662.0945.0536.2442-.0394.4522-.0378.0567-.1591.2032-.3655.4396"/><path class="cls-1" d="m306.1444,61.1934c-.1402.1513-.2868.3025-.4364.4538-.074.0961-.2852.345-.6318.7515s-.7752.9312-1.2904,1.574c-.5152.6429-1.0856,1.3739-1.7126,2.1979-.6271.8209-1.2589,1.6764-1.8938,2.565.6019-.0221,1.1092-.0347,1.5236-.0363.4333-.0016.6885-.0031.7641-.0031.1497-.0016.282.0315.3955.0961.1135.0662.1702.137.1702.2111,0,.1135-.093.2127-.2805.2978-.1891.0866-.4002.1575-.635.2158-.2363.0567-.4711.1008-.7058.1292-.2348.0299-.3907.0441-.4663.0457-.1308,0-.2111-.0095-.2395-.0268-.0283-.0189-.0425-.0662-.0425-.1418,0-.0378.0031-.0756.0126-.1134.0094-.0378.0142-.074.0142-.1119,0-.0378-.0189-.0567-.0567-.0567l-.7909.0032c-.4869.6428-1.0147,1.366-1.585,2.1696-.5719.8035-1.0997,1.6149-1.585,2.4358-.4853.8224-.8949,1.6197-1.2321,2.3932-.334.7736-.501,1.4527-.4979,2.0357.0016.3954.0977.7058.2867.9312.1891.2237.416.3356.6807.3356.2631-.0016.5262-.0504.7893-.145.2631-.0961.5121-.2048.7468-.3293.2348-.1229.4412-.2521.6192-.3829.178-.1339.3151-.2379.4081-.3135.0756.0362.1323.0945.1702.1686.0378.0756.0394.1512.0016.2253-.0945.0756-.2348.1859-.4222.3277-.1875.1418-.4034.2836-.6476.427-.2442.1418-.5168.2647-.8177.3703-.3009.1055-.6019.1591-.9028.1591-.4711.0032-.8587-.1638-1.1612-.5026-.3025-.3372-.4553-.8067-.4585-1.4101-.0031-.6948.1166-1.4354.3577-2.2184.2411-.7815.542-1.5645.9075-2.3492.3624-.7815.7641-1.5425,1.2022-2.2799.438-.7358.8634-1.4148,1.2762-2.0387-.3781.0015-.6649-.0016-.8618-.0095-.1985-.0095-.3435-.0126-.438-.0126s-.1607.0016-.1969.0016h-.0851c-.1323,0-.2647.011-.3955.0299-.1323.0189-.1985-.0173-.1985-.1118s.0457-.1702.1402-.2269.1969-.0851.3104-.0866h.1134c.0552,0,.1449-.0047.2678-.0158.1213-.0094.3151-.0205.5782-.0299.2631-.0111.6224-.0174,1.0745-.0205.093-.1135.1717-.2206.2379-.3246.0646-.104.1355-.2032.2096-.2978.2615-.397.594-.8744.9957-1.4322.4034-.5562.8335-1.1375,1.292-1.7425s.917-1.2053,1.3755-1.8009.8792-1.1234,1.2636-1.5866c.3829-.4632.7058-.8413.969-1.1359.2615-.2931.4301-.4396.5058-.4396.0946,0,.2111.0174.3529.0552.1418.0378.2741.0835.3955.1387.1229.0567.2316.126.3277.2111.0945.0835.1418.1733.1418.2678.0016.1875-.0693.3577-.2095.5089"/><path class="cls-1" d="m306.036,67.9024c-.0473.0851-.1087.1686-.1828.2537-.0756.0851-.1497.1623-.2253.2284-.0756.0662-.1402.0993-.1969.0993s-.1371-.0315-.2411-.0977c-.104-.0646-.208-.1449-.312-.2379-.104-.0945-.1938-.1922-.2694-.2962-.0756-.1024-.1135-.2017-.115-.2962,0-.1875.0882-.4002.2663-.6365.178-.2363.3703-.3545.5767-.356.3576-.0016.5562.0929.5955.2804.0378.0945.0756.2395.115.4364.0378.1985.0567.3435.0583.438,0,.0378-.0236.0992-.0693.1843m-1.0966,7.1373c-.178.1513-.375.312-.5908.4822-.2159.1717-.4364.3419-.6602.512-.2253.1702-.4128.3041-.5641.3986-.3183.1891-.709.4034-1.1691.6397-.4601.2395-.9059.3592-1.3408.3608-.282.0016-.5262-.0725-.7342-.2221-.208-.1497-.3135-.4317-.3151-.8461-.0016-.3576.0914-.7625.2773-1.2163.1859-.4538.4002-.8823.6428-1.2888.2426-.4049.4727-.7547.687-1.0477.2158-.2931.3419-.468.3797-.5247.1859-.2269.2789-.4349.2789-.6224,0-.0945.041-.2158.126-.3671.0835-.1512.1906-.2978.3214-.4396.1308-.1434.2773-.2615.4364-.356s.3246-.1418.4947-.1434c.2253-.0016.4128.0583.5641.1812.1512.1213.2285.2489.2285.3797.0016.1513-.0268.3781-.0819.6791-.0552.3009-.1292.5184-.2222.6507-.0567.0567-.1497.1607-.2804.312-.1308.1513-.2805.3167-.449.4963-.1686.1796-.3482.3687-.5357.5672s-.3466.3828-.4774.553c-.2804.3593-.5562.7374-.8272,1.1344-.271.3955-.4065.7074-.4049.9327,0,.0756.0284.156.0851.2411.0583.0835.1434.126.2552.1244.2442,0,.5593-.0914.9453-.2726.3844-.1796.7846-.3939,1.1974-.6412.375-.2458.7358-.4869,1.084-.7248.3466-.2379.6034-.4317.7736-.5829.0567,0,.1134.0284.1702.0835.0567.0567.0756.1418.0567.2537-.0552.0567-.1733.1623-.3513.3135"/><path class="cls-1" d="m311.0733,70.0099c-.0851-.0929-.2789-.1387-.5798-.1371-.1702,0-.3766.0725-.6208.2143-.2442.1418-.5026.3324-.7736.5688-.2726.2363-.5451.5168-.8161.8366-.271.3214-.5278.6617-.772,1.0209.3577-.0772.7531-.2158,1.1848-.4159.4317-.1985.8319-.4128,1.1974-.6413.3671-.2269.6759-.4459.9296-.6539.2537-.208.3797-.3592.3781-.4538,0-.1308-.0425-.2442-.1276-.3387m3.1354,3.107c-.5058.5767-1.1801,1.2447-2.0246,2.001-.4317.3797-.8713.7484-1.3219,1.1076-.449.3608-.8996.6775-1.3518.9516-.449.2773-.8965.4963-1.3376.657-.4412.1623-.8603.2442-1.2557.2458-.6775.0031-1.2337-.1954-1.6701-.5987-.4349-.4034-.6539-.9894-.657-1.7615-.0047-.8665.208-1.7347.6365-2.6028.4301-.8681.9438-1.6464,1.5425-2.3381.5987-.6885,1.2037-1.2478,1.8134-1.6733.6098-.4286,1.1029-.6412,1.481-.6444.2631,0,.4853.0882.6649.2663.1796.178.3545.323.5247.4349.1702.1118.3766.2347.6224.3639.2442.1308.3703.3466.3718.6476.0016.3387-.2048.6932-.6176,1.0635-.4128.3687-.9059.7232-1.4779,1.0651-.5735.3419-1.1738.646-1.8024.9123-.6302.2679-1.1612.4585-1.5945.5735-.2048.3954-.3718.7925-.5026,1.188-.1292.397-.1938.7641-.1922,1.1029.0016.3766.093.6728.2726.8886.1796.2159.4207.323.7216.3214.3009-.0016.6365-.0693,1.002-.2032.3671-.1323.7468-.3183,1.1407-.5562.3955-.2363.7941-.5058,1.1974-.8098.4033-.3025.802-.6255,1.1959-.9658.731-.6444,1.4101-1.2967,2.0372-1.96.6287-.6618,1.1013-1.2085,1.4196-1.6433.1702-.0016.2773.0788.3261.2379.0473.1592.0252.3151-.0693.4663-.2237.2647-.5892.6854-1.095,1.262"/><path class="cls-1" d="m323.7065,71.8142c-.1213.3971-.2789.8256-.4743,1.2873-.1954.4632-.4002.939-.6145,1.4306-.2143.49-.4191.9327-.6145,1.3298-.1954.3971-.3545.7216-.4758.9769-.1213.2552-.1812.3923-.1812.4096,0,.1135.0473.1702.1418.1686.0945,0,.2253-.052.3955-.156.1686-.104.3088-.1575.4223-.1575.074,0,.1229.0331.1418.0977.0173.0662.0284.1276.0284.1828,0,.0567-.0835.1607-.2521.312-.1686.1529-.3703.3135-.605.4837s-.4648.323-.6901.4553c-.2253.1324-.3939.2001-.5073.2001s-.2726-.1213-.4821-.364c-.208-.2442-.312-.5168-.3135-.8177-.0016-.2269.0725-.542.2206-.9485.1481-.4049.3309-.8445.5452-1.3156s.4475-.9579.698-1.4574c.2521-.5011.4853-.9674.7011-1.4023.2127-.4333.3955-.8114.5451-1.1328.1481-.3198.2222-.5373.2222-.6507-.0016-.2631-.1339-.3939-.3986-.3923-.3183.0015-.7011.0929-1.1407.2741-.4427.1796-.917.4175-1.4227.7121-.5073.2946-1.0336.6318-1.5771,1.01-.5452.3797-1.0808.7673-1.6055,1.1659-.5625.416-1.0919.8287-1.5897,1.2368-.4979.4065-.9422.7657-1.3361,1.0793-.3939.312-.709.5688-.9438.7673-.2332.1985-.3608.2978-.3797.2978-.0378,0-.1072-.0268-.2111-.0835-.104-.0552-.2174-.126-.3403-.2095-.1229-.0851-.2316-.1733-.3261-.2663-.0945-.0945-.1418-.178-.1418-.2536s.0882-.2458.2647-.5105c.178-.2647.4081-.5814.6885-.9501.2805-.3671.5893-.761.9264-1.177.3372-.4144.6554-.7972.9548-1.147.2994-.3498.5656-.6397.8004-.8665.2332-.2269.3986-.3403.4931-.3403.1513-.0016.282.0693.3955.2095.115.1402.1717.2663.1717.3797,0,.0378-.0457.1323-.1402.2836-.093.1513-.219.3498-.3781.5956-.1576.2457-.3356.5199-.5325.8209-.1969.3025-.397.605-.6035.9075.5073-.4175,1.1124-.8902,1.8151-1.4212.7043-.531,1.4369-1.0336,2.1963-1.5078.761-.4742,1.5125-.8775,2.2546-1.2116.7405-.3324,1.4133-.5011,2.0152-.5042.3198-.0016.6381.1055.9485.3198.312.2143.468.5199.4711.917,0,.2253-.0599.5373-.1796.9327"/><path class="cls-1" d="m335.6591,61.0524c-.1418.1513-.2868.3025-.4364.4538-.074.0961-.2852.345-.6302.7515-.3482.4065-.7783.9312-1.292,1.574-.5168.6429-1.0871,1.3755-1.7126,2.1979-.6286.8209-1.2589,1.678-1.8954,2.565.6034-.0221,1.1108-.0347,1.5267-.0363.4317-.0016.687-.0031.7626-.0031.1497-.0016.282.0315.3939.0961.115.0662.1702.137.1717.2111,0,.1135-.0945.2127-.282.2978-.1875.0866-.3986.1575-.6334.2158-.2363.0567-.4711.1008-.7058.1292-.2363.0299-.3907.0441-.4663.0457-.1308,0-.2111-.0079-.2395-.0268-.0283-.0189-.0425-.0662-.0425-.1418,0-.0378.0031-.0756.0126-.1134.0094-.0378.0142-.074.0142-.1119,0-.0378-.0205-.0567-.0567-.0567l-.7909.0032c-.4869.6444-1.0162,1.366-1.5866,2.1696-.5704.8035-1.0982,1.6149-1.5834,2.4358-.4853.8224-.8965,1.6197-1.2321,2.3932-.3356.7736-.501,1.4527-.4979,2.0357.0016.3954.0977.7058.2867.9312.1891.2253.416.3356.6791.3356.2631-.0016.5262-.0504.7894-.145.2647-.0961.5121-.2048.7484-.3293.2348-.1229.4412-.2505.6192-.3829.178-.1339.3135-.2379.4081-.3135.0756.0378.1323.0945.1702.1686.0378.0756.0378.1512.0016.2253-.0945.0756-.2348.1859-.4222.3277-.1875.1418-.4034.2836-.6476.427-.2442.1418-.5168.2647-.8177.3703-.3009.1055-.6019.1591-.9028.1591-.4711.0032-.8587-.1638-1.1612-.5026-.3025-.3372-.4553-.8067-.4585-1.4101-.0031-.6948.115-1.4354.3561-2.2184.2411-.7815.5436-1.5645.9075-2.3492.364-.7815.7641-1.5425,1.2037-2.2783.438-.7373.865-1.4164,1.2762-2.0403-.3766.0015-.6649-.0016-.8618-.0095-.1985-.0095-.345-.0126-.438-.0126-.0945,0-.1607.0016-.1985.0016h-.0835c-.1323,0-.2647.011-.3955.0299-.1323.0205-.1985-.0173-.1985-.1118s.0457-.1702.1402-.2269.1969-.0851.3104-.0866h.1119c.0567,0,.1465-.0047.2678-.0158.1229-.0094.3151-.0205.5798-.0299.2631-.0111.6224-.0174,1.073-.0205.093-.1135.1733-.2206.2395-.3246.0646-.104.1355-.2032.2096-.2978.2615-.397.594-.8744.9973-1.4322.4002-.5562.8319-1.1375,1.2904-1.7425s.917-1.2053,1.3755-1.8009.8792-1.1234,1.2636-1.5866c.3829-.4632.7058-.8413.969-1.1359.2615-.2915.4301-.4396.5058-.4396.093,0,.2111.0174.3529.0552.1418.0378.2726.0835.3955.1387.1229.0567.2316.126.3277.2111.0929.0835.1418.1733.1418.2678,0,.1875-.0693.3577-.2095.5089"/><path class="cls-1" d="m346.3517,73.1894c-.5436.5956-1.1439,1.1959-1.7993,1.8009-.4128.3813-.8303.75-1.251,1.1092-.4223.3592-.8398.6728-1.2542.9375-.4128.2663-.8067.4805-1.1817.6413-.3765.1623-.7232.2442-1.0446.2457-.6775.0032-1.2336-.1969-1.6685-.6003-.4364-.4034-.6554-.9895-.6586-1.7615-.0047-.8665.208-1.7331.6381-2.6028.427-.8665.9422-1.6464,1.5409-2.3366.6003-.6901,1.2037-1.2478,1.8135-1.6748s1.1044-.6413,1.481-.6428c.1513-.0016.3151.0646.4947.1938.1796.1324.345.2915.4963.479.1528.1875.2805.3797.3844.5782.104.1954.1576.3514.1576.4648.0016.3766-.1087.6491-.3356.8193-.2253.1717-.4128.2569-.5625.2584-.0567,0-.0851-.0662-.0866-.1985,0-.093.0174-.2064.0552-.3388.0363-.1323.0552-.2552.0552-.3671-.0016-.1324-.0016-.2443-.0016-.3388-.0016-.0945-.0772-.1418-.2269-.1402-.3388.0016-.7579.1969-1.2542.5845-.4979.3876-.9847.8855-1.4605,1.4905-.4789.605-.8854,1.2699-1.221,1.9962s-.501,1.4401-.4979,2.1349c.0016.3766.093.6728.2726.8886.1796.2159.4207.323.7232.3214.2442-.0016.531-.0772.8602-.23.3277-.1513.6791-.3561,1.0556-.6113.3749-.2568.7641-.5499,1.1675-.8807.4033-.3324.802-.6775,1.1959-1.0383.6759-.6428,1.303-1.2762,1.8828-1.9017.5814-.624,1.0021-1.1155,1.2652-1.4732.1686-.0015.2773.0788.3246.2379.0473.1592.0252.3151-.0677.4664-.3183.397-.7484.8933-1.2919,1.4889"/><path class="cls-1" d="m351.8109,69.0808c-.1891.0016-.4711.1339-.8461.3986-.375.2647-.7973.6097-1.2667,1.0335-.468.4254-.9453.9107-1.4322,1.4558-.4868.5467-.9375,1.0934-1.3487,1.6401-.542.7153-.9627,1.355-1.262,1.9191-.2978.5656-.4459.9973-.4443,1.2983,0,.1875.0284.2804.0851.2804.0567,0,.2206-.0992.4931-.2978.271-.1985.5908-.4443.9564-.7373.3655-.2915.7468-.6129,1.1392-.9611.3939-.3498.7499-.6649,1.0682-.9501.3372-.3009.6665-.6018.9847-.9044.3183-.3009.6176-.5751.8997-.8209-.1324-.0362-.2442-.0819-.3387-.1386-.0945-.0567-.1434-.1024-.1434-.1403,0-.0378.0378-.0882.1134-.1544.074-.0662.1497-.1465.2253-.241.0378-.0378.1308-.1733.2805-.4097.1497-.2348.3025-.4884.4616-.761.1591-.2726.3025-.5326.4349-.7783.1292-.2427.1954-.4034.1954-.479-.0016-.167-.0866-.2521-.2553-.2521m5.5208,3.0676c-.2064.2364-.4459.5011-.7169.7941-.271.293-.5467.5861-.8287.8791-.2805.2931-.5152.5263-.7011.6964-.2064.1702-.4459.3781-.7184.6239-.271.2473-.553.4837-.8429.7106-.2915.2269-.5877.4223-.887.5829-.3009.1623-.5641.2426-.7894.2442-.3387.0016-.5845-.167-.7373-.5057-.1529-.3372-.2285-.7516-.2316-1.24-.0016-.2457.0299-.5483.0945-.9059.063-.3577.115-.5735.1528-.6492.0174-.0567.0126-.104-.0157-.1418-.0284-.0378-.0614-.0567-.0993-.0567-.0189,0-.1166.0772-.2946.2284-.1796.1513-.3939.3356-.6476.553s-.5247.4538-.8161.7106c-.2899.2552-.5578.4963-.8004.7232-.2442.2285-.5389.4979-.8855.8098-.3482.312-.6901.6066-1.0272.8807-.3372.2758-.6476.5121-.9296.7106-.2805.1985-.4869.2994-.6192.2994-.1875.0015-.3435-.1119-.4679-.3372-.1229-.2237-.1859-.4789-.1875-.761-.0015-.4711.1087-1.0178.3324-1.6401.2222-.6223.5168-1.2636.8808-1.9254.3623-.6601.783-1.3077,1.2604-1.9395.4774-.6334.9737-1.2006,1.4889-1.7032.5152-.501,1.0351-.9076,1.5614-1.221.5247-.3135,1.0146-.4711,1.4668-.4727.3765-.0016.6917.1008.9469.3057.2553.2064.3845.5263.3861.9579,0,.1134-.0315.2679-.0961.4663-.0662.1985-.1497.416-.2521.6523-.1024.2348-.219.4758-.3498.7216-.1292.2442-.2505.4616-.3639.6507.1891-.0945.3293-.1434.4238-.1434.2253-.0015.4096.0552.5514.167.1418.1118.2127.3009.2143.5641.0016.1702-.0363.3718-.1103.6081s-.1576.4805-.2505.7342c-.0929.2553-.1765.5058-.2505.7515-.074.2443-.1103.4617-.1087.6492,0,.1513.0236.282.0709.3955.0489.1118.1466.1686.2978.167.2064,0,.5451-.1906,1.0146-.5688.4679-.3781.9658-.813,1.4905-1.3077.2804-.2836.5609-.5704.8429-.865.2804-.2915.5436-.5609.7862-.8083.2442-.2458.4506-.4632.6192-.6523.1686-.1891.2899-.3309.3655-.4254.0552,0,.1166.0457.1843.1403.0646.0945.052.2442-.041.4522-.0378.0567-.1592.2032-.3655.4396"/><path class="cls-1" d="m363.418,74.548c-.4128.4648-.9658.9895-1.6591,1.5756-.5247.4538-1.0793.8492-1.6607,1.1801-.5814.3324-1.1265.4994-1.6338.5026-.3135.0015-.605-.1056-.8729-.3214-.2694-.2143-.4049-.5389-.4065-.9721-.0015-.3576.1481-.772.4506-1.2447.3009-.4726.6334-.9406.9957-1.4038.3608-.4616.698-.887,1.0068-1.2746.3088-.3876.4616-.6759.4616-.865-.0016-.1308-.1513-.1969-.4522-.1954-.2458.0016-.5215.0221-.8319.0614s-.6491.0583-1.0178.0614c-.4065.0016-.7405-.0851-1.0052-.2584-.2647-.1733-.397-.4238-.3986-.7515-.0016-.208.115-.4963.3482-.865.2348-.3671.5168-.7263.8477-1.0761.3309-.3498.6822-.657,1.054-.9233.3734-.2647.709-.3986,1.0116-.4002.5829-.0031.876.156.8775.4758,0,.0945-.0977.2931-.2931.5956-.1969.3009-.4443.6129-.7436.9343-.2631.3025-.4979.5767-.7027.8224-.2064.2473-.3088.3876-.3088.4254,0,.0945.1087.1513.3246.1686.2158.0174.4853.0252.8051.0237.5278-.0016.9705.1055,1.3298.3214.3592.2143.5404.5782.542,1.0887.0016.2836-.1513.6444-.4616,1.0808-.3088.4364-.6444.8729-1.0099,1.3093-.3656.438-.7027.8413-1.0115,1.2116-.3088.3702-.4632.6397-.4616.8098,0,.2662.115.397.3403.397.2269-.0016.5688-.1166,1.0305-.345.4601-.2284.9611-.5593,1.5062-.9957.282-.2269.5672-.4774.8571-.7516.2899-.2741.5625-.5309.8161-.7673.252-.2363.4679-.4443.6459-.6239.178-.1796.2946-.2978.3514-.3545.0945-.0015.137.0599.1276.1828-.0079.1229-.041.2301-.0961.3246-.0567.0945-.2915.3734-.7027.8366"/><path class="cls-1" d="m369.2839,69.7317c-.0866-.0929-.2789-.1387-.5798-.1371-.1702,0-.3766.0725-.6208.2143s-.5026.3324-.7736.5688c-.2726.2379-.5436.5168-.8146.8366-.2726.323-.531.6617-.7736,1.0209.3592-.0772.7531-.2158,1.1848-.4159.4317-.1985.8319-.4128,1.1974-.6397.3671-.2285.6759-.4459.9296-.6555.2537-.208.3797-.3592.3781-.4538,0-.1308-.0425-.2442-.1276-.3387m3.1354,3.107c-.5058.5767-1.1801,1.2447-2.0231,2.001-.4333.3797-.8728.7484-1.3235,1.1076-.449.3608-.9012.6775-1.3518.9532-.4506.2758-.8965.4948-1.3376.6555-.4427.1623-.8602.2442-1.2557.2458-.6775.0031-1.2336-.1954-1.6701-.5987-.4349-.4034-.6539-.9894-.657-1.7615-.0047-.8665.208-1.7331.6365-2.6028.4286-.8681.9438-1.6464,1.5425-2.3365.5987-.6901,1.2037-1.2494,1.8135-1.6748.6097-.4286,1.1029-.6412,1.481-.6428.2631-.0016.4837.0866.6649.2647.1796.178.3545.323.5247.4349.1702.1118.3765.2347.6223.3655.2458.1292.3687.345.3703.646.0015.3387-.2048.6948-.6161,1.0635-.4128.3687-.9044.7248-1.4779,1.0651-.5735.3419-1.1738.646-1.804.9139-.6287.2663-1.1596.4569-1.5929.5719-.2048.3954-.3718.7925-.5026,1.188-.1292.397-.1938.7641-.1922,1.1029.0016.3766.093.6728.2726.8886.1796.2159.4207.323.7216.3214s.635-.0693,1.002-.2032c.3671-.1323.7468-.3183,1.1407-.5562.3939-.2363.7941-.5058,1.1974-.8098.4034-.3025.802-.6255,1.1959-.9658.731-.6444,1.4101-1.2967,2.0388-1.9584.6271-.6633,1.0997-1.21,1.418-1.6449.1702-.0016.2789.0788.3261.2379.0473.1607.0237.3151-.0693.4663-.2237.2647-.5892.6854-1.095,1.262"/><path class="cls-1" d="m370.7854,79.5967c-.9768.3529-1.982.7673-3.0172,1.2431-1.032.4758-2.075,1.0036-3.1259,1.5819-1.0525.5798-2.0561,1.1927-3.014,1.8371-.9753.6444-1.886,1.3077-2.7304,1.9899-.8445.6822-1.5787,1.3628-2.2074,2.0435-.6271.6822-1.1187,1.3487-1.4731,1.9994-.3545.6507-.531,1.2605-.5294,1.8245.0015.3009.0929.5593.2725.7752.1812.2143.4317.323.7516.3214.6964-.0031,1.5614-.2804,2.5934-.8319,1.0336-.5515,2.1412-1.262,3.3229-2.1349,1.1832-.8713,2.3885-1.8513,3.6159-2.94,1.2289-1.0887,2.3901-2.168,3.4867-3.2362,1.0966-1.0698,2.0656-2.0719,2.91-3.0078.8429-.9374,1.4684-1.6969,1.8812-2.2829-.8461.1922-1.7599.4648-2.7367.8177m7.985-7.7912c-.1481.6035-.3577,1.24-.6271,1.9096-.2694.6696-.6003,1.3692-.9926,2.0939-.3907.7279-.8209,1.4495-1.2888,2.168.1702-.0205.3435-.0347.5231-.0457.178-.0094.3151-.0157.4096-.0157.2632-.0016.3955.1292.3971.3939,0,.1513-.1497.2269-.4506.2284-.1134,0-.23-.0047-.3545-.0126-.1229-.0095-.2301-.0126-.3246-.0126s-.1938.0047-.2962.0158c-.1024.0094-.2111.0236-.3246.0441-.8603,1.2242-1.8198,2.4374-2.877,3.6348-1.0588,1.199-2.1774,2.3649-3.3591,3.4993-1.199,1.1517-2.428,2.2247-3.6852,3.2173-1.2557.9926-2.4815,1.8528-3.6727,2.5839-1.1927.7279-2.3239,1.3014-3.3969,1.7205-1.0698.4191-2.0294.6302-2.877.6349-.4333.0016-.8303-.137-1.1896-.4175-.3576-.2821-.5388-.6854-.542-1.2116-.0031-.657.1875-1.3502.5688-2.075.3829-.7263.9076-1.459,1.5724-2.1948.6649-.7373,1.4479-1.4747,2.3476-2.2121.9013-.7374,1.8765-1.4495,2.9274-2.1302.9958-.6444,2.0325-1.2557,3.1133-1.8355,1.0793-.5782,2.168-1.1108,3.2677-1.5945,1.0997-.4853,2.1805-.9044,3.2425-1.2573s2.0735-.635,3.033-.8461c.167-.2458.3923-.6176.6727-1.1186.2789-.4994.5641-1.0367.8524-1.6118.2899-.5751.5593-1.1407.8114-1.6969.2521-.5562.4427-1.0225.5735-1.3991-.4884.6413-1.0225,1.2983-1.6023,1.9694-.5798.6696-1.1517,1.2841-1.7126,1.8403-.5625.5593-1.0871,1.0131-1.5756,1.3629-.4884.3498-.8728.5246-1.1565.5262-.2064.0016-.3718-.1103-.4947-.3356-.1229-.2253-.1859-.4774-.1875-.7609-.0032-.4695.1071-1.0163.3309-1.637.2237-.6224.5215-1.2636.8949-1.9238s.8067-1.3062,1.3046-1.938c.4947-.6334,1.0194-1.199,1.5724-1.7016.553-.501,1.1107-.9076,1.6748-1.221.5641-.312,1.1092-.4695,1.637-.4727.3766-.0016.7011.0819.9753.249.2742.1686.4112.4222.4128.7609,0,.0756-.0174.1875-.0536.3388-.2285-.3561-.5404-.5341-.9359-.5326-.2631.0016-.5735.1024-.9311.3009-.3561.2001-.7279.4663-1.1124.7972-.3844.3309-.783.7137-1.1943,1.1486-.4112.4364-.8051.8902-1.1801,1.3628-.3545.4349-.687.8634-.9957,1.2888-.3088.4254-.5751.8319-.8004,1.2195-.2237.386-.4002.7405-.5309,1.0604-.1292.323-.1954.5767-.1938.7641.0016.1891.03.2821.0866.2821.2253,0,.5215-.1387.8871-.4128.3671-.2758.7736-.6302,1.2242-1.0651.449-.4364.9076-.9264,1.3771-1.4763.4679-.5483.9122-1.0966,1.3329-1.6433.4207-.5499.7957-1.0635,1.1234-1.5456.3261-.4821.5641-.8824.7137-1.2037.0378-.0945.0929-.1513.1686-.1717.0756-.0189.1607-.0284.2553-.0284.0929,0,.1922.0126.2962.041.104.0268.1639.041.1843.041.2442-.0016.3686.2237.3702.6775.0016.4506-.0709.9784-.219,1.5819"/><path class="cls-1" d="m385.5693,67.5218c-.0457.0851-.1071.1702-.1812.2553-.0756.0851-.1497.1607-.2253.2269-.0756.0662-.1402.0993-.1969.0993-.0567.0016-.1371-.0315-.241-.0977-.1024-.0646-.208-.1434-.312-.2379-.104-.0929-.1938-.1922-.2695-.2946-.0756-.104-.115-.2017-.115-.2962,0-.1891.0882-.4002.2663-.6365s.3702-.3545.5767-.3561c.3576-.0015.5562.0914.5955.2789.0378.0945.0756.2395.1135.438.0394.1969.0583.3435.0599.4364,0,.0394-.0237.0992-.0709.1843m-1.095,7.1373c-.1796.1529-.3766.3135-.5908.4837-.2159.1702-.4364.3403-.6618.5121-.2253.1702-.4128.3025-.5625.397-.3198.1891-.709.4034-1.1691.6413s-.906.3576-1.3408.3592c-.282.0016-.5278-.0725-.7358-.2221-.208-.1497-.312-.4317-.3135-.8461-.0016-.3576.0898-.7625.2757-1.2147.1859-.4538.4002-.8823.6444-1.2888.2427-.4065.4711-.7547.687-1.0493.2143-.2931.3419-.468.3797-.5247.1859-.2253.2789-.4333.2789-.6224-.0016-.0929.041-.2158.1245-.3671.0851-.1512.1922-.2978.323-.4396.1308-.1418.2758-.2599.4364-.356.1592-.0945.3246-.1418.4931-.1434.2269,0,.4144.0599.5656.1812.1513.1229.2285.2489.2285.3813,0,.1513-.0268.3765-.0819.6775-.0552.3025-.1292.5184-.2222.6507-.0567.0567-.1512.1607-.282.312-.1308.1513-.2805.3183-.449.4963-.1686.1812-.3482.3703-.5341.5688-.1875.1985-.3466.3828-.4774.553-.2805.3577-.5578.7358-.8272,1.1328-.271.3971-.4065.709-.4049.9343,0,.0756.0284.1544.0851.2395.0567.0851.1418.126.2552.126.2442-.0016.5593-.0914.9438-.2726.386-.1812.7847-.3939,1.199-.6412.3749-.2458.7358-.4885,1.0824-.7264.3466-.2363.605-.4301.7752-.5829.0567,0,.1134.0284.1702.0851.0567.0552.0756.1402.0567.2536-.0552.0567-.1733.1607-.3513.312"/><path class="cls-1" d="m392.3095,71.2609c-.0284.0378-.0993.0756-.2111.1135-.1324.0378-.3009.063-.5089.074-.2064.011-.3293.0441-.3656.1008-.0189.0378-.0788.1402-.1812.3104s-.2237.3734-.3639.6098c-.1403.2363-.2899.4852-.449.7499-.1592.2647-.3041.5105-.4349.7374-.1497.2269-.3608.5231-.6302.8917-.271.3687-.5672.7374-.8855,1.106-.3183.3687-.6507.6854-.9973.9516-.3482.2647-.6728.3986-.9737.3986-.2064.0015-.4144-.0677-.6223-.208-.208-.1402-.3971-.323-.5672-.5483s-.3088-.4742-.4128-.7452c-.104-.2726-.1576-.5515-.1591-.8335-.0016-.282.0914-.7625.2757-1.4416s.4112-1.3771.6822-2.0939c.2678-.7169.553-1.3487.8524-1.897.2978-.5467.5688-.8209.8146-.8224.0945,0,.1891.0457.2836.1403.0945.0929.1796.2158.2553.3655.0756.1513.1371.3104.1859.4805.0473.1686.0725.3198.074.4506,0,.1323-.1024.438-.3072.9186-.2048.4821-.4238,1.0052-.657,1.5708-.2316.5672-.4506,1.1139-.6554,1.6418-.2048.5278-.3057.9059-.3041,1.1312.0015.2647.0394.4427.115.5373.0756.0929.1796.1402.3104.1386.1324,0,.312-.0709.5357-.2143.2253-.1418.4742-.3403.7452-.5971.2726-.2553.5593-.5578.8587-.9075.2994-.3498.5892-.7327.8697-1.1486.542-.8114.9201-1.4479,1.1344-1.9112.2143-.4632.3214-.8823.3198-1.2589-.0016-.0929.041-.2158.1244-.3671.0835-.1512.2569-.2269.52-.2284.208-.0016.3671.0693.4821.2095.1134.1403.1717.2868.1717.4364,0,.1513.0094.3151.0299.4947.0205.178.0394.334.0583.4648.0205.0945.0157.1607-.0126.1985"/><path class="cls-1" d="m398.2052,69.5938c-.0866-.0929-.2789-.1387-.5798-.1371-.1702,0-.3766.0709-.6208.2143-.2442.1418-.5026.3309-.7736.5688-.2726.2363-.5436.5152-.8146.8366-.2726.3214-.531.6617-.7736,1.0209.3592-.0772.7531-.2158,1.1848-.4159.4317-.2001.8319-.4128,1.199-.6413.3655-.2269.6743-.4459.928-.6539.2537-.208.3797-.3592.3781-.4538,0-.1308-.0425-.2442-.1276-.3387m3.1354,3.107c-.5058.5767-1.1801,1.2431-2.0231,2.001-.4333.3797-.8728.7484-1.3235,1.1076-.449.3592-.8996.6775-1.3518.9516-.4506.2773-.8965.4963-1.3376.657-.4412.1623-.8602.2442-1.2557.2458-.6775.0031-1.2336-.1954-1.6701-.5987-.4349-.4034-.6539-.9894-.657-1.7615-.0047-.8665.208-1.7347.6365-2.6028.4286-.8681.9438-1.6464,1.5425-2.3381.5987-.6885,1.2037-1.2478,1.8135-1.6733.6097-.4286,1.1029-.6428,1.481-.6444.2631,0,.4837.0882.6649.2663.1796.178.3545.323.5247.4349.1702.1118.3765.2347.6223.3639.2458.1308.3687.3466.3703.6476.0015.3387-.2048.6932-.6161,1.0635-.4128.3687-.9044.7232-1.4779,1.0651-.5735.3419-1.1738.646-1.804.9123-.6287.2679-1.1596.4585-1.5929.5735-.2048.3954-.3718.7925-.5026,1.188-.1292.397-.1938.7641-.1922,1.1029.0016.3766.093.6728.2726.8886.1796.2159.4207.323.7216.3214s.635-.0693,1.002-.2032c.3671-.1323.7468-.3183,1.1407-.5562.3939-.2363.7941-.5073,1.1974-.8098.4034-.3025.802-.6255,1.1959-.9658.731-.6444,1.4101-1.2967,2.0388-1.96.6271-.6618,1.0997-1.21,1.418-1.6433.1702-.0016.2773.0788.3261.2379.0473.1592.0237.3151-.0693.4663-.2237.2647-.5892.6854-1.095,1.262"/><path class="cls-1" d="m408.0999,74.3345c-.4128.4648-.9658.9895-1.6591,1.5756-.5263.4538-1.0793.8492-1.6607,1.1801-.5814.3324-1.1265.4994-1.6338.5026-.3135.0015-.605-.1056-.8729-.3214-.2694-.2143-.4049-.5389-.4065-.9721-.0015-.3576.1481-.772.4506-1.2447.3009-.4726.6334-.9406.9957-1.4038.3608-.4616.698-.887,1.0068-1.2746.3088-.3876.4616-.6759.4616-.865-.0016-.1308-.1513-.1969-.4522-.1954-.2458.0016-.5231.0221-.8319.0614-.3104.0394-.6491.0599-1.0178.0614-.4065.0016-.7405-.0851-1.0052-.2584-.2647-.1733-.397-.4238-.3986-.7515-.0016-.208.115-.4963.3482-.8634.2348-.3687.5168-.7279.8477-1.0777.3309-.3498.6822-.657,1.054-.9233.3719-.2647.709-.3986,1.0116-.4002.5829-.0031.876.156.8775.4758,0,.0945-.0977.2931-.2931.5956-.1969.3025-.4443.6144-.7436.9343-.2631.3025-.4979.5767-.7027.8224-.2064.2473-.3088.3892-.3088.427,0,.0929.1087.1497.3246.167.2158.0174.4853.0252.8051.0237.5278-.0016.9705.1055,1.3298.3214.3592.2143.5404.5782.542,1.0887.0016.2836-.1529.6444-.4616,1.0808-.3088.4364-.6444.8729-1.0099,1.3093-.3656.438-.7027.8413-1.0115,1.2116-.3088.3702-.4632.6397-.4616.8098,0,.2662.115.397.3403.397.2269-.0016.5688-.1166,1.0305-.345.4601-.2284.9611-.5593,1.5062-.9957.282-.2269.5672-.4774.8571-.7516.2899-.2741.5625-.5309.8161-.7673.252-.2363.4679-.4443.6459-.6239.178-.1796.2946-.2978.3514-.3545.0945-.0015.137.0599.1276.1828-.0079.1229-.041.2301-.0961.3246-.0567.0945-.2915.3734-.7027.8366"/><path class="cls-1" d="m414.8994,69.8818c-.0473.0756-.1182.1135-.2111.1151-.1135,0-.1891-.0473-.2269-.1403-.0394-.0945-.0961-.1985-.1717-.3104-.0756-.1134-.1938-.2158-.3545-.3104-.1591-.093-.4096-.1387-.7484-.1371-.3592.0016-.6964.0788-1.0163.23-.3198.1528-.6003.3482-.8445.5845-.2427.2363-.4349.5105-.5751.8224-.1402.3104-.2095.6349-.208.9737.0016.3214.0693.6224.2032.9044.1324.2805.2805.5625.4427.8445.1607.282.3072.5641.4412.8461.1323.2821.2001.5829.2017.9028.0016.3955-.0945.7579-.2915,1.0871-.1954.3324-.449.6255-.7578.8808-.3104.2552-.6523.4553-1.0289.5971-.375.1434-.7421.2158-1.0997.2174-.2647.0015-.5515-.0677-.8634-.208-.3104-.1386-.5057-.3592-.5814-.6602.074-.0756.1686-.1134.282-.115.093,0,.23.0552.4097.1686.1796.1118.4097.167.6917.1654.4711-.0016.8997-.1922,1.2841-.5704.3845-.3781.5751-.8035.5719-1.2746-.0016-.3009-.0819-.5782-.2442-.8319-.1607-.2536-.3403-.5168-.5404-.7893-.1985-.271-.3781-.5672-.5404-.8855-.1607-.3198-.2426-.7058-.2442-1.158-.0032-.5452.1024-1.0588.3167-1.5409.2143-.4805.5042-.8965.8697-1.2462.3655-.3498.7925-.6255,1.281-.8256.4884-.2001,1.0052-.3009,1.5519-.3041.1324,0,.3167.0646.5515.1954.2363.1308.4679.2899.6948.4774.2269.1875.4207.3782.5814.5751s.2411.3623.2426.4931c0,.0756-.0236.1513-.0693.2269"/><path class="cls-1" d="m128.5949,56.9433h-18.319c2.3255-1.5661,2.3255-2.8958,2.3255-5.3159v-21.4024c0-2.3729,0-3.7972-2.3255-5.3144h17.0381v4.4604c-1.377-2.3254-1.5661-3.0376-6.7387-3.0376h-5.1269v12.1019h7.9739c1.8497,0,2.3255-.2379,3.6065-1.4243v4.2713c-1.2809-1.1392-1.377-1.4244-3.7498-1.4244h-7.8305v10.4886c0,3.6065.3324,5.1725,4.9362,5.1725,7.3563,0,9.1587-3.7482,10.4869-4.9362l-2.2767,6.3605Z"/><path class="cls-1" d="m128.5949,56.9433h-18.319c2.3255-1.5661,2.3255-2.8958,2.3255-5.3159v-21.4024c0-2.3729,0-3.7972-2.3255-5.3144h17.0381v4.4604c-1.377-2.3254-1.5661-3.0376-6.7387-3.0376h-5.1269v12.1019h7.9739c1.8497,0,2.3255-.2379,3.6065-1.4243v4.2713c-1.2809-1.1392-1.377-1.4244-3.7498-1.4244h-7.8305v10.4886c0,3.6065.3324,5.1725,4.9362,5.1725,7.3563,0,9.1587-3.7482,10.4869-4.9362l-2.2767,6.3605Z"/><path class="cls-1" d="m138.7497,33.6897v9.9654h3.0377c4.128,0,5.8847-2.2782,5.8847-4.9347,0-4.9362-6.0753-5.0307-8.9224-5.0307m16.5623,23.2536c-2.3728,0-3.9862-.8067-10.5358-8.9696l-2.5146-3.1322h-3.5119v8.0212c0,2.5146.2379,3.0361.9973,4.0806h-4.3659c.7594-1.0446.9957-1.5661.9957-4.0806v-16.2787c0-2.5145-.2363-3.0376-.9957-4.0806h5.7413c4.9835,0,9.1587,1.9458,9.1587,6.2171,0,4.128-3.8428,5.3143-5.4089,5.8832l4.3659,5.4105c2.4673,3.085,5.1726,5.5049,7.2602,5.5049.3797,0,.8067-.0473,1.1864-.0473.1434,0,.2852.0473.2852.1906,0,.7106-1.0446,1.2809-2.658,1.2809"/><path class="cls-1" d="m138.7497,33.6897v9.9654h3.0377c4.128,0,5.8847-2.2782,5.8847-4.9347,0-4.9362-6.0753-5.0307-8.9224-5.0307Zm16.5623,23.2536c-2.3728,0-3.9862-.8067-10.5358-8.9696l-2.5146-3.1322h-3.5119v8.0212c0,2.5146.2379,3.0361.9973,4.0806h-4.3659c.7594-1.0446.9957-1.5661.9957-4.0806v-16.2787c0-2.5145-.2363-3.0376-.9957-4.0806h5.7413c4.9835,0,9.1587,1.9458,9.1587,6.2171,0,4.128-3.8428,5.3143-5.4089,5.8832l4.3659,5.4105c2.4673,3.085,5.1726,5.5049,7.2602,5.5049.3797,0,.8067-.0473,1.1864-.0473.1434,0,.2852.0473.2852.1906,0,.7106-1.0446,1.2809-2.658,1.2809Z"/><path class="cls-1" d="m182.3625,36.2996v21.4497l-18.5554-20.1215v15.5193c0,2.3727,0,2.5145.6649,3.7971h-2.8486c.7594-1.2825.7594-1.4243.7594-3.7971v-17.1327c-1.5661-1.8497-2.1822-2.4201-4.4604-3.5119h4.651l18.3647,19.9324v-16.1353c0-2.3728,0-2.5161-.7594-3.7971h2.8486c-.6649,1.2809-.6649,1.4243-.6649,3.7971"/><path class="cls-1" d="m182.3625,36.2996v21.4497l-18.5554-20.1215v15.5193c0,2.3727,0,2.5145.6649,3.7971h-2.8486c.7594-1.2825.7594-1.4243.7594-3.7971v-17.1327c-1.5661-1.8497-2.1822-2.4201-4.4604-3.5119h4.651l18.3647,19.9324v-16.1353c0-2.3728,0-2.5161-.7594-3.7971h2.8486c-.6649,1.2809-.6649,1.4243-.6649,3.7971Z"/><path class="cls-1" d="m203.4332,56.9433h-14.5219c1.0919-.9012,1.7079-1.7551,1.7079-4.9362v-14.4746c0-3.2268-.616-4.128-1.7079-5.0292h13.6207v3.3212c-1.3298-1.6134-1.5188-2.1349-4.9835-2.1349h-4.555v9.2532h5.9304c2.2783,0,2.0892-.0472,3.3701-1.1864v3.5592c-1.1391-.9958-1.1391-1.1865-3.6065-1.1865h-5.6941v7.8306c0,2.8943.0945,3.7971,4.5077,3.7971,4.7456,0,6.2644-2.1364,7.8305-3.6065l-1.8985,4.7928Z"/><path class="cls-1" d="m203.4332,56.9433h-14.5219c1.0919-.9012,1.7079-1.7551,1.7079-4.9362v-14.4746c0-3.2268-.616-4.128-1.7079-5.0292h13.6207v3.3212c-1.3298-1.6134-1.5188-2.1349-4.9835-2.1349h-4.555v9.2532h5.9304c2.2783,0,2.0892-.0472,3.3701-1.1864v3.5592c-1.1391-.9958-1.1391-1.1865-3.6065-1.1865h-5.6941v7.8306c0,2.8943.0945,3.7971,4.5077,3.7971,4.7456,0,6.2644-2.1364,7.8305-3.6065l-1.8985,4.7928Z"/><path class="cls-1" d="m215.8669,57.655c-3.6065,0-5.7902-1.2809-7.2129-2.1349v-3.4173c1.3282,1.8039,2.7998,4.3658,7.1184,4.3658,2.8943,0,6.0265-1.6606,6.0265-4.7928,0-2.4674-1.4243-4.1296-3.274-5.7902-2.9904-2.7525-8.0212-4.6984-8.0212-8.7318,0-2.8943,2.4689-5.3632,6.5023-5.3632,1.5661,0,3.274.3798,4.555,1.0919v2.658c-.7594-.8066-2.1822-2.5635-5.0292-2.5635-2.0892,0-3.8916,1.0446-3.8916,3.1323,0,3.7971,5.8374,5.3632,9.0169,9.0642,1.2337,1.3771,2.0403,3.085,2.0403,5.2687,0,4.7456-4.0334,7.2129-7.8305,7.2129"/><path class="cls-1" d="m215.8669,57.655c-3.6065,0-5.7902-1.2809-7.2129-2.1349v-3.4173c1.3282,1.8039,2.7998,4.3658,7.1184,4.3658,2.8943,0,6.0265-1.6606,6.0265-4.7928,0-2.4674-1.4243-4.1296-3.274-5.7902-2.9904-2.7525-8.0212-4.6984-8.0212-8.7318,0-2.8943,2.4689-5.3632,6.5023-5.3632,1.5661,0,3.274.3798,4.555,1.0919v2.658c-.7594-.8066-2.1822-2.5635-5.0292-2.5635-2.0892,0-3.8916,1.0446-3.8916,3.1323,0,3.7971,5.8374,5.3632,9.0169,9.0642,1.2337,1.3771,2.0403,3.085,2.0403,5.2687,0,4.7456-4.0334,7.2129-7.8305,7.2129Z"/><path class="cls-1" d="m247.3284,35.8722c-.1906-.9012-.3325-2.1821-2.658-2.1821h-6.2644v19.1714c0,2.5161.2379,3.0377.9973,4.0823h-4.3659c.7594-1.0446.9958-1.5661.9958-4.0823v-19.1714h-5.3144c-2.231,0-1.9931.2836-4.9362,2.1821l2.3728-4.0806c1.0919.4743,2.3255.7122,3.5119.7122h13.7152c.9957,0,2.7998-.3813,4.0823-.7122l-2.1364,4.0806Z"/><path class="cls-1" d="m247.3284,35.8722c-.1906-.9012-.3325-2.1821-2.658-2.1821h-6.2644v19.1714c0,2.5161.2379,3.0377.9973,4.0823h-4.3659c.7594-1.0446.9958-1.5661.9958-4.0823v-19.1714h-5.3144c-2.231,0-1.9931.2836-4.9362,2.1821l2.3728-4.0806c1.0919.4743,2.3255.7122,3.5119.7122h13.7152c.9957,0,2.7998-.3813,4.0823-.7122l-2.1364,4.0806Z"/><path class="cls-1" d="m285.6727,56.9433c1.377-1.9458,1.5188-1.7551,1.5188-5.3159v-10.6303h-18.412v10.6303c0,3.5607.1418,3.3701,1.5173,5.3159h-5.8847c1.377-1.9458,1.5188-1.7551,1.5188-5.3159v-21.4024c0-3.5592-.1418-3.3702-1.5188-5.3144h5.8847c-1.3755,1.9443-1.5173,1.7552-1.5173,5.3144v9.3493h18.412v-9.3493c0-3.5592-.1418-3.3702-1.5188-5.3144h5.8847c-1.3754,1.9443-1.5188,1.7552-1.5188,5.3144v21.4024c0,3.5607.1434,3.3701,1.5188,5.3159h-5.8847Z"/><path class="cls-1" d="m285.6727,56.9433c1.377-1.9458,1.5188-1.7551,1.5188-5.3159v-10.6303h-18.412v10.6303c0,3.5607.1418,3.3701,1.5173,5.3159h-5.8847c1.377-1.9458,1.5188-1.7551,1.5188-5.3159v-21.4024c0-3.5592-.1418-3.3702-1.5188-5.3144h5.8847c-1.3755,1.9443-1.5173,1.7552-1.5173,5.3144v9.3493h18.412v-9.3493c0-3.5592-.1418-3.3702-1.5188-5.3144h5.8847c-1.3754,1.9443-1.5188,1.7552-1.5188,5.3144v21.4024c0,3.5607.1434,3.3701,1.5188,5.3159h-5.8847Z"/><path class="cls-1" d="m312.1534,56.9433h-14.5219c1.0919-.9012,1.7079-1.7551,1.7079-4.9362v-14.4746c0-3.2268-.616-4.128-1.7079-5.0292h13.6207v3.3212c-1.3298-1.6134-1.5188-2.1349-4.9835-2.1349h-4.555v9.2532h5.9304c2.2783,0,2.0892-.0472,3.3701-1.1864v3.5592c-1.1391-.9958-1.1391-1.1865-3.6065-1.1865h-5.6941v7.8306c0,2.8943.0945,3.7971,4.5077,3.7971,4.7456,0,6.2644-2.1364,7.8305-3.6065l-1.8985,4.7928Z"/><path class="cls-1" d="m312.1534,56.9433h-14.5219c1.0919-.9012,1.7079-1.7551,1.7079-4.9362v-14.4746c0-3.2268-.616-4.128-1.7079-5.0292h13.6207v3.3212c-1.3298-1.6134-1.5188-2.1349-4.9835-2.1349h-4.555v9.2532h5.9304c2.2783,0,2.0892-.0472,3.3701-1.1864v3.5592c-1.1391-.9958-1.1391-1.1865-3.6065-1.1865h-5.6941v7.8306c0,2.8943.0945,3.7971,4.5077,3.7971,4.7456,0,6.2644-2.1364,7.8305-3.6065l-1.8985,4.7928Z"/><path class="cls-1" d="m328.5266,36.6785l-3.8916,8.4009h7.5926l-3.701-8.4009Zm7.1656,20.2648c.3797-.4742.7594-.9501.7594-1.5188,0-.427-.1891-.9012-.3797-1.3281l-3.3701-7.8306h-8.6372l-3.3213,7.7344c-.2379.6176-.5215,1.5661-.5215,1.8985,0,.3797.2836.7121.4742,1.0446h-4.2713c.9973-.6176,2.0403-1.2336,2.9431-3.2267l9.6802-21.9255,9.4439,21.9728c.8539,1.9457,1.1392,2.0403,2.4673,3.1794h-5.2671Z"/><path class="cls-1" d="m328.5266,36.6785l-3.8916,8.4009h7.5926l-3.701-8.4009Zm7.1656,20.2648c.3797-.4742.7594-.9501.7594-1.5188,0-.427-.1891-.9012-.3797-1.3281l-3.3701-7.8306h-8.6372l-3.3213,7.7344c-.2379.6176-.5215,1.5661-.5215,1.8985,0,.3797.2836.7121.4742,1.0446h-4.2713c.9973-.6176,2.0403-1.2336,2.9431-3.2267l9.6802-21.9255,9.4439,21.9728c.8539,1.9457,1.1392,2.0403,2.4673,3.1794h-5.2671Z"/><path class="cls-1" d="m359.3248,56.9433h-14.5219c1.0919-.9012,1.7079-1.7551,1.7079-4.9362v-15.4231c0-2.5145-.2836-3.0376-.9957-4.0806h4.3659c-.7594,1.043-.9957,1.5661-.9957,4.0806v15.3759c0,2.8943.0945,3.7971,4.5077,3.7971,5.2671,0,6.1226-1.8985,8.1614-4.651l-2.2294,5.8374Z"/><path class="cls-1" d="m359.3248,56.9433h-14.5219c1.0919-.9012,1.7079-1.7551,1.7079-4.9362v-15.4231c0-2.5145-.2836-3.0376-.9957-4.0806h4.3659c-.7594,1.043-.9957,1.5661-.9957,4.0806v15.3759c0,2.8943.0945,3.7971,4.5077,3.7971,5.2671,0,6.1226-1.8985,8.1614-4.651l-2.2294,5.8374Z"/><path class="cls-1" d="m384.5248,35.8722c-.1906-.9012-.3325-2.1821-2.658-2.1821h-6.2644v19.1714c0,2.5161.2379,3.0377.9973,4.0823h-4.3659c.7579-1.0446.9958-1.5661.9958-4.0823v-19.1714h-5.3144c-2.231,0-1.9931.2836-4.9362,2.1821l2.3728-4.0806c1.0919.4743,2.3255.7122,3.5119.7122h13.7152c.9957,0,2.7998-.3813,4.0807-.7122l-2.1349,4.0806Z"/><path class="cls-1" d="m384.5248,35.8722c-.1906-.9012-.3325-2.1821-2.658-2.1821h-6.2644v19.1714c0,2.5161.2379,3.0377.9973,4.0823h-4.3659c.7579-1.0446.9958-1.5661.9958-4.0823v-19.1714h-5.3144c-2.231,0-1.9931.2836-4.9362,2.1821l2.3728-4.0806c1.0919.4743,2.3255.7122,3.5119.7122h13.7152c.9957,0,2.7998-.3813,4.0807-.7122l-2.1349,4.0806Z"/><path class="cls-1" d="m408.1582,56.9433c.7594-1.0446.9957-1.5661.9957-4.0806v-7.9739h-14.9016v7.9739c0,2.5146.2379,3.0361.9973,4.0806h-4.3659c.7594-1.0446.9958-1.5661.9958-4.0806v-16.2787c0-2.5145-.2364-3.0376-.9958-4.0806h4.3659c-.7594,1.043-.9973,1.5661-.9973,4.0806v7.1184h14.9016v-7.1184c0-2.5145-.2363-3.0376-.9957-4.0806h4.3659c-.7595,1.043-.9974,1.5661-.9974,4.0806v16.2787c0,2.5146.2379,3.0361.9974,4.0806h-4.3659Z"/><path class="cls-1" d="m408.1582,56.9433c.7594-1.0446.9957-1.5661.9957-4.0806v-7.9739h-14.9016v7.9739c0,2.5146.2379,3.0361.9973,4.0806h-4.3659c.7594-1.0446.9958-1.5661.9958-4.0806v-16.2787c0-2.5145-.2364-3.0376-.9958-4.0806h4.3659c-.7594,1.043-.9973,1.5661-.9973,4.0806v7.1184h14.9016v-7.1184c0-2.5145-.2363-3.0376-.9957-4.0806h4.3659c-.7595,1.043-.9974,1.5661-.9974,4.0806v16.2787c0,2.5146.2379,3.0361.9974,4.0806h-4.3659Z"/><path class="cls-1" d="m52.1305,3.5686c0,1.9679-1.5976,3.5687-3.5671,3.5687s-3.5671-1.6008-3.5671-3.5687c0-1.971,1.5976-3.5686,3.5671-3.5686s3.5671,1.5976,3.5671,3.5686"/><path class="cls-1" d="m52.3152,93.4421c0-1.9726-1.5929-3.5702-3.5623-3.5702-1.971,0-3.5718,1.5976-3.5718,3.5702,0,1.9742,1.6008,3.564,3.5718,3.564,1.9694,0,3.5623-1.5897,3.5623-3.564"/><path class="cls-1" d="m3.5686,45.4463c1.971,0,3.5655,1.5913,3.5655,3.564,0,1.9742-1.5945,3.5702-3.5655,3.5702s-3.5686-1.596-3.5686-3.5702c0-1.9726,1.5976-3.564,3.5686-3.564"/><path class="cls-1" d="m94.2003,45.2574c-1.971,0-3.5639,1.596-3.5639,3.5703,0,1.971,1.5929,3.5717,3.5639,3.5717s3.5671-1.6008,3.5671-3.5717c0-1.9743-1.596-3.5703-3.5671-3.5703"/><path class="cls-1" d="m49.035,52.9194c-2.2909,0-4.15-1.8591-4.15-4.1547,0-2.2878,1.8592-4.1454,4.15-4.1454,2.2893,0,4.15,1.8576,4.15,4.1454,0,2.2955-1.8607,4.1547-4.15,4.1547m41.5585-7.1546c-1.7111-19.4833-19.2329-19.4927-19.2061-19.4865,11.719,1.949,15.8202,13.0803,12.8912,17.1783-2.8297,3.9688-14.4542,1.9569-14.4542,1.9569,0,0-5.0386-.6838-8.7837-.7831-4.1374-.1103-6.9356.1639-8.8279.6113.4081-1.8875.6444-4.5944.5404-8.5128-.0993-3.7435-.7783-8.79-.7783-8.79,0,0-2.012-11.6182,1.9521-14.4527,4.0996-2.921,15.2294,1.1786,17.183,12.8929.0047.0299-.0079-17.4918-19.4897-19.2077-.8256.7028-1.8875,1.1281-3.0566,1.1281-1.1454,0-2.1995-.4127-3.0203-1.0919-19.0832,1.9159-19.0895,19.2014-19.0832,19.1714,1.9505-11.7143,13.0803-15.8139,17.1815-12.8929,3.961,2.8344,1.9553,14.4527,1.9553,14.4527,0,0-.6838,5.0465-.7846,8.79-.104,4.024.1497,6.7733.5719,8.6609-1.886-.4254-4.6369-.6759-8.6593-.5688-3.7388.1009-8.7853.78-8.7853.78,0,0-11.6229,2.0151-14.4495-1.9569-2.9305-4.098,1.1738-15.2278,12.8881-17.18.0284-.0047-17.4934.0079-19.2061,19.4881.7027.8304,1.1249,1.8954,1.1249,3.0582,0,1.1533-.4112,2.2089-1.0887,3.0298,1.9143,19.0721,19.1982,19.08,19.1698,19.0784-11.7143-1.9584-15.8186-13.0803-12.8881-17.1845,2.8266-3.961,14.4495-1.9538,14.4495-1.9538,0,0,5.0465.6885,8.7853.7799,4.0728.1103,6.8458-.1465,8.7333-.5892-.3545,1.8654-.553,4.4682-.4585,8.1094.1024,3.7435.7862,8.7853.7862,8.7853,0,0,2.0041,11.6276-1.9584,14.4542-4.098,2.9195-15.2294-1.1675-17.1846-12.8833,0-.0315.0079,17.2555,19.0895,19.1698.8177-.6901,1.8655-1.1013,3.0203-1.1013,1.1628,0,2.2326.4317,3.055,1.1281,19.4849-1.7063,19.4975-19.2281,19.4928-19.1966-1.9537,11.7159-13.0834,15.8029-17.183,12.8833-3.9673-2.8266-1.9537-14.4542-1.9537-14.4542,0,0,.6775-5.0418.7768-8.7853.0993-3.7451-.1134-6.3936-.4853-8.2606,1.8875.4175,4.618.6585,8.5852.5499,3.7451-.0945,8.7837-.7799,8.7837-.7799,0,0,11.6245-2.0042,14.4542,1.9584,2.929,4.0949-1.1722,15.2278-12.8912,17.1815-.0268,0,17.2571,0,19.1761-19.0863-.6822-.8177-1.0934-1.8702-1.0934-3.0156,0-1.1675.4238-2.2373,1.1234-3.0629"/><path class="cls-1" d="m77.7995,77.9552h.4805c.5641,0,1.021-.1875,1.021-.6428,0-.4018-.2962-.6712-.939-.6712-.2694,0-.4553.0268-.5625.0536v1.2604Zm-.0268,2.4925h-1.0194v-4.3958c.4033-.0803.9658-.1355,1.689-.1355.8319,0,1.2069.1355,1.5283.323.2411.1875.4301.5357.4301.9642,0,.4837-.3766.8587-.9123,1.0178v.0552c.4286.1607.6696.4821.8035,1.0714.1339.6712.2143.939.323,1.0997h-1.0997c-.1355-.1607-.2143-.5625-.3498-1.073-.0788-.4821-.3482-.6964-.9107-.6964h-.4821v1.7693Zm-2.7084-2.3051c0,1.9569,1.4479,3.5104,3.4316,3.5104,1.9301,0,3.3512-1.5535,3.3512-3.4836,0-1.9569-1.4212-3.5387-3.378-3.5387s-3.4048,1.5819-3.4048,3.5119m7.9093,0c0,2.4925-1.9569,4.4494-4.5045,4.4494-2.5209,0-4.5297-1.9569-4.5297-4.4494,0-2.4405,2.0088-4.3974,4.5297-4.3974,2.5477,0,4.5045,1.9569,4.5045,4.3974"/></g></g></svg>