<svg id="Edit_Me" data-name="Edit Me" xmlns="http://www.w3.org/2000/svg" viewBox="0 0 444.26 34.41"><defs><style>.cls-1{fill:#16325a;}</style></defs><title>st-davids-healthcare_color</title><polygon class="cls-1" points="35.3 26.5 43.2 26.5 43.2 34.41 35.3 34.41 35.3 26.5 35.3 26.5"/><polygon class="cls-1" points="43.2 7.91 43.2 0 35.3 0 35.3 7.91 27.4 7.91 27.4 15.81 35.3 15.81 35.3 15.81 35.3 23.71 43.2 23.71 43.2 15.81 43.2 15.81 51.1 15.81 51.1 7.91 43.2 7.91 43.2 7.91"/><path class="cls-1" d="M34.75,111.88c0,1.2.12,4.62,5,4.62,0.7,0,4.41,0,4.41-3.38,0-1.4-.58-2.35-2.55-2.88l-7.3-1.9c-2.07-.54-7.38-1.94-7.38-8.17,0-4.83,3.63-9.33,12.54-9.33,11.63,0,12.13,6.31,12.17,9.48H43.29c0-.9,0-4.12-3.92-4.12-2.4,0-3.92,1.36-3.92,3.13,0,2.19,1.82,2.73,3,3.06L44,103.83c4,1,8.66,2.27,8.66,8.58C52.7,119,47,122,39.53,122c-3.09,0-8.08-.5-10.81-3.55a9.71,9.71,0,0,1-2.27-6.6h8.29Z" transform="translate(-26.46 -88.21)"/><path class="cls-1" d="M88.38,115.63h3.55c5.48,0,9-2.39,9-9.32,0-9-6.76-9-9.27-9l-3.26,0v18.4h0ZM79.92,91.58H92.5c3.55,0,8.25.37,11.35,2.47,4.42,3,5.61,7.92,5.61,12.33,0,6.6-2.11,11.47-8.13,13.82a25.55,25.55,0,0,1-8.74,1.15H79.92V91.58h0Z" transform="translate(-26.46 -88.21)"/><path class="cls-1" d="M118,114.64a2.67,2.67,0,0,0,2.85,2.81,3.32,3.32,0,0,0,3.05-2,8.69,8.69,0,0,0,.57-3.87c-3.3,0-6.47.08-6.47,3.05h0Zm6.72,6.72a13.64,13.64,0,0,1-.25-3c-0.95,1.41-2.56,3.39-6.8,3.39-5.08,0-7.3-2.77-7.3-6.44,0-5.65,5.24-7.72,14.15-7.34,0-2.23-.25-4.29-2.6-4.29-1.44,0-2.81.78-2.77,3.14h-7.42a6,6,0,0,1,1.61-4.33c1.61-1.65,4.83-2.6,8.58-2.6,1.85,0,5.82.25,8,2.39,1.32,1.28,1.82,3.22,1.82,5.45v9.65a17,17,0,0,0,.4,4h-7.42Z" transform="translate(-26.46 -88.21)"/><polygon class="cls-1" points="105.85 12.45 114.19 12.45 118.31 26.96 122.72 12.45 130.02 12.45 122.18 33.15 113.72 33.15 105.85 12.45 105.85 12.45"/><path class="cls-1" d="M157.71,100.66h7.76v20.7h-7.76v-20.7h0Zm-0.08-9h7.92v5.52h-7.92V91.66h0Z" transform="translate(-26.46 -88.21)"/><path class="cls-1" d="M183.54,110.93c0-3.47-1.11-6.18-3.84-6.18-3.46,0-3.91,4.37-3.91,6.31s0.41,6.23,3.83,6.23c2.8,0,3.92-2.81,3.92-6.35h0Zm7.67-19.35v24.63c0,1.74.08,3.43,0.21,5.16h-7.34l-0.16-3c-0.83,1.19-2.44,3.54-7,3.54-7.13,0-9.16-5.77-9.16-10.85,0-4.41,1.19-6.47,2.6-8a8.87,8.87,0,0,1,6.81-2.81,7.63,7.63,0,0,1,6.31,2.89V91.58h7.75Z" transform="translate(-26.46 -88.21)"/><polygon class="cls-1" points="177.21 3.37 172.3 14.34 166.73 14.34 169.5 3.37 177.21 3.37 177.21 3.37"/><path class="cls-1" d="M208.87,114.64a4.39,4.39,0,0,0,.33,1.85,2.25,2.25,0,0,0,2.27,1.29,2.1,2.1,0,0,0,2.35-2.11c0-1.44-1.2-1.86-2.93-2.3l-4.21-1.2c-1.28-.33-5-1.36-5-5.6a5.71,5.71,0,0,1,2.48-4.71c1.81-1.28,4.29-1.77,7.34-1.77,4.46,0,9.11,1.19,9.44,7h-7.33a4.79,4.79,0,0,0-.3-2,2.09,2.09,0,0,0-2.15-1.11c-1.19,0-2.3.53-2.3,1.81s0.86,1.65,2.1,2l5.53,1.52c2,0.54,4.87,1.66,4.87,5.7,0,7-8.13,7-9.94,7-4.2,0-10.27-.62-10.19-7.3h7.67Z" transform="translate(-26.46 -88.21)"/><path class="cls-1" d="M277.12,109.27c0,0.81,0,.81,1.1.86H280c2.63,0,3.06,0,3.44-1.48l0.29-1.15a1.08,1.08,0,0,1,1.34.09c0,1.1-.14,2.3-0.14,3.49s0.09,2.48.14,3.59a1.08,1.08,0,0,1-1.34.1l-0.29-1.15c-0.38-1.44-.81-1.48-3.44-1.48h-1.77c-1.05,0-1.1,0-1.1,1v3c0,1.44.09,2.73,0.53,3.25s1.53,0.72,4.5.72c3.87,0,4.68-1,5.78-3.54a1.36,1.36,0,0,1,1.34.19,34.47,34.47,0,0,1-1.43,5.31c-3-.1-5.55-0.1-8.13-0.14h-5.12c-1.91,0-3.73,0-6,.14a1,1,0,0,1,0-1.39l1.48-.14c1.77-.19,1.91-0.86,1.91-4V106.5c0-3.15-.14-3.83-1.91-4.07l-0.58-.09a1,1,0,0,1,.05-1.39c0.67,0,1.48.1,2.35,0.1s1.76,0.05,2.72.05h7.7a40.41,40.41,0,0,0,4.45-.15,49,49,0,0,1,.53,5,1,1,0,0,1-1.34.14,11.33,11.33,0,0,0-.86-2c-0.57-1-1.81-1.15-4.15-1.15h-2.54c-1.19,0-1.24.14-1.24,2.44v3.92h0Z" transform="translate(-26.46 -88.21)"/><path class="cls-1" d="M244.31,106.55c-2.44,0-2.58.09-2.58,1.38v7c0,5.07.43,5.21,2.68,5.46l1.44,0.19a1,1,0,0,1-.1,1.39c-2.49-.1-4.63-0.14-6.74-0.14s-4.26,0-6.07.14a1,1,0,0,1-.09-1.39l0.67-.09c2.25-.34,2.68-0.48,2.68-5.55V97.18c0-5.07-.43-5.21-2.68-5.5l-1.05-.14a1,1,0,0,1,.09-1.39c2.11,0.1,4.35.14,6.45,0.14s4.26,0,6.12-.14a1,1,0,0,1,.1,1.39l-0.82.14c-2.24.29-2.68,0.43-2.68,5.5V103c0,1.33.14,1.43,2.58,1.43H255.5c2.43,0,2.58-.09,2.58-1.43V97.18c0-5.07-.43-5.21-2.68-5.5l-1.05-.14a1,1,0,0,1,.1-1.39q3.3,0.14,6.45.14c2.11,0,4.26,0,6.17-.14a1,1,0,0,1,.1,1.39l-0.86.14c-2.25.29-2.68,0.43-2.68,5.5V115c0,5.07.43,5.21,2.68,5.5l1,0.14a1,1,0,0,1-.1,1.39c-2.1-.1-4.25-0.14-6.36-0.14s-4.35,0-6.45.14a1,1,0,0,1-.1-1.39l1.05-.14c2.25-.29,2.68-0.43,2.68-5.5v-7c0-1.29-.15-1.38-2.58-1.38H244.31Z" transform="translate(-26.46 -88.21)"/><path class="cls-1" d="M299.47,113.2c1.48,0,1.62,0,1.2-1.1-0.86-2.06-1.77-4.45-2.25-5.54-0.77,1.72-1.29,2.92-2.34,5.78-0.33.77-.38,0.86,0.86,0.86h2.53ZM296,115c-1,0-1,0-1.39,1l-0.87,2.3c-0.62,1.68-.47,2,0.53,2.15l1.15,0.14a1,1,0,0,1-.19,1.39c-1.58-.1-2.77-0.14-4.07-0.14a27.52,27.52,0,0,0-3.3.14,0.92,0.92,0,0,1-.14-1.39l0.86-.14c1.72-.29,1.91-0.77,3.39-4.25l4.64-10.72a5,5,0,0,0,.67-2.63,7.33,7.33,0,0,0,3.16-2.24,0.7,0.7,0,0,1,.48-0.1,0.93,0.93,0,0,1,.58.62c0.19,0.43.52,1.43,2.25,5.64l4.59,11.33c0.81,2,1.15,2.25,2.87,2.44l0.48,0a0.91,0.91,0,0,1-.14,1.39c-1.44-.1-3-0.14-4.93-0.14s-3.25,0-4.78.14a0.87,0.87,0,0,1-.14-1.39l0.81-.19c0.86-.19,1.15-0.38.81-1.29l-1.1-3.11c-0.38-1-.43-1-1.72-1H296Z" transform="translate(-26.46 -88.21)"/><path class="cls-1" d="M319.09,115.83c0,1.48.1,2.92,0.58,3.49,0.39,0.39,1.15.72,3.78,0.72,3.63,0,4.4-.24,5.83-3.69a1.09,1.09,0,0,1,1.34.19,20.87,20.87,0,0,1-1.39,5.45c-1.29,0-2.68-.1-4.07-0.1s-2.63,0-3.82,0h-4.78q-2.87,0-5.46.14a1,1,0,0,1,0-1.39l1-.09c1.77-.24,1.91-0.91,1.91-4.06V106.5c0-3.15-.14-3.83-1.91-4l-1.1-.14a1,1,0,0,1,0-1.39c1.87,0.1,3.68.15,5.6,0.15s3.63-.05,5.35-0.15a1,1,0,0,1,0,1.39l-1,.09c-1.77.24-1.92,0.91-1.92,4.07v9.33h0Z" transform="translate(-26.46 -88.21)"/><path class="cls-1" d="M334.15,104.26c-0.09-1.29,0-1.34-1.1-1.34h-1.48a4.16,4.16,0,0,0-3.15.9,7.15,7.15,0,0,0-1.34,2.3,0.92,0.92,0,0,1-1.29-.19,51.94,51.94,0,0,0,1.29-5.64,0.75,0.75,0,0,1,1.05,0c0.1,0.72.71,0.81,2.2,0.81h13.87c1.62,0,2.1-.05,2.43-0.91a0.86,0.86,0,0,1,1.06.1,37.53,37.53,0,0,0-.48,5.78,1,1,0,0,1-1.29.1,3.84,3.84,0,0,0-1.06-2.49c-0.57-.53-1.67-0.77-3.4-0.77h-1.24c-0.81,0-.91.05-0.91,1.34v12.19c0,3.16.15,3.82,1.91,4l1.3,0.14a1,1,0,0,1-.05,1.39c-2-.1-3.87-0.14-5.68-0.14s-3.73,0-6,.14a1,1,0,0,1,0-1.39l1.49-.14c1.77-.19,1.91-0.86,1.91-4V104.26h0Z" transform="translate(-26.46 -88.21)"/><path class="cls-1" d="M364.45,110c1.53,0,1.72,0,1.72-1.1V106.5c0-3.15-.14-3.83-1.91-4.07l-0.77-.09a1,1,0,0,1,.05-1.39c1.53,0.1,3.35.15,5.26,0.15s3.63-.05,5.16-0.15a1,1,0,0,1,0,1.39l-0.77.09c-1.77.24-1.91,0.91-1.91,4.07v9.95c0,3.16.14,3.82,1.91,4.06l1,0.09a1,1,0,0,1,0,1.39c-1.72-.1-3.54-0.14-5.35-0.14s-3.73,0-5.22.14a1,1,0,0,1,0-1.39l0.71-.09c1.77-.24,1.91-0.91,1.91-4.06v-3.3c0-1.05-.09-1.1-1.72-1.1H358c-1.63,0-1.72,0-1.72,1.1v3.3c0,3.16.14,3.82,1.91,4.06l1,0.09a1,1,0,0,1,0,1.39c-1.72-.1-3.53-0.14-5.36-0.14s-3.73,0-5.17.14a1,1,0,0,1,0-1.39l0.67-.09c1.77-.24,1.91-0.91,1.91-4.06V106.5c0-3.15-.14-3.83-1.91-4.07l-1-.09a1,1,0,0,1,.06-1.39q2.58,0.14,5.44.15c1.82,0,3.64-.05,5.07-0.15a1,1,0,0,1,0,1.39l-0.67.09c-1.77.24-1.91,0.91-1.91,4.07v2.44c0,1.1.19,1.1,1.72,1.1h6.4Z" transform="translate(-26.46 -88.21)"/><path class="cls-1" d="M405,98.33a1.23,1.23,0,0,1-1.53.09c-0.81-3-3-7-9.27-7-6.08,0-12.19,4.31-12.19,14.11,0,10.18,6.36,15.16,12.53,15.16s8.65-4,10-7.13a1,1,0,0,1,1.43.2,18.45,18.45,0,0,1-2.3,7.27,17,17,0,0,0-1.67.43,28.4,28.4,0,0,1-7.46,1.15,21.77,21.77,0,0,1-12.25-3.21,15.06,15.06,0,0,1-6.79-13.15,15.6,15.6,0,0,1,6-12.67,22.16,22.16,0,0,1,13.19-4.06,36.83,36.83,0,0,1,8.27,1.05c0.58,0.14.91,0.19,1.34,0.29,0.09,1.1.19,3.92,0.67,7.46h0Z" transform="translate(-26.46 -88.21)"/><path class="cls-1" d="M416.06,113.2c1.49,0,1.63,0,1.2-1.1-0.86-2.06-1.77-4.45-2.25-5.54-0.77,1.72-1.29,2.92-2.34,5.78-0.33.77-.38,0.86,0.86,0.86h2.53ZM412.62,115c-1,0-1,0-1.39,1l-0.86,2.3c-0.62,1.68-.48,2,0.52,2.15l1.15,0.14a1,1,0,0,1-.19,1.39c-1.57-.1-2.77-0.14-4.06-0.14a27.5,27.5,0,0,0-3.3.14,0.91,0.91,0,0,1-.15-1.39l0.86-.14c1.72-.29,1.91-0.77,3.4-4.25l4.64-10.72a5,5,0,0,0,.67-2.63,7.35,7.35,0,0,0,3.16-2.24,0.7,0.7,0,0,1,.48-0.1,0.92,0.92,0,0,1,.58.62c0.18,0.43.52,1.43,2.24,5.64L425,118.12c0.81,2,1.15,2.25,2.87,2.44l0.48,0a0.91,0.91,0,0,1-.14,1.39c-1.44-.1-3-0.14-4.92-0.14s-3.25,0-4.78.14a0.87,0.87,0,0,1-.15-1.39l0.82-.19c0.86-.19,1.15-0.38.81-1.29l-1.1-3.11c-0.38-1-.43-1-1.72-1h-4.5Z" transform="translate(-26.46 -88.21)"/><path class="cls-1" d="M436,110a1.31,1.31,0,0,0,.29,1.05,5.83,5.83,0,0,0,2.1.19c2.68,0,3.83-1.91,3.83-4a4.19,4.19,0,0,0-4.4-4.49c-1.63,0-1.82,0-1.82,1.15V110h0Zm-5.17-3c0-3.87-.19-4.07-1.82-4.35l-0.57-.09a0.88,0.88,0,0,1,.1-1.39c1.81-.14,5.17-0.29,8.65-0.29,3.11,0,5.4.24,7.22,1.05a5.25,5.25,0,0,1,3.3,4.92c0,2.67-1.87,4.06-3.68,4.83-0.39.19-.43,0.53-0.05,1.15,2,3.4,3.92,5.88,5.4,7a4.42,4.42,0,0,0,2.3,1,0.62,0.62,0,0,1,0,.91,9.23,9.23,0,0,1-9.7-3.11,48.88,48.88,0,0,1-3.06-4.92,2.07,2.07,0,0,0-2.06-1.05c-0.81,0-.91.1-0.91,0.81v2.87c0,3.16.14,3.82,1.92,4.06l1,0.09a1,1,0,0,1-.05,1.39c-1.72-.1-3.54-0.14-5.36-0.14s-3.73,0-5.45.14a1,1,0,0,1,0-1.39l1-.09c1.77-.24,1.91-0.91,1.91-4.06v-9.37h0Z" transform="translate(-26.46 -88.21)"/><path class="cls-1" d="M458.58,109.27c0,0.81,0,.81,1.09.86h1.78c2.62,0,3.06,0,3.44-1.48l0.29-1.15a1.08,1.08,0,0,1,1.33.09c0,1.1-.14,2.3-0.14,3.49s0.1,2.48.14,3.59a1.08,1.08,0,0,1-1.33.1l-0.29-1.15c-0.38-1.44-.82-1.48-3.44-1.48h-1.78c-1,0-1.09,0-1.09,1v3c0,1.44.09,2.73,0.52,3.25s1.53,0.72,4.49.72c3.88,0,4.69-1,5.79-3.54a1.36,1.36,0,0,1,1.34.19,33.75,33.75,0,0,1-1.44,5.31c-3-.1-5.54-0.1-8.13-0.14H456c-1.92,0-3.73,0-6,.14a1,1,0,0,1-.05-1.39l1.48-.14c1.77-.19,1.91-0.86,1.91-4V106.5c0-3.15-.14-3.83-1.91-4.07l-0.58-.09A1,1,0,0,1,451,101c0.67,0,1.48.1,2.34,0.1s1.77,0.05,2.73.05h7.7a40.32,40.32,0,0,0,4.44-.15,47.66,47.66,0,0,1,.53,5,1,1,0,0,1-1.34.14,11.42,11.42,0,0,0-.86-2c-0.57-1-1.81-1.15-4.16-1.15h-2.54c-1.19,0-1.24.14-1.24,2.44v3.92h0Z" transform="translate(-26.46 -88.21)"/></svg>