<svg id="Layer_1" data-name="Layer 1" xmlns="http://www.w3.org/2000/svg" width="438.62" height="48" viewBox="0 0 438.62 48"><defs><style>.cls-1{fill:#cf0a2c;}.cls-2{fill:#0d2240;}.cls-3{fill:#231f20;}</style></defs><g id="Layer_2" data-name="Layer 2"><g id="Layer_1-2" data-name="Layer 1-2"><path class="cls-1" d="M22.42,39.17a3.31,3.31,0,0,1-3.31-3.31h0v-4.4A2.14,2.14,0,0,0,17,29.34H12.59A3.31,3.31,0,0,1,9.28,26V22.82a3.31,3.31,0,0,1,3.31-3.31h3.2a3.32,3.32,0,0,1,3.31,3.33h0v4.37a2.13,2.13,0,0,0,2.13,2.13H26.8a2.1,2.1,0,0,0,2.11-2.11h0V22.91a3.33,3.33,0,0,1,3.26-3.4H35.4a3.35,3.35,0,0,1,3.31,3.31V26a3.29,3.29,0,0,1-3.27,3.31H31a2.1,2.1,0,0,0-2.11,2.11h0v4.42a3.31,3.31,0,0,1-3.31,3.31h0Z"/><rect class="cls-1" x="19.1" y="8.83" width="9.82" height="9.82" rx="3.31"/><path class="cls-1" d="M24,0A24,24,0,1,0,48,24,24,24,0,0,0,24,0Zm0,44.9A20.9,20.9,0,1,1,44.9,24,20.9,20.9,0,0,1,24,44.9Z"/><path class="cls-2" d="M57,36l1.33-.15c.84-.1,1.33-.73,1.48-1.89.07-.59.12-1.26.15-2s0-1.83,0-3.28V15.18A5.83,5.83,0,0,0,60,14a1,1,0,0,0-.37-.59,1.75,1.75,0,0,0-.83-.28A9,9,0,0,0,57,13V11.67h9l7.18,17.84h.07l7.14-17.84h8.7V13a13.22,13.22,0,0,0-1.78.15,1.86,1.86,0,0,0-.83.28,1,1,0,0,0-.37.59,6.07,6.07,0,0,0-.09,1.2V33.77a6.07,6.07,0,0,0,.09,1.2,1,1,0,0,0,.37.59,1.75,1.75,0,0,0,.83.28c.37,0,1,.1,1.78.15v1.3H78V36a11.87,11.87,0,0,0,1.78-.15,1.75,1.75,0,0,0,.83-.28A1,1,0,0,0,81,35a6.07,6.07,0,0,0,.09-1.2V15.22H81L72.6,36.69H70.74L62.23,15.22h-.11v13.4c0,1.26,0,2.3.06,3.11s.1,1.57.17,2.27a2.34,2.34,0,0,0,.44,1.35,1.66,1.66,0,0,0,1.15.5l2,.19v1.3H57Z"/><path class="cls-2" d="M105.05,32.39a8.6,8.6,0,0,1-2.83,3.92,8,8,0,0,1-4.94,1.41,10.78,10.78,0,0,1-4.09-.7,6.82,6.82,0,0,1-2.77-2,8.26,8.26,0,0,1-1.55-3,13.85,13.85,0,0,1-.5-3.79,12.45,12.45,0,0,1,.54-3.74,8.39,8.39,0,0,1,1.61-3,8,8,0,0,1,2.83-2.07,9.64,9.64,0,0,1,3.9-.74,9.74,9.74,0,0,1,4.29.81A6.13,6.13,0,0,1,104,21.57,7,7,0,0,1,105.07,24a11.59,11.59,0,0,1,.24,2.27,1.4,1.4,0,0,1-.44,1.19,2.27,2.27,0,0,1-1.37.33h-10a14.6,14.6,0,0,0,.26,2.87A8.15,8.15,0,0,0,94.63,33a4.22,4.22,0,0,0,1.59,1.63,4.79,4.79,0,0,0,2.46.59,4.89,4.89,0,0,0,3-.92,7.47,7.47,0,0,0,2.07-2.63Zm-6-6.21a1.27,1.27,0,0,0,.94-.26,1.47,1.47,0,0,0,.24-1,11,11,0,0,0-.11-1.52,5.41,5.41,0,0,0-.44-1.52,3.07,3.07,0,0,0-.94-1.2,2.5,2.5,0,0,0-1.54-.46,2.66,2.66,0,0,0-1.74.57,3.88,3.88,0,0,0-1.09,1.48,8.37,8.37,0,0,0-.55,1.91,12.18,12.18,0,0,0-.17,2Z"/><path class="cls-2" d="M153.07,32.21a8.58,8.58,0,0,1-1.29,2.67,6.6,6.6,0,0,1-1.87,1.7,7.53,7.53,0,0,1-2.18.89,10.56,10.56,0,0,1-2.31.26A8.42,8.42,0,0,1,139,35.34c-1.53-1.59-2.3-3.93-2.29-7a10,10,0,0,1,2.37-7A8.83,8.83,0,0,1,146,18.7a11.88,11.88,0,0,1,2.59.28,8.43,8.43,0,0,1,2.22.8,3.23,3.23,0,0,1,2.07,2.81A1.77,1.77,0,0,1,152,24.2a3.64,3.64,0,0,1-1.9.54,1.45,1.45,0,0,1-1.52-1.15,7.41,7.41,0,0,0-1.18-2.51,2.13,2.13,0,0,0-1.7-.81,3.07,3.07,0,0,0-2.67,1.8A11.26,11.26,0,0,0,142,27.58a10.27,10.27,0,0,0,1.31,5.66,4.14,4.14,0,0,0,3.65,2,4.72,4.72,0,0,0,2.89-.85,7.54,7.54,0,0,0,2.07-2.74Z"/><path class="cls-2" d="M172.39,36.61a15.19,15.19,0,0,1-2.48.78,11.35,11.35,0,0,1-2.59.33,2.38,2.38,0,0,1-1.7-.56,4.72,4.72,0,0,1-1-1.63l-.26.19a16.48,16.48,0,0,1-2.5,1.46,6,6,0,0,1-2.54.54,5.37,5.37,0,0,1-4.07-1.55,5.25,5.25,0,0,1-1.48-3.77,4.29,4.29,0,0,1,.89-2.78,6.29,6.29,0,0,1,3-1.81l1-.33c1.53-.47,2.73-.86,3.59-1.17a13,13,0,0,0,2.3-1.06V23.33a3.19,3.19,0,0,0-.72-2.37,2.45,2.45,0,0,0-1.75-.7,2.84,2.84,0,0,0-1.93.79,6.62,6.62,0,0,0-1.56,2.87c-.27.89-.75,1.33-1.44,1.33a3.62,3.62,0,0,1-1.83-.57,1.73,1.73,0,0,1-1-1.54c0-1.19.75-2.21,2.26-3.07a9.84,9.84,0,0,1,2.68-1,14.78,14.78,0,0,1,3.31-.35,11.22,11.22,0,0,1,3.55.46,4.6,4.6,0,0,1,2,1.24,3.87,3.87,0,0,1,.87,1.65,8.21,8.21,0,0,1,.2,1.91v8.51a4.8,4.8,0,0,0,.35,2.15,1.49,1.49,0,0,0,.87.78,5,5,0,0,0,1.22.15h.59Zm-7.88-9.7c-.27.15-.8.38-1.59.71s-1.57.66-2,.89a4.15,4.15,0,0,0-1.65,1.28,3.51,3.51,0,0,0-.5,2,3.56,3.56,0,0,0,.82,2.46,2.75,2.75,0,0,0,2.15.91,3,3,0,0,0,1.93-.7,2.86,2.86,0,0,0,.89-2.26Z"/><path class="cls-2" d="M180.39,34.06c0,.82.13,1.33.41,1.54a4.63,4.63,0,0,0,2.14.39v1.3H173V36a4.63,4.63,0,0,0,2.14-.39c.27-.21.41-.72.41-1.54V14a3.14,3.14,0,0,0-.2-1.39,1,1,0,0,0-.8-.43L173.2,12V10.78l6.92-1,.26.22Z"/><path class="cls-2" d="M210.36,36.06a12.5,12.5,0,0,1-3.89,1.31,24.38,24.38,0,0,1-4.59.46q-6.62,0-10-3.15-3.58-3.43-3.59-9.88t3.29-10q3.53-3.73,10.7-3.74a25.87,25.87,0,0,1,4.31.39,11.24,11.24,0,0,1,3.61,1.17V19h-1.3a14,14,0,0,0-.83-2.44,7.63,7.63,0,0,0-1.32-2,5.68,5.68,0,0,0-2-1.39,7.22,7.22,0,0,0-2.79-.5,6.56,6.56,0,0,0-4,1.19,7.79,7.79,0,0,0-2.46,3,14.06,14.06,0,0,0-1.19,3.74,21.09,21.09,0,0,0-.33,3.72,23.27,23.27,0,0,0,.33,3.91,14.61,14.61,0,0,0,1.2,3.87,7.66,7.66,0,0,0,2.5,3,6.78,6.78,0,0,0,4.11,1.19,7,7,0,0,0,2.79-.52,5.56,5.56,0,0,0,2-1.46,9.14,9.14,0,0,0,1.43-2.2,24.61,24.61,0,0,0,1.11-2.89h1.29Z"/><path class="cls-2" d="M219.5,34.06c0,.82.13,1.33.41,1.54a4.67,4.67,0,0,0,2.15.39v1.3h-10V36a4.63,4.63,0,0,0,2.14-.39c.27-.21.4-.72.4-1.54V22.88a3,3,0,0,0-.2-1.35,1,1,0,0,0-.76-.42l-1.33-.19V19.74l6.88-1,.26.22Zm-4.7-18.41a2.83,2.83,0,0,1-.81-2.06,2.82,2.82,0,0,1,.81-2.05,3.25,3.25,0,0,1,4.34,0,2.82,2.82,0,0,1,.81,2.05,3,3,0,0,1-.87,2.06A3.17,3.17,0,0,1,214.8,15.65Z"/><path class="cls-2" d="M245.45,19.14v1.3l1.67.18a.58.58,0,0,1,.63.54.28.28,0,0,1,0,.13,2.25,2.25,0,0,1-.08.52c-.45,1.46-1,3.19-1.67,5.19s-1.33,3.94-2,5.83h-.08q-.3-.86-.93-2.55c-1.45-3.87-2.48-6.69-3.07-8.44a3,3,0,0,1-.11-.67c0-.32.2-.5.59-.55l1.45-.15v-1.3H229.68V14.48h-1.77L225,19.14h-2.5v1.7h2.33v12.3a5.18,5.18,0,0,0,.4,2.13,3.8,3.8,0,0,0,1.07,1.44,4.33,4.33,0,0,0,1.43.78,4.76,4.76,0,0,0,1.5.24,8.18,8.18,0,0,0,2.68-.52,14,14,0,0,0,2.8-1.37l-.37-1a6.18,6.18,0,0,1-2.29.4,2,2,0,0,1-1.72-.87,4.41,4.41,0,0,1-.65-2.65V20.85h4.14c.54,0,.7.45,1.06,1.34h0c.59,1.41,1.11,2.67,1.55,3.78L238,30c.6,1.52,1.13,2.83,1.55,3.94L241,37.65a4.77,4.77,0,0,1,.26,1.19A6.57,6.57,0,0,1,241,41a4.74,4.74,0,0,1-.67,1.28,1.08,1.08,0,0,1-.85.46,2.19,2.19,0,0,1-1.33-.63,4.82,4.82,0,0,0-.78-.56,1.69,1.69,0,0,0-.7-.15,1.88,1.88,0,0,0-1.42.85,2.77,2.77,0,0,0-.69,1.78,1.93,1.93,0,0,0,.81,1.59,3.2,3.2,0,0,0,2,.63A4.52,4.52,0,0,0,239,46a4.15,4.15,0,0,0,1.44-1,8.22,8.22,0,0,0,1.41-2,22.62,22.62,0,0,0,1.4-3.24q1-2.7,1.81-4.85t1.74-4.53c.62-1.59,1.18-3,1.68-4.24l1.43-3.48a7.37,7.37,0,0,1,.91-1.65,1.67,1.67,0,0,1,1.16-.54l.78-.07V19.1Z"/><path class="cls-2" d="M131.31,16.48a2.88,2.88,0,0,0,2.13-.83,3,3,0,0,0,.87-2.06,2.82,2.82,0,0,0-.81-2.05,3.24,3.24,0,0,0-4.33,0,3,3,0,0,0,0,4.11A2.89,2.89,0,0,0,131.31,16.48Z"/><path class="cls-2" d="M134.27,35.6c-.27-.21-.41-.72-.41-1.54V18.92l-.26-.22-6.88,1v1.19l1.33.19a1,1,0,0,1,.76.42,3,3,0,0,1,.2,1.35V34.06c0,.82-.14,1.36-.41,1.56a3.89,3.89,0,0,1-2.15.39,4.25,4.25,0,0,1-2.22-.39c-.27-.21-.41-.75-.41-1.56V10l-.26-.22-6.92,1V12l1.33.22a1,1,0,0,1,.8.43A3.29,3.29,0,0,1,119,14v5.22a9.22,9.22,0,0,0-3.29-.52,9.68,9.68,0,0,0-7,2.44,8.92,8.92,0,0,0-2,3.13,11.57,11.57,0,0,0-.72,4.28,10.33,10.33,0,0,0,2,6.66,6.69,6.69,0,0,0,5.53,2.52A9.12,9.12,0,0,0,119,35.36V37.1l.11.19h17.32V36A4.72,4.72,0,0,1,134.27,35.6ZM119,31.43a5.49,5.49,0,0,1-.22,1.66,3.05,3.05,0,0,1-3.26,2.07,3.61,3.61,0,0,1-3.24-1.9,10.24,10.24,0,0,1-1.17-5.35,10.54,10.54,0,0,1,1.26-5.72,3.82,3.82,0,0,1,3.33-1.94,3.37,3.37,0,0,1,1.83.48A3.15,3.15,0,0,1,118.69,22a5.25,5.25,0,0,1,.3,2.15Z"/><path class="cls-2" d="M268.86,24.33v9a6.07,6.07,0,0,0,.09,1.2,1,1,0,0,0,.37.59,1.75,1.75,0,0,0,.83.28c.37,0,1,.1,1.78.15v1.29H260.7V35.56q1.21-.08,1.77-.15a1.75,1.75,0,0,0,.83-.28,1,1,0,0,0,.37-.59,6.07,6.07,0,0,0,.09-1.2V14.8a6.07,6.07,0,0,0-.09-1.2,1,1,0,0,0-.37-.59,1.86,1.86,0,0,0-.83-.28c-.37-.05-1-.1-1.77-.15V11.29h11.23v1.29a10.6,10.6,0,0,0-1.78.15,1.86,1.86,0,0,0-.83.28,1,1,0,0,0-.37.59,6.07,6.07,0,0,0-.09,1.2v7.9h10.85V14.8a6.07,6.07,0,0,0-.09-1.2,1,1,0,0,0-.37-.59,1.86,1.86,0,0,0-.83-.28c-.37-.05-1-.1-1.77-.15V11.29h11.23v1.29a10.6,10.6,0,0,0-1.78.15,1.91,1.91,0,0,0-.83.28,1,1,0,0,0-.37.59,6.07,6.07,0,0,0-.09,1.2V33.34a6.07,6.07,0,0,0,.09,1.2,1,1,0,0,0,.37.59,1.75,1.75,0,0,0,.83.28c.37,0,1,.1,1.78.15v1.29H276.65V35.56q1.22-.08,1.77-.15a1.75,1.75,0,0,0,.83-.28,1,1,0,0,0,.37-.59,6.07,6.07,0,0,0,.09-1.2v-9Z"/><path class="cls-2" d="M303.83,32A8.59,8.59,0,0,1,301,35.89a8,8,0,0,1-4.93,1.4,10.92,10.92,0,0,1-4.08-.7,6.91,6.91,0,0,1-2.77-2,8.26,8.26,0,0,1-1.55-3,13.77,13.77,0,0,1-.5-3.78,12.74,12.74,0,0,1,.53-3.73,8.24,8.24,0,0,1,1.61-3A7.77,7.77,0,0,1,292.14,19a9.64,9.64,0,0,1,3.9-.74,9.74,9.74,0,0,1,4.29.81,6,6,0,0,1,2.47,2,7.15,7.15,0,0,1,1,2.44,12.41,12.41,0,0,1,.24,2.27,1.39,1.39,0,0,1-.45,1.18,2.27,2.27,0,0,1-1.37.33h-9.93a14.43,14.43,0,0,0,.26,2.86,7.84,7.84,0,0,0,.83,2.35A4.16,4.16,0,0,0,295,34.23a4.78,4.78,0,0,0,2.45.59,4.89,4.89,0,0,0,3-.92,7.35,7.35,0,0,0,2.07-2.62Zm-6.06-6.21a1.27,1.27,0,0,0,.94-.26,1.42,1.42,0,0,0,.24-1,10.84,10.84,0,0,0-.11-1.51,5.71,5.71,0,0,0-.45-1.51,3,3,0,0,0-.94-1.2,2.45,2.45,0,0,0-1.53-.46,2.63,2.63,0,0,0-1.73.57,3.88,3.88,0,0,0-1.09,1.48,8.43,8.43,0,0,0-.55,1.9,12.18,12.18,0,0,0-.17,2Z"/><path class="cls-2" d="M323.28,36.18a15.39,15.39,0,0,1-2.47.78,11.19,11.19,0,0,1-2.58.33,2.38,2.38,0,0,1-1.7-.55,4.68,4.68,0,0,1-1-1.62l-.26.19a16.38,16.38,0,0,1-2.49,1.46,6,6,0,0,1-2.53.53,5.37,5.37,0,0,1-4.07-1.55A5.3,5.3,0,0,1,304.67,32a4.26,4.26,0,0,1,.89-2.77,6.21,6.21,0,0,1,3-1.81l1-.33c1.53-.47,2.72-.85,3.58-1.16a13.69,13.69,0,0,0,2.29-1v-2a3.16,3.16,0,0,0-.72-2.36,2.43,2.43,0,0,0-1.75-.7,2.81,2.81,0,0,0-1.92.79,6.56,6.56,0,0,0-1.55,2.86c-.27.89-.75,1.33-1.44,1.33a3.62,3.62,0,0,1-1.83-.57,1.72,1.72,0,0,1-1-1.53q0-1.77,2.25-3.06a9.53,9.53,0,0,1,2.68-1,14.63,14.63,0,0,1,3.3-.35,11.22,11.22,0,0,1,3.55.46,4.52,4.52,0,0,1,2,1.2,3.83,3.83,0,0,1,.87,1.64,8.07,8.07,0,0,1,.2,1.9V32a4.76,4.76,0,0,0,.35,2.14,1.49,1.49,0,0,0,.87.78,5,5,0,0,0,1.22.15h.59Zm-7.86-9.68c-.27.15-.8.38-1.59.7s-1.56.66-2,.88a4.12,4.12,0,0,0-1.64,1.28,3.51,3.51,0,0,0-.5,2,3.55,3.55,0,0,0,.81,2.46,2.73,2.73,0,0,0,2.14.91,3,3,0,0,0,1.92-.7,2.85,2.85,0,0,0,.89-2.25Z"/><path class="cls-2" d="M330.89,33.64c0,.81.13,1.32.41,1.53a4.63,4.63,0,0,0,2.14.39v1.29H323.5V35.56a4.63,4.63,0,0,0,2.14-.39c.27-.21.41-.72.41-1.53v-20a3.1,3.1,0,0,0-.21-1.38,1,1,0,0,0-.8-.42l-1.33-.22V10.41l6.91-1,.26.22Z"/><path class="cls-2" d="M344.44,20.45H340.3V31.31A4.41,4.41,0,0,0,341,34a2,2,0,0,0,1.72.87,6.18,6.18,0,0,0,2.29-.4l.37,1a13.63,13.63,0,0,1-2.79,1.37,7.93,7.93,0,0,1-2.68.52,4.76,4.76,0,0,1-1.5-.24,4.29,4.29,0,0,1-1.42-.78,3.7,3.7,0,0,1-1.07-1.44,5,5,0,0,1-.41-2.12V20.45h-2.33v-1.7h2.47l2.92-4.65h1.77v4.65h4.14Z"/><path class="cls-2" d="M345.29,35.56a4.47,4.47,0,0,0,2.1-.39c.27-.21.41-.72.41-1.53v-20a3.1,3.1,0,0,0-.2-1.38,1,1,0,0,0-.79-.42l-1.33-.22V10.41l6.91-1,.26.22V21A23.16,23.16,0,0,1,356,19a7,7,0,0,1,3-.65,5.43,5.43,0,0,1,4.15,1.51,6.11,6.11,0,0,1,1.46,4.25v9.57c0,.81.14,1.32.41,1.53a4.6,4.6,0,0,0,2.1.39v1.29h-9.6V35.56l.92-.07a1.51,1.51,0,0,0,1.07-.41,2.29,2.29,0,0,0,.26-1.29V24.66q0-3.8-3.25-3.8a3.76,3.76,0,0,0-2.09.57A3.93,3.93,0,0,0,353,22.89a4.81,4.81,0,0,0-.41,2.21v8.68a2.08,2.08,0,0,0,.28,1.29,1.5,1.5,0,0,0,1,.41l.92.07v1.29h-9.6Z"/><path class="cls-2" d="M383,31.79a8.42,8.42,0,0,1-1.29,2.66,6.56,6.56,0,0,1-1.86,1.7,7.53,7.53,0,0,1-2.18.89,10.56,10.56,0,0,1-2.31.26A8.37,8.37,0,0,1,369,34.91q-2.29-2.38-2.29-7a10,10,0,0,1,2.36-7,8.81,8.81,0,0,1,6.83-2.62,11.88,11.88,0,0,1,2.59.28,8.77,8.77,0,0,1,2.22.79,3.23,3.23,0,0,1,2.07,2.81,1.73,1.73,0,0,1-.91,1.61,3.64,3.64,0,0,1-1.9.54,1.44,1.44,0,0,1-1.51-1.15,7.41,7.41,0,0,0-1.18-2.51,2.13,2.13,0,0,0-1.7-.81,3.07,3.07,0,0,0-2.64,1.81,11.2,11.2,0,0,0-1,5.5,10.24,10.24,0,0,0,1.31,5.65,4.12,4.12,0,0,0,3.64,2,4.69,4.69,0,0,0,2.88-.85,7.22,7.22,0,0,0,2.07-2.73Z"/><path class="cls-2" d="M402.28,36.18a15.39,15.39,0,0,1-2.47.78,11.35,11.35,0,0,1-2.59.33,2.38,2.38,0,0,1-1.7-.55,4.68,4.68,0,0,1-1-1.62l-.26.19a17.25,17.25,0,0,1-2.49,1.46,6,6,0,0,1-2.53.53,5.34,5.34,0,0,1-4.06-1.55A5.26,5.26,0,0,1,383.67,32a4.25,4.25,0,0,1,.88-2.77,6.29,6.29,0,0,1,3-1.81l1-.33c1.53-.47,2.72-.85,3.58-1.16a13.69,13.69,0,0,0,2.29-1v-2a3.16,3.16,0,0,0-.72-2.36,2.43,2.43,0,0,0-1.75-.7,2.81,2.81,0,0,0-1.92.79,6.56,6.56,0,0,0-1.55,2.86c-.27.89-.75,1.33-1.44,1.33a3.62,3.62,0,0,1-1.83-.57,1.72,1.72,0,0,1-1-1.53q0-1.77,2.25-3.06a9.46,9.46,0,0,1,2.67-1,14.78,14.78,0,0,1,3.31-.35,11.15,11.15,0,0,1,3.54.46,4.52,4.52,0,0,1,2,1.2,3.83,3.83,0,0,1,.87,1.64,8.07,8.07,0,0,1,.2,1.9V32a4.76,4.76,0,0,0,.35,2.14,1.5,1.5,0,0,0,.86.78,5,5,0,0,0,1.22.15h.59Zm-7.87-9.68c-.27.15-.8.38-1.59.7s-1.56.66-2,.88a4.15,4.15,0,0,0-1.65,1.28,3.51,3.51,0,0,0-.5,2,3.55,3.55,0,0,0,.81,2.46,2.73,2.73,0,0,0,2.14.91,3,3,0,0,0,1.92-.7,2.88,2.88,0,0,0,.88-2.25Z"/><path class="cls-2" d="M402.72,35.56a4.47,4.47,0,0,0,2.1-.39c.27-.21.41-.72.41-1.53V22.48a3,3,0,0,0-.2-1.37,1,1,0,0,0-.79-.41l-1.33-.19V19.34l6.65-1,.44,3.14A23,23,0,0,1,412.82,19a3.62,3.62,0,0,1,2-.68,2.23,2.23,0,0,1,1.7.63,2.27,2.27,0,0,1,.59,1.63,3.21,3.21,0,0,1-.52,1.88,2.06,2.06,0,0,1-1.59.81,3,3,0,0,1-1.36-.44,5,5,0,0,0-2.07-.81,1.27,1.27,0,0,0-1.13.76,5.11,5.11,0,0,0-.42,2.38v8.49a3.38,3.38,0,0,0,.11,1,1,1,0,0,0,.43.52,2.49,2.49,0,0,0,.92.26c.41,0,1,.1,1.83.15v1.29H402.72Z"/><path class="cls-2" d="M433.45,32a8.63,8.63,0,0,1-2.82,3.91,8,8,0,0,1-4.93,1.4,10.92,10.92,0,0,1-4.08-.7,6.82,6.82,0,0,1-2.77-2,8.26,8.26,0,0,1-1.55-3,13.77,13.77,0,0,1-.5-3.78,12.74,12.74,0,0,1,.53-3.73,8.24,8.24,0,0,1,1.61-3,7.79,7.79,0,0,1,2.82-2.1,9.47,9.47,0,0,1,3.9-.74,9.84,9.84,0,0,1,4.28.81,6,6,0,0,1,2.48,2,7.15,7.15,0,0,1,1,2.44,12.41,12.41,0,0,1,.24,2.27,1.38,1.38,0,0,1-.44,1.18,2.27,2.27,0,0,1-1.37.33H422a14.43,14.43,0,0,0,.26,2.86,7.94,7.94,0,0,0,.83,2.35,4.17,4.17,0,0,0,1.58,1.62,4.79,4.79,0,0,0,2.46.59,4.89,4.89,0,0,0,3-.92,7.35,7.35,0,0,0,2.07-2.62Zm-6.06-6.21a1.29,1.29,0,0,0,1-.26,1.42,1.42,0,0,0,.24-1,10.84,10.84,0,0,0-.11-1.51,5.34,5.34,0,0,0-.44-1.51,3.07,3.07,0,0,0-.94-1.2,2.45,2.45,0,0,0-1.53-.46,2.66,2.66,0,0,0-1.74.57,3.88,3.88,0,0,0-1.09,1.48,8.43,8.43,0,0,0-.55,1.9,12.18,12.18,0,0,0-.17,2Z"/><path class="cls-3" d="M435,36.41a1,1,0,0,0,.48.13c.27,0,.43-.14.43-.35s-.11-.3-.39-.41-.54-.29-.54-.58a.59.59,0,0,1,.61-.57h.06a.91.91,0,0,1,.46.1L436,35a.76.76,0,0,0-.39-.1c-.28,0-.39.17-.39.31s.13.29.41.4.53.3.53.61-.24.59-.72.59a1.09,1.09,0,0,1-.53-.13Z"/><path class="cls-3" d="M438.24,35.83v-.89h0c-.07.24-.16.5-.26.78l-.36,1h-.2l-.33-1c-.1-.29-.18-.56-.24-.8h0v1.8h-.25l.14-2.07H437l.35,1c.08.23.15.46.21.7h0a2.64,2.64,0,0,1,.22-.7l.37-1h.34l.13,2.07h-.26Z"/></g></g></svg>