<?xml version="1.0" encoding="utf-8"?>
<!-- Generator: Adobe Illustrator 23.0.6, SVG Export Plug-In . SVG Version: 6.00 Build 0)  -->
<svg version="1.1" id="Layer_1" xmlns="http://www.w3.org/2000/svg" xmlns:xlink="http://www.w3.org/1999/xlink" x="0px" y="0px"
	 viewBox="0 0 484.1 126.9" style="enable-background:new 0 0 484.1 126.9;" xml:space="preserve">
<style type="text/css">
	.st0{fill:#C10230;}
	.st1{fill:#0A2240;}
</style>
<g>
	<g>
		<g>
			<g>
				<path class="st0" d="M132.7,97.9v22.7h-5.4v-9h-9.5v9h-5.4V97.9h5.4v8.7h9.5v-8.7H132.7z"/>
				<path class="st0" d="M160.7,115.7v4.9h-17.4V97.9h17.3v4.9h-11.8v3.9h11.2v4.9h-11.2v4.1H160.7L160.7,115.7z"/>
				<path class="st0" d="M185.5,115.7h-9l-1.8,4.8H169l8.7-22.7h6.5l8.7,22.7h-5.7L185.5,115.7z M183.7,110.8l-2.7-7.6l-2.7,7.6
					H183.7z"/>
				<path class="st0" d="M218.5,115.5v5h-16.9V97.8h5.4v17.7H218.5z"/>
				<path class="st0" d="M242.3,103h-6.7v17.7h-5.4V103h-6.7v-5h18.9v5H242.3z"/>
				<path class="st0" d="M271.7,97.9v22.7h-5.4v-9h-9.5v9h-5.4V97.9h5.4v8.7h9.5v-8.7H271.7z"/>
				<path class="st0" d="M281.4,109.2c0-6.9,4.9-11.7,12-11.7c4.4,0,8.2,2,10.1,5.4l-4.8,2.7c-1.2-1.9-3-3-5.4-3
					c-3.5,0-6.3,2.7-6.3,6.5c0,4.2,2.9,6.5,6.3,6.5c2.3,0,4.2-1.1,5.4-3l4.5,3.1c-2,3.1-5.6,5-9.9,5
					C286.3,120.9,281.4,116,281.4,109.2z"/>
				<path class="st0" d="M327,115.7h-9l-1.8,4.8h-5.7l8.7-22.7h6.5l8.7,22.7h-5.7L327,115.7z M325.3,110.8l-2.7-7.6l-2.7,7.6H325.3z
					"/>
				<path class="st0" d="M349.4,112.1h-0.8v8.4h-5.4V97.8h9.9c5.6,0,8.6,2.7,8.6,7.2c0,3.5-2.3,6.1-6.4,6.8l6.5,8.7h-6.4
					L349.4,112.1z M348.7,102.8v4.8h4.4c1.9,0,3.1-0.8,3.1-2.4c0-1.6-1.2-2.3-3.1-2.3H348.7z"/>
				<path class="st0" d="M389,115.7v4.9h-17.4V97.9h17.3v4.9H377v3.9h11.2v4.9H377v4.1H389L389,115.7z"/>
			</g>
		</g>
	</g>
	<g>
		<path class="st0" d="M35,85.7c-10.6-7.5-12-11.8-12-14.8c0-2.7,0-6.9,4.9-10.6C35,54.9,38,51,39.5,48H19.8l3.7-3.7h17.3
			c0-0.3,0.1-0.5,0.1-0.8l0.4-1.9c1.2-3.7,0.7-28.4,0.5-30.1c-0.1-1.4-0.7-1.6-1-1.6c-0.5,0-1,0.7-1.1,1.8c0,0.4-0.3,2-1.6,6.3
			c-1.1,3.4-3.5,5.8-9,11l-5.4,5.4c-8,8-9.7,16.5-9.7,23.3c0,1,0,1.9,0.1,2.9c0.3,6,1.9,16.5,9.5,20.5c8.8,4.8,10.9,6.5,11.6,7.5
			c-3.3-2.3-8.6-5.2-14.3-7.8s-9-13.2-9.8-16.3c-0.7-2.7-1.2-9.4-1.6-18.6v-0.4c0-0.4,0-1.1-0.5-1.1c-0.4,0-0.5,0.7-0.5,1.1
			c0,0.3-1.4,31.8,0.8,43.3c2.4,12.7,13.5,16.5,13.6,16.5l1.9,0.4c2.7,0.4,7.2,1.1,10.9,4.1c4.5,3.7,5,10.5,5.3,14.1v0.4
			c0.1,2.3,0.4,2.6,0.8,2.7c0.1,0,0.4,0,0.5-0.5c0-0.1,0.1-2.4,0.1-5.2l0.1-1.8C42.9,112.6,44,92.1,35,85.7"/>
		<polygon points="78,41.2 50.3,41.2 50.3,9.4 44.8,14.8 44.8,41.2 24.3,41.2 18.7,46.6 44.8,46.6 44.8,124.3 50.3,118.7 50.3,46.6 
			72.6,46.6 		"/>
	</g>
	<g>
		<g>
			<g>
				<path class="st1" d="M112.2,25.7h20.1l10.3,42.6L153,25.7h20.1v58.4h-11.8V38.9H160l-11.4,42.6h-11.8l-11.4-42.6h-1.2v45.2
					h-11.8V25.7H112.2z"/>
			</g>
		</g>
		<path class="st1" d="M218.1,74.1l0.1,8.4c0,0-9.9,2.4-17.8,2.4c-12.9,0-18.5-6.4-18.5-21.9c0-15.2,6.4-23.1,18.9-23.1
			c12.7,0,18.8,6.4,18.8,19.5l-0.8,8h-25.2c0.1,5.2,2.4,7.5,8.7,7.5C209.3,74.9,218.1,74.1,218.1,74.1z M208.5,58.7
			c0-6.9-2-9.1-7.3-9.1c-5.4,0-7.3,2.7-7.5,9.1H208.5z"/>
		<path class="st1" d="M241.3,50.9v17.7c0,4.4,0,6.3,3.5,6.3c2.4,0,6.5-0.1,6.5-0.1l0.5,9.1c0,0-5.7,1.2-8.7,1.2
			c-10.3,0-13.3-3.9-13.3-16.3V50.9h-5v-9.8h5v-12h11.6v12H252v9.8H241.3z"/>
		<path class="st1" d="M259.2,84.1V23.9h11.6v19.2c0,0,6-3.1,10.6-3.1c12,0,15.1,7.6,15.1,20.7v23.3h-11.6v-23
			c0-6.4-0.8-10.6-6.4-10.6c-3.8,0-7.8,1.4-7.8,1.4v32.2h-11.6V84.1L259.2,84.1z"/>
		<path class="st1" d="M344,62.6c0,13.2-4.8,22.6-19.7,22.6c-15,0-19.7-9.4-19.7-22.6s4.8-22.4,19.7-22.4
			C339.1,40.1,344,49.4,344,62.6z M332.3,62.6c0-8.3-1.8-12.7-8-12.7c-6.4,0-8,4.4-8,12.7s1.8,12.8,8,12.8
			C330.5,75.3,332.3,70.9,332.3,62.6z"/>
		<path class="st1" d="M388.8,84.1h-11.4v-1.8c0,0-6,2.9-10.3,2.9c-12.9,0-16.7-7.6-16.7-22.7c0-15.6,6.1-22.3,17.8-22.3
			c3.1,0,9.2,1.2,9.2,1.2V23.9H389v60.1H388.8z M377.3,73.4V50.9c0,0-4.8-0.8-8.4-0.8c-4.4,0-6.9,3.7-6.9,12.4s1.6,12.4,7.1,12.4
			C373.1,74.8,377.3,73.4,377.3,73.4z"/>
		<path class="st1" d="M399.5,41.2H411v42.8h-11.6V41.2z"/>
		<path class="st1" d="M399.5,23.9H411v11.7h-11.6V23.9z M399.5,41.2H411v42.8h-11.6V41.2z"/>
		<path class="st1" d="M452.4,51.8c0,0-10.6-1.4-15.6-1.4s-6,1.1-6,3.4c0,2,1.6,2.4,9.5,3.8c9.9,1.8,13.5,4.8,13.5,13.3
			c0,10.1-6.5,13.9-17.3,13.9c-6.4,0-16.5-2-16.5-2l0.4-9.7c0,0,10.6,1.4,15,1.4c5.4,0,6.9-1.1,6.9-3.4c0-1.9-1-2.7-8.8-4.1
			c-9.2-1.5-14.1-3.8-14.1-13.2c0-9.9,7.6-14,16.6-14c6.1,0,16.6,2.2,16.6,2.2L452.4,51.8z"/>
		<path class="st1" d="M473.3,50.9v17.7c0,4.4,0,6.3,3.5,6.3c2.4,0,6.5-0.1,6.5-0.1l0.5,9.1c0,0-5.7,1.2-8.7,1.2
			c-10.3,0-13.3-3.9-13.3-16.3V50.9h-5v-9.8h5v-12h11.6v12h10.6v9.8H473.3z"/>
	</g>
</g>
</svg>
