<?xml version="1.0" encoding="UTF-8"?><svg id="Layer_2" xmlns="http://www.w3.org/2000/svg" width="130.3" height="68.79" viewBox="0 0 130.3 68.79"><defs><style>.cls-1{fill:#e65925;}.cls-2{fill:#082340;}</style></defs><g id="Logo"><path class="cls-1" d="M57.39,27.54l16.69,22.77v-22.77h10.99v40.5h-10.7l-16.69-22.77v22.77h-10.99V27.54h10.7Z"/><path class="cls-1" d="M101.16,42.67h19.21v9.78h-19.21v5.82h20.66v9.78h-31.65V27.54h31.65v9.78h-20.66v5.35Z"/><path class="cls-1" d="M21.41,26.78C8.88,26.78,0,35.69,0,47.79s8.88,21,21.41,21,21.41-8.91,21.41-21-8.88-21-21.41-21ZM32.19,50.37c-3.28,2.18-6.02,4.92-8.2,8.2-1.63,2.54-3.53,2.54-5.16,0-2.18-3.28-4.92-6.02-8.2-8.2-2.54-1.63-2.54-3.53,0-5.16,3.29-2.18,6.02-4.92,8.2-8.2,1.64-2.54,3.53-2.54,5.16,0,2.18,3.28,4.92,6.02,8.2,8.2,2.54,1.63,2.54,3.53,0,5.16Z"/><path class="cls-2" d="M3.39.53h5.26l4.68,12.16L18.01.53h5.26v18.01h-3.59V4.94l-4.45,11.86h-3.79L6.98,5.04v13.49h-3.59V.53Z"/><path class="cls-2" d="M39.88,6.07l-9.52,17.66h-3.68l4.37-7.85-5.39-9.81h3.79l3.42,6.41,3.33-6.41h3.67Z"/><path class="cls-2" d="M58.05.53v18.01h-3.59v-7.41h-8.67v7.41h-3.59V.53h3.59v7.25h8.67V.53h3.59Z"/><path class="cls-2" d="M73.72,13.42h-8.82c.35,1.79,1.61,2.58,3.19,2.58,1.08,0,2.25-.44,3.15-1.2l1.97,2.16c-1.41,1.3-3.22,1.89-5.31,1.89-3.82,0-6.47-2.6-6.47-6.52s2.57-6.6,6.3-6.6,6.06,2.66,6.06,6.55c0,.39-.03.85-.06,1.13ZM70.42,11.13c-.31-1.59-1.27-2.5-2.71-2.5-1.58,0-2.5.95-2.8,2.5h5.52Z"/><path class="cls-2" d="M87.29,11.19v7.34h-3.25v-1.27c-.73.85-1.93,1.6-3.79,1.6-2.77,0-4.41-1.6-4.41-3.92,0-2.46,1.87-3.91,5.16-3.91h2.92c-.13-1.5-1.03-2.33-2.78-2.33-1.4,0-2.55.57-3.41,1.17l-1.31-2.56c1.34-.99,3.06-1.57,5.09-1.57,3.54,0,5.79,1.84,5.79,5.45ZM83.98,13.83v-.54h-2.56c-1.56,0-2.11.66-2.11,1.44s.55,1.35,1.79,1.35c1.34,0,2.88-.67,2.88-2.25Z"/><path class="cls-2" d="M90.89.01h3.36v18.52h-3.36V.01Z"/><path class="cls-2" d="M107.78,17.54c-1.09.75-2.35,1.31-4.13,1.31-3.09,0-4.67-1.75-4.67-4.98v-4.82h-2.41v-2.98h2.41v-3.71h3.36v3.71h4.52v2.98h-4.52v4.55c0,1.56.82,2.12,1.87,2.12.8,0,1.66-.39,2.34-.81l1.24,2.62Z"/><path class="cls-2" d="M121.82,10.6v7.94h-3.36v-6.86c0-1.8-.9-2.79-2.43-2.79s-2.64.99-2.64,2.82v6.83h-3.36V0h3.36v7.41c.89-1.24,2.21-1.67,3.58-1.67,2.83,0,4.85,1.97,4.85,4.86Z"/><path class="cls-1" d="M130.3,65.32c0,1.51-1.19,2.7-2.73,2.7s-2.75-1.19-2.75-2.7,1.22-2.67,2.75-2.67,2.73,1.19,2.73,2.67ZM125.51,65.32c0,1.19.88,2.13,2.08,2.13s2.03-.94,2.03-2.11-.86-2.14-2.05-2.14-2.06.96-2.06,2.13ZM127.15,66.71h-.62v-2.67c.24-.05.58-.08,1.02-.08.5,0,.73.08.93.2.15.11.26.32.26.58,0,.29-.23.52-.55.62v.03c.26.1.41.29.49.65.08.41.13.57.19.67h-.67c-.08-.1-.13-.34-.21-.65-.05-.29-.21-.42-.55-.42h-.29v1.07ZM127.17,65.2h.29c.34,0,.62-.11.62-.39,0-.24-.18-.41-.57-.41-.16,0-.28.02-.34.03v.76Z"/></g></svg>