<svg width="530" height="332" viewBox="0 0 530 332" fill="none" xmlns="http://www.w3.org/2000/svg">
<g clip-path="url(#clip0_1176_1911)">
<g filter="url(#filter0_ddd_1176_1911)">
<path d="M429.871 254.426L431.184 258.657L433.344 264.291L436.433 269.712L438.587 273.358L441.396 276.536L443.736 278.686L444.673 280.369L444.017 281.116L443.549 281.864L445.234 286.164L446.92 287.847L448.418 290.931L450.478 294.297L453.099 299.064L453.848 303.457L454.129 310.375L454.504 311.403L454.316 313.366L452.912 314.114L453.099 315.235L452.725 316.357L452.912 317.759L453.193 318.881L451.601 320.75L449.822 321.592L447.575 321.685L446.733 322.62L445.328 323.181L444.579 322.9L443.924 322.34L443.736 320.657L443.268 318.694L441.302 315.703L439.242 314.394L436.995 314.207L436.527 314.955L434.748 312.431L434.374 310.375L432.876 308.038L431.846 307.383L430.909 308.599L429.879 308.412L428.662 305.514L426.977 303.27L425.292 300.186L423.794 298.41L421.734 296.26L422.951 294.857L424.824 291.679L424.73 290.745L422.108 290.184L421.172 290.558L421.359 290.931L422.857 291.492L422.015 294.11L421.547 294.39L420.517 292.053L419.768 289.249L419.58 287.66L420.423 284.949V279.434L418.644 277.284L417.895 275.508L414.899 274.76L413.775 274.386L412.839 272.89L410.873 271.956L410.218 269.993L408.626 269.432L407.221 267.282L404.787 266.441L403.102 265.599H401.604L399.263 266.067L399.169 267.188L399.638 267.749L399.357 268.404L397.578 268.31L395.424 270.367L393.364 271.488H391.117L389.245 272.236L389.058 270.647L388.121 269.525L386.436 268.871L385.5 268.03L380.818 265.786L376.418 264.758L373.89 265.132L370.425 265.412L366.961 266.628L364.946 266.982L364.808 262.327L363.31 261.206L362.28 260.177L362.468 258.401L368.366 257.654L383.16 255.971L387.092 255.597L390.24 255.759L391.738 258.003L392.581 258.844L397.271 259.142L403.538 258.768L415.997 258.02L419.151 257.63L421.802 257.646L421.895 259.329L424.11 259.796L424.297 257.017L423.361 254.399L423.914 253.976L426.875 254.239L429.871 254.426ZM437.137 330.986L438.542 330.612L439.291 330.472L440.133 329.116L441.491 328.182L442.24 328.462L443.223 328.649L443.457 329.257L441.444 329.958L439.01 330.799L437.652 331.5L437.137 330.986ZM444.955 328.088L445.657 328.696L447.249 327.48L450.339 325.05L452.492 322.807L453.944 318.974L454.505 317.993L454.599 316.03L454.178 316.31L453.616 317.946L452.773 320.61L450.901 323.648L448.373 326.078L446.407 327.2L444.955 328.088Z" fill="#092A79"/>
<path d="M433.25 235.593L432.221 236.154L430.723 235.406L430.348 234.191L429.599 232.134L428.288 230.919L426.79 230.545L425.854 227.741L424.262 224.282L421.828 223.161L420.611 222.039L419.862 220.543L418.645 219.422L417.334 218.674L416.023 216.991L414.244 215.683L411.623 214.654L411.342 213.813L409.937 212.131L409.656 211.289L407.69 208.298L405.724 208.391L403.383 206.989L402.634 206.241L402.447 205.213L402.915 204.092L404.226 203.531L404.039 202.315L407.597 200.82L412.84 198.202L417.053 197.735L426.603 197.455L427.914 198.576L428.85 200.446L431.378 200.165L438.681 199.324L440.367 199.792L447.67 204.185L453.524 208.881L450.384 212.037L448.886 215.589L448.605 219.235L447.669 219.702L447.013 221.291L445.609 221.665L444.392 223.722L442.8 225.311L441.489 227.274L440.553 227.741L438.493 229.704L436.808 229.798L437.37 231.667L434.467 234.846L433.25 235.593Z" fill="#EEEEEE"/>
<path d="M391.773 203.811L388.965 204.278L384.096 204.933L379.134 205.447V206.709L379.227 207.924L379.602 209.887L381.568 214.467L382.972 220.169L383.815 223.722L384.751 226.526L385.594 230.545L386.811 234.191L388.309 236.154L388.59 238.117L389.714 238.584L389.807 239.8L388.777 242.604L388.496 244.473L388.403 245.595L389.339 248.119L389.526 251.204L389.058 252.606L389.433 253.073L390.275 253.541L390.65 255.504L392.148 257.747L392.991 258.588L397.578 258.682L403.845 258.308L416.304 257.56L419.458 257.17L422.109 257.186L422.203 258.869L423.701 259.336L423.888 256.812L422.952 254.195L423.607 253.26L426.978 253.728L429.86 253.911L429.411 250.269L430.722 244.474L431.565 242.043L431.284 240.548L433.215 236.937L432.92 236.155L431.811 236.563L430.313 235.815L429.939 234.6L429.19 232.543L427.879 231.328L426.381 230.954L425.445 228.15L423.751 224.487L421.316 223.365L420.099 222.243L419.35 220.748L418.133 219.626L416.822 218.878L415.511 217.196L413.732 215.887L411.111 214.859L410.83 214.017L409.425 212.335L409.145 211.494L407.178 208.656L405.212 208.749L402.82 206.989L402.071 206.241L401.884 205.213L402.352 204.091L403.714 203.377L403.057 202.671L403.102 202.502L399.732 203.063L395.706 203.531L391.773 203.811Z" fill="#EEEEEE"/>
<path d="M354.696 266.721L353.76 257.934L352.169 247.091L352.262 238.958L352.73 221.011L352.637 211.383L352.732 207.671L357.225 207.457L373.329 205.961L378.496 205.578L378.411 206.84L378.504 208.055L378.879 210.018L380.845 214.599L382.249 220.301L383.092 223.853L384.028 226.657L384.871 230.677L386.088 234.322L387.586 236.285L387.867 238.248L388.991 238.716L389.084 239.931L388.054 242.735L387.773 244.605L387.68 245.726L388.616 248.25L388.803 251.335L388.335 252.737L388.71 253.204L389.552 253.672L390.152 255.138H386.501L382.568 255.512L367.775 257.194L361.745 258.008L361.689 260.177L362.719 261.206L364.217 262.327L364.553 266.916L361.344 268.404L359.752 268.217L361.344 267.095V266.534L359.565 263.075L358.254 262.702L357.411 265.225L356.662 266.815L356.288 266.721H354.696Z" fill="#EEEEEE"/>
<path d="M474.299 169.406L475.289 172.123L477.349 175.862L478.753 177.264L479.128 178.573L477.724 178.666L478.192 179.04L478.004 181.471L476.506 182.218L476.132 183.434L475.383 185.116L473.229 186.051L471.825 185.864L470.982 185.77L470.046 185.023L470.233 185.77V186.331H471.357L471.825 187.079L470.701 190.725H473.136L473.51 191.659L474.821 190.351L475.57 190.07L474.447 192.127L472.668 194.931H471.919L471.263 194.651L469.672 195.025L466.675 196.427L462.93 199.511L460.964 202.222L459.841 205.961L459.56 207.364L456.844 207.644L453.686 208.417L447.926 203.674L440.623 199.28L438.937 198.813L431.634 199.654L429.157 200.088L428.221 198.219L426.501 196.995L416.951 197.275L412.737 197.742L407.494 200.36L403.936 201.855L403 202.042L399.629 202.603L395.603 203.071L391.671 203.351L391.961 201.007L392.991 200.165L394.582 199.792L394.957 197.642L397.391 196.053L399.638 195.211L402.073 193.155L404.6 191.94L404.975 190.163L407.222 187.92L407.597 187.827C407.597 187.827 407.597 188.481 408.065 188.481C408.533 188.481 409.188 188.668 409.188 188.668L410.499 186.611L411.716 186.237L413.027 186.424L413.963 184.368L415.649 182.872L415.93 181.657V179.367L418.551 179.788L422.684 179.04L431.846 177.918L441.771 176.422L453.309 174.109L464.738 171.701L471.32 170.084L474.299 169.406ZM476.555 188.48L478.053 187.032L479.879 185.536L480.768 185.162L480.862 183.994L480.487 180.441L479.645 179.086L479.27 178.011L479.692 177.871L481.283 181.049L481.517 183.62L481.424 185.583L479.457 186.471L477.819 187.873L477.164 188.574L476.555 188.48Z" fill="#EEEEEE"/>
<path d="M396.08 182.218L366.026 185.116L356.898 186.144L354.222 186.44L351.981 186.424V188.668L347.113 188.948L343.087 189.322L336.66 189.353L336.507 192.727L335.268 196.356L334.692 198.1L333.911 200.633L333.724 202.128L331.383 203.437L332.226 205.494L331.664 208.017L331.103 208.474L335.305 208.362L349.256 207.24L352.346 207.147L357.027 206.866L373.131 205.37L379.022 204.903L383.899 204.342L388.767 203.688L391.576 203.221L391.501 200.613L392.53 199.772L394.122 199.398L394.497 197.248L396.931 195.659L399.178 194.817L401.612 192.761L404.14 191.546L404.646 189.507L407.156 187.264L407.531 187.17C407.531 187.17 407.531 187.825 407.999 187.825C408.467 187.825 409.123 188.012 409.123 188.012L410.433 185.955L411.65 185.581L412.961 185.768L413.898 183.712L415.123 182.413L415.469 181.854L415.572 179.58L414.712 179.414L413.308 180.535L408.72 180.629L401.773 181.728L396.08 182.218Z" fill="#092A79"/>
<path d="M498.603 100.8L498.323 98.3691L497.855 95.8453L496.872 92.4334L500.195 91.5453L501.132 92.1997L503.098 94.7236L504.783 97.2945L503.097 98.1829L502.348 98.0894L501.692 99.1177L500.288 100.239L498.603 100.8Z" fill="#EEEEEE"/>
<path d="M498.095 100.931L497.731 98.5004L497.263 95.9765L496.327 92.5179L493.922 93.041L481.283 95.7985L481.657 97.7148L482.5 101.921V106.595L481.844 107.904L482.906 109.123L485.776 107.157L487.835 105.287L488.959 104.072L489.427 104.446L491.019 103.605L494.015 102.95L498.095 100.931Z" fill="#EEEEEE"/>
<path d="M513.607 97.347L514.865 96.9504L515.13 95.9589L515.726 96.025L516.322 97.347L515.593 97.6113L513.342 97.6775L513.607 97.347ZM508.178 97.8096L509.502 96.2894H510.429L511.489 97.1487L510.098 97.7435L508.84 98.3384L508.178 97.8096ZM488.024 85.0955L498.136 82.6651L499.447 82.2912L500.664 80.4216L502.828 79.4599L504.501 82.0115L503.097 85.0027L502.91 85.844L504.033 87.3397L504.689 86.8723H505.718L507.029 88.3679L509.276 91.8265L511.336 92.107L512.647 91.5461L513.677 90.5179L513.209 88.9288L511.992 87.994L511.149 88.4614L510.587 87.7136L510.868 87.4331L512.085 87.3397L513.115 87.807L514.239 89.2092L514.8 90.8918L514.988 92.2939L512.553 93.1352L510.306 94.2569L508.059 96.8743L506.936 97.7155V97.1547L508.34 96.3134L508.621 95.2852L508.153 93.5091L506.467 94.3504L505.999 95.1917L506.28 96.5004L505.083 97.0788L503.492 94.4611L501.526 91.9372L500.327 90.8892L496.543 91.9741L493.594 92.5817L480.954 95.3393L480.721 92.4801L481.095 86.3574L484.091 85.8433L488.024 85.0955Z" fill="#EEEEEE"/>
<path d="M527.066 41.5361L528.189 42.7513L529.5 44.9013V46.023L528.283 48.7338L527.159 49.1077L525.193 50.8838L522.384 54.062C522.384 54.062 522.01 54.062 521.635 54.062C521.261 54.062 521.073 52.8468 521.073 52.8468L520.044 52.9403L519.482 53.7816L518.077 54.6229L517.516 55.4642L518.452 56.3054L518.171 56.6794L517.89 58.2684L516.767 58.175V57.2402L516.579 56.4924L515.737 56.6794L514.707 54.8098L513.49 55.5576L514.239 56.3989L514.426 57.0533L513.958 57.8011L514.145 59.5771L514.239 60.5119L513.302 62.0075L511.617 62.2879L511.43 63.9705L508.34 65.7466L507.591 66.027L506.655 65.1857L504.876 67.2422L505.438 69.1117L504.595 69.8595L504.501 72.3834L503.851 76.0027L502.425 75.3343L502.144 73.5583L499.897 72.9039L499.709 71.3148L495.496 57.7607L493.064 49.8738L493.887 49.8055L494.764 50.0425V48.5469L495.232 45.3687L496.73 42.6579L497.573 40.321L496.449 38.9188V35.4602L496.917 34.8993L497.386 33.3102L497.292 32.4689L497.198 29.6646L498.228 26.8603L499.913 21.7191L501.131 19.2887H501.88L502.629 19.3822V20.0366L503.378 21.3452L504.969 21.7191L505.438 21.2517V20.6909L507.778 19.0083L508.808 17.9801L509.651 18.0735L513.115 19.4757L514.239 20.0366L519.482 37.3297H522.946L523.414 38.4514L523.508 41.2557L525.193 42.5644H525.661L525.755 42.284L525.474 41.6296L527.066 41.5361ZM514.943 58.9683L515.832 58.0802L516.628 58.6878L516.956 60.09L515.973 60.6041L514.943 58.9683ZM518.828 55.5564L519.858 56.6314C519.858 56.6314 520.607 56.6781 520.607 56.4911C520.607 56.3042 520.748 55.3227 520.748 55.3227L521.263 54.8553L520.795 53.827L519.624 54.2477L518.828 55.5564Z" fill="#EEEEEE"/>
<path d="M502.5 79.1753L503.003 78.5529L503.635 76.6499L502.162 76.1217L501.881 74.3457L499.634 73.6913L499.446 72.1022L495.233 58.5481L492.568 50.1389L492.049 50.136L491.674 51.0708L491.3 50.7904L490.738 50.2295L489.895 51.3512L489.867 54.2609L490.048 57.5378L491.171 59.1269V61.4638L489.018 64.3913L487.52 65.0456V65.7L488.175 66.7282V71.6825L487.707 77.0106L487.613 79.8149L488.175 80.5628L488.081 83.1801L487.801 84.2084L488.643 84.7207L498.136 82.0089L499.446 81.635L500.335 80.1592L502.5 79.1753Z" fill="#EEEEEE"/>
<path d="M481.386 85.7103L480.918 82.4386L479.533 76.6727L479.159 76.4857L477.473 75.7379L477.942 74.0553L477.473 72.8401L475.91 70.1572L476.471 67.9137L476.003 64.9225L474.599 61.1834L474.132 58.3371L489.334 54.4355L489.522 57.8003L490.645 59.3894V61.7263L488.492 64.0632L486.994 64.7175V65.3719L487.649 66.4001V71.3544L487.181 76.6826L487.087 79.4869L487.649 80.2347L487.556 82.852L487.275 83.8803L487.657 84.7863L483.631 85.5808L481.386 85.7103Z" fill="#EEEEEE"/>
<path d="M472.276 106.351L471.621 105.79L470.123 105.696L468.812 104.575L467.868 101.031L465.865 101.083L464.449 99.5169L453.222 102.051L428.317 107.098L423.956 107.808L423.528 104.068L424.355 103.418L425.104 102.763L425.666 101.828L426.696 101.174L427.82 100.146L428.101 99.2112L429.318 97.6221L429.973 97.0612L429.879 96.5003L429.13 94.7243L428.101 94.6308L426.977 91.0787L428.662 90.0505L431.19 89.2092L433.531 88.4614L435.404 88.1809L439.055 88.0875L440.179 88.8353L441.115 88.9287L442.332 88.1809L443.83 87.5266L446.826 87.2462L448.043 86.2179L449.073 84.3484L450.01 83.2267H451.227L452.35 82.5723L452.444 81.2637L451.601 80.0485L451.414 79.2072L452.069 77.992V77.1507H451.04L450.01 76.6833L449.541 76.029L449.448 74.5334L452.818 71.3552L453.193 70.8878L454.036 69.2052L455.721 66.5879L457.313 64.4379L458.53 63.0358L459.928 61.9801L461.713 61.2597L464.896 60.5119L466.769 60.6054L469.391 59.7641L473.772 58.5665L474.073 61.4458L475.478 65.1849L475.946 68.1762L475.384 70.4196L476.882 73.037L477.35 74.2522L476.882 75.9347L478.567 76.6826L478.942 76.8695L480.721 83.2259L480.41 86.1516L480.129 92.4145L480.597 95.5927L481.066 97.6492L481.908 101.856V106.529L481.253 107.838L482.318 108.99L482.78 109.961L481.656 110.989L481.843 111.737L482.592 111.55L483.435 110.802L484.746 109.307L485.401 108.933L486.337 109.307L487.648 109.4L492.236 107.157L493.921 105.568L494.67 104.726L497.105 105.661L495.138 107.718L492.891 109.4L488.772 112.485L487.274 113.046L483.903 114.167L481.562 114.822L480.882 114.514L480.741 112.381L481.022 110.792L480.928 109.576L479.298 108.594L476.677 108.033L474.43 107.379L472.276 106.351Z" fill="#EEEEEE"/>
<path d="M472.013 106.876L470.796 108.278V110.054L469.673 111.83L469.579 112.765L470.328 113.512L470.234 114.915L468.924 115.569L469.392 117.158L469.485 117.812L471.077 117.999L471.639 119.495L473.699 120.897L475.103 121.832V122.299L473.23 124.075L472.294 125.384L471.452 126.973L470.141 127.721L469.439 128.141L469.298 128.843L468.945 130.35L469.578 131.648L471.45 133.33L474.259 134.639L476.6 135.013L476.694 135.854L476.225 136.415L476.413 138.004H476.881L478.098 136.602L478.566 133.797L480.158 131.461L481.937 127.722L482.592 124.543L482.218 123.889L482.124 118.467L481.188 116.504L480.532 116.972L478.941 117.159L478.66 116.878L479.315 116.317L480.532 115.196L480.569 114.563L480.346 112.578L480.627 110.989L480.534 109.773L479.035 109.119L476.414 108.558L474.167 107.904L472.013 106.876Z" fill="#EEEEEE"/>
<path d="M468.565 127.767L469.221 127.393L470.531 127.039L471.374 125.45L472.31 124.141L474.183 122.365V121.897L472.779 120.963L470.719 119.561L470.157 118.065L468.565 117.878L468.472 117.224L468.003 115.635L469.314 114.98L469.408 113.578L468.659 112.83L468.753 111.895L469.876 110.119V108.343L471.234 106.941L471.358 106.315L469.86 106.221L468.549 105.1L467.145 102.015L465.404 101.477L464.055 100.239L453.288 102.576L428.382 107.623L423.233 108.465L422.946 104.369L419.768 107.624L419.019 107.904L416.585 109.644L418.271 120.71L419.708 126.336L421.777 137.473L423.67 137.105L430.587 136.236L452.553 131.804L461.169 130.171L465.976 129.233L466.131 129.095L467.348 128.16L468.565 127.767Z" fill="#EEEEEE"/>
<path d="M468.65 130.058L468.991 128.843L469.003 128.146L468.268 128.095L467.051 129.029L466.208 129.871L467.051 132.301L468.362 135.573L469.579 141.181L470.515 144.827L473.418 144.734L476.975 144.033L475.664 139.78L475.102 140.06L473.042 138.658L472.012 135.947L470.889 133.891L469.578 133.33L468.361 131.274L468.65 130.058Z" fill="#EEEEEE"/>
<path d="M477.106 144.446L473.549 145.193L470.187 145.286L469.119 141.182L467.902 135.573L466.591 132.301L465.845 129.758L461.498 130.696L452.882 132.329L431.191 136.695L431.846 139.593L432.408 142.864L432.595 142.677L433.813 141.275L435.123 139.762L436.528 139.406L437.37 138.564L438.4 137.069L439.149 137.443L440.835 137.256L442.333 136.041L443.495 135.2L444.564 134.92L445.516 135.573L447.201 136.414L448.325 137.443L449.027 138.331L451.415 139.312V140.995L454.598 141.743L455.261 142.056L456.079 140.883L457.748 142.022L457.008 143.457L456.564 145.762L455.534 147.258V148.473L455.909 149.501L458.842 150.285L461.339 150.249L463.118 150.81L464.335 150.997L464.896 149.782L464.054 148.567V147.539L462.649 146.323L461.432 143.145L462.181 140.06L462.088 138.845L461.339 138.097C461.339 138.097 462.181 137.163 462.181 136.789C462.181 136.415 462.462 135.574 462.462 135.574L463.586 134.826L464.709 133.891L464.99 134.452L464.147 135.387L463.398 137.537L463.586 138.191L464.616 138.378L464.896 141.556L463.679 142.117L463.867 144.173L464.147 144.08L464.803 142.958L465.739 143.986L464.803 144.734L464.616 146.697L466.114 148.66L468.361 148.941L469.297 148.473L471.171 150.892L471.958 151.202L475.812 149.585L476.975 147.258L477.106 144.446ZM467.473 149.641L468.128 151.09L468.222 152.118L468.877 153.193C468.877 153.193 469.392 152.679 469.392 152.492C469.392 152.305 468.971 150.716 468.971 150.716L468.55 149.36L467.473 149.641Z" fill="#092A79"/>
<path d="M430.545 136.734L431.189 139.593L431.817 143.586L433.878 141.997L435.189 140.221L436.659 139.865L437.502 139.024L438.532 137.528L439.215 137.902L440.9 137.715L442.399 136.5L443.561 135.659L444.63 135.379L445.385 135.967L446.676 136.611L447.799 137.639L448.595 138.387L448.512 141.088L445.235 139.312L442.614 138.284L442.52 141.369L442.239 142.584L441.303 144.173L440.928 145.108L439.149 146.51L438.869 147.819L436.902 148.006L436.715 149.782L436.06 152.96H434.562L433.813 152.492L432.876 150.903L431.846 150.997L431.659 153.521L430.442 157.353L427.539 163.616L428.008 164.364L427.914 165.953L426.697 167.075L425.854 166.888L423.982 168.29L422.484 167.729L421.454 170.44C421.454 170.44 419.3 170.907 418.926 171.001C418.551 171.094 417.521 170.253 417.521 170.253L416.117 171.562L414.619 171.936L412.933 171.468L412.184 170.72L410.915 168.972L409.095 167.823L407.597 166.233L405.911 164.083L405.537 162.775L404.039 161.934L403.571 160.999L403.43 157.961L404.694 157.914L405.818 157.447L405.911 155.858L406.848 155.016L406.941 152.118L407.503 149.875L408.252 149.501L409.001 150.155L409.282 151.184L410.312 150.623L410.593 149.688L409.937 148.66V147.258L410.499 146.51L411.81 144.547L412.559 143.706L413.776 143.986L415.087 143.051L416.866 141.088L418.177 138.845L418.364 135.573L418.645 132.675V129.965L417.989 128.188L418.551 127.347L419.295 126.599L421.317 138.064L423.999 137.63L430.545 136.734Z" fill="#EEEEEE"/>
<path d="M410.403 169.028L409.057 170.579L406.622 172.636L404.132 176.049L403.102 177.077V178.292L400.855 179.507L397.578 181.47L395.54 181.693L365.5 184.525L356.372 185.553L353.696 185.85L351.456 185.834L351.324 188.274L346.587 188.358L342.561 188.732L336.52 188.851L337.628 188.722L338.89 187.704L340.082 187.043L340.214 185.192L340.744 184.134L339.813 182.666L340.278 181.564L341.589 180.535L342.806 180.161L344.397 180.909L346.457 181.657L347.113 181.47L347.206 180.161L346.457 178.759L346.644 177.451L347.768 176.609L349.266 176.235L350.202 175.862L349.734 174.833L349.36 173.712L350.015 173.244L350.624 171.328L352.356 170.346L355.726 169.786L357.786 169.505L358.629 170.627L359.659 171.094L360.689 169.225L362.374 168.383L363.498 169.318L363.966 169.973L365.183 169.692L365.089 167.729L366.775 166.794L367.43 166.327L368.085 167.262H370.801L371.269 166.047L371.081 164.738L372.767 162.681L375.482 160.438L375.763 157.821L377.355 157.634L379.602 156.605L381.193 155.484L381.006 154.362L380.163 153.521L380.491 152.259L382.879 152.118L384.283 151.651L385.968 152.586L386.905 155.11L390.275 155.297L391.305 156.325L392.522 156.418L393.927 155.577L395.706 155.858L396.455 156.699L398.046 155.203L399.076 154.455H400.013L400.387 156.045L401.417 156.605L402.82 157.886L402.913 161.064L403.382 161.999L404.88 162.84L405.254 164.149L406.939 166.299L408.437 167.888L410.403 169.028Z" fill="#EEEEEE"/>
<path d="M415.994 109.58L412.465 111.924L410.218 113.233L408.251 115.383L405.911 117.626L404.038 118.093L402.353 118.374L399.169 119.869L397.952 119.963L395.986 118.187L392.99 118.561L391.492 117.719L390.113 116.938L387.279 117.345L381.381 118.28L376.886 118.981L377.636 127.441L378.665 135.386L380.163 148.94L380.491 151.734L382.879 151.659L384.283 151.192L386.231 152.061L387.43 154.585L390.407 154.575L391.502 155.8L392.522 155.762L393.993 154.987L395.443 155.201L396.586 156.043L397.586 154.81L398.945 154.062L400.144 153.668L400.519 155.257L401.549 155.818L403.562 157.173L404.826 157.127L405.489 156.462L405.451 155.661L406.388 154.819L406.481 151.922L407.043 149.678L407.923 148.845L408.804 149.368L409.282 150.068L409.983 149.967L409.738 148.573L409.412 148.201V146.798L409.973 146.051L411.284 144.088L412.033 143.246L413.25 143.527L414.561 142.592L416.34 140.629L417.651 138.385L417.772 135.245L418.053 132.347V129.636L417.398 127.86L417.96 127.019L418.493 126.467L417.679 120.776L415.994 109.58Z" fill="#EEEEEE"/>
<path d="M329.225 44.2702L330.284 43.0804L331.542 42.6177L334.654 40.3704L335.978 40.0399L336.243 40.3043L333.264 43.2787L331.344 44.4024L330.152 44.9312L329.225 44.2702ZM379.134 62.8476L379.509 64.2965L381.381 64.39L382.13 63.6889C382.13 63.6889 382.084 62.8476 381.896 62.7541C381.709 62.6606 380.96 61.6791 380.96 61.6791L379.696 61.8193L378.76 61.9128L378.573 62.5672L379.134 62.8476ZM396.548 99.3047L394.675 94.5373L393.364 89.3027L391.96 87.4331L390.462 86.4049L389.526 87.0592L387.279 88.0875L386.155 90.9852L384.563 93.1352L383.908 93.5091L383.065 93.1352C383.065 93.1352 381.567 92.2939 381.661 91.92C381.754 91.5461 381.942 89.0222 381.942 89.0222L383.908 88.2744L384.376 86.3114L384.751 84.8158L386.155 83.881L385.968 78.0855L385.031 76.7768L384.282 76.3094L383.814 75.0942L384.282 74.6269L385.219 74.8138L385.312 73.879L383.908 72.5704L383.159 71.0747H381.661L379.039 70.2335L375.856 68.2704H374.264L373.89 68.6444L373.328 68.3639L371.549 67.0553L369.864 68.0835L368.178 69.3922L368.366 71.4487L368.927 71.6356L370.145 71.916L370.425 72.3834L368.927 72.8508L367.429 73.0378L366.587 74.066L366.399 75.2812L366.587 76.2159L366.774 79.3942L364.714 80.6094L364.34 80.5159V78.0855L365.089 76.6833L365.463 75.2812L364.995 74.8138L363.871 75.2812L363.31 77.7116L361.718 78.3659L360.688 79.4876L360.594 80.0485L360.969 80.5159L360.594 82.0115L359.284 82.2919V82.9463L359.752 84.3484L359.096 87.9005L358.16 90.2374L358.535 92.9482L358.816 93.6026L358.347 95.0047L358.16 95.4721L357.973 97.0612L360.033 100.52L361.718 104.259L362.561 107.063L362.093 109.774L361.531 113.233L360.126 116.224L359.939 117.813L358.052 119.597L360.605 119.503L373.01 118.195L377.225 117.624L377.281 118.587L381.249 117.886L387.213 117.017L389.446 116.751L389.526 116.411L389.619 115.57L390.836 113.42L391.995 112.415L391.866 109.494L392.791 108.57L393.423 108.372L393.552 106.315L394.441 104.563L395.05 104.913L395.143 105.287L395.611 105.381L396.735 104.82L396.548 99.3047ZM321.043 61.1279L321.458 60.7923L323.05 60.3249L325.109 59.0163V58.4554L325.484 58.0815L328.948 57.5207L330.353 56.3989L332.88 55.1837L332.974 54.4359L334.098 52.7533L335.128 52.286L335.877 51.2577L337.187 49.9491L339.715 48.5469L342.431 48.2665L343.086 48.9208L342.899 49.4817L340.745 50.0425L339.903 51.8186L338.592 52.286L338.311 53.6881L336.906 55.5576L336.719 57.0533L337.187 57.3337L337.749 56.6794L339.809 54.9968L340.558 55.7446H341.869L343.741 56.3055L344.584 56.9598L345.427 58.7358L347.018 60.3249L349.265 60.2315L350.108 59.6706L351.044 60.4184L351.981 60.6989L352.73 60.2315H353.385L354.321 59.6706L356.662 57.6141L358.628 56.9598L362.467 56.7728L365.089 55.6511L366.587 54.9033L367.429 54.9968V58.2685L367.71 58.4554L369.396 58.9228L370.519 58.6424L374.077 57.7076L374.732 57.0533L375.575 57.3337V61.3532L377.448 63.1292L378.197 63.5031L378.946 64.064L378.197 64.251L377.728 64.064L375.575 63.7836L374.358 64.1575L373.047 64.064L371.174 64.9053H370.145L366.774 64.1575L363.778 64.251L362.654 65.7466L358.628 66.1205L357.224 66.5879L356.568 68.3639L355.819 69.0183L355.539 68.9248L354.696 67.99L352.074 69.3922H351.7L351.044 68.4574L350.576 68.5509L349.453 71.0747L348.891 73.4117L347.049 77.4597L346.367 76.8617L345.573 76.2653L344.448 70.3165L342.396 69.5243L341.207 68.2024L334.187 66.616L332.533 66.0206L327.767 64.7643L323.197 64.1033L321.043 61.1279Z" fill="#EEEEEE"/>
<path d="M197.541 79.9566L191.432 79.4899L172.847 77.5844L163.446 76.3947L147.027 74.0151L135.508 72.2966L134.686 78.7588L132.462 92.787L129.417 110.369L128.53 116.45L127.563 123.324L131.341 123.861L146.33 125.307L158.243 126.64L179.547 129.02L193.343 130.674L195.952 105.121L196.786 90.4468L197.541 79.9566Z" fill="#EEEEEE"/>
<path d="M198.942 67.5235L199.317 61.0759L200.625 46.7434C200.89 43.835 201.253 41.8446 201.42 37.8328L201.964 29.4187L184.199 27.7951L167.252 25.7386L150.305 23.4017L131.58 20.317L120.906 18.354L101.953 14.3453L99.3594 26.689L101.346 31.0515L100.551 33.6954L101.61 36.3393L103.464 37.1325L106.14 43.3597L107.701 45.1964L107.966 45.8574L109.952 46.5184L110.217 47.7082L106.112 57.8873V59.3414L107.569 61.1921H108.098L110.879 59.4736L111.276 58.8126L112.203 59.2092L112.071 62.2497L113.66 69.5205L115.381 70.9746L115.911 71.3712L116.97 72.6932L116.705 74.6761L117.102 76.6591L117.764 77.1878L119.089 75.8659H120.677L122.531 76.7913L123.988 76.2625H126.371L128.49 77.1878L130.079 76.9234L130.343 75.2049L132.065 74.8083L132.859 75.6015L133.124 77.4522L134.155 78.2415L135.043 71.5543L147.027 73.2728L163.353 75.5595L172.94 76.6565L191.153 78.6548L197.518 79.5361L198.127 70.6156L198.942 67.5235Z" fill="#EEEEEE"/>
<path d="M74.0208 98.9416L76.5847 88.8211L79.1005 78.576L79.895 76.1303L81.3515 72.6933L80.6233 71.3713L79.1667 71.4374L78.7033 70.8425L78.9681 70.1815L79.1667 68.3969L81.7488 65.2242L82.808 64.9598L83.4701 64.2988L83.8011 62.4481L84.3308 62.0515L86.5817 58.6805L88.8327 56.1688L88.9651 53.9876L86.979 52.4673L86.2176 49.9225L86.4493 44.3373L88.5679 34.8192L91.1499 22.7893L93.3347 14.9898L93.776 12.7907L101.303 14.2525L98.8947 26.689L100.602 31.1443L99.9934 33.7882L101.146 36.4321L102.999 37.4109L105.583 43.0813L107.144 45.2892L107.501 45.9502L109.488 46.6112L109.752 48.0793L105.741 57.7944L105.926 59.7126L107.476 61.3777L108.563 61.6561L111.344 59.5664L111.555 59.2766L111.646 59.766L111.792 62.1569L113.288 69.6133L115.288 71.1602L115.539 71.6496L116.784 73.0643L116.333 74.6761L116.731 76.8446L117.857 77.3734L119.089 76.4226L120.585 76.1442L122.531 77.0696L123.988 76.7264L126.185 76.6336L128.49 77.559L130.079 77.3874L130.622 76.04L132.065 75.0867L132.487 76.0654L132.845 77.3594L134.182 78.8276L131.997 92.6941L129.018 109.468L126.609 109.284L121.869 108.398L116.189 107.34L109.145 105.965L101.889 104.517L96.976 103.453L91.6133 102.488L86.2647 101.457C73.1693 98.9459 78.0711 99.8111 74.0208 98.9416Z" fill="#EEEEEE"/>
<path d="M46.565 0.499969L49.093 1.34126L54.7107 2.93036L59.673 4.05208L71.2829 7.32375L84.5781 10.5954L93.3586 12.5583L92.777 14.8042L90.4063 22.7893L87.8243 34.8191L85.9846 44.1517L85.781 49.5747L78.1469 47.3231L69.129 45.3668L61.2137 45.7113L60.2982 44.8253L57.2133 45.9223L54.9102 45.7774L53.334 44.7593L52.4198 45.063L49.9842 44.9308L48.8982 44.1377L46.1316 43.1335L45.2964 43.014L42.4088 42.2475L41.3763 43.1195L38.08 42.9212L35.2879 40.7273L35.4063 40.2646L35.4458 35.6771L34.2146 33.4298L31.8313 33.0065L31.6199 31.6452L30.1637 31.2826L28.4948 30.9733L27.4649 31.5342L26.1541 29.8516L26.3413 28.169L27.933 27.9821L28.8693 25.6451L27.3712 24.9908L27.4649 22.8409L29.9928 22.4669L28.4011 20.8778L27.5585 16.7649L27.933 15.0823V10.502L26.9031 8.63242L28.2139 3.21079L29.431 3.49122L30.8355 5.17379L32.4272 6.66942L34.2997 7.79114L36.9213 9.00633L38.7003 9.38024L40.3856 10.2215L42.3518 10.7824L43.6626 10.6889V9.28676L44.4116 8.63242L45.6287 7.88461L45.816 8.53895L46.0033 9.56719L44.6925 9.84762L44.5052 11.0628L45.5351 11.9041L46.1905 13.3063L46.565 14.428L47.4077 14.3345L47.5013 13.5867L46.9395 12.8389L46.6587 10.9693L47.1268 9.9411L46.7523 9.09981V7.79114L47.7822 5.73465L47.1268 4.23903L45.7224 1.43473L45.9096 0.967352L46.565 0.499969ZM41.088 3.95717L42.2584 3.86369L42.5393 4.65825L43.4287 3.72348H44.7864L45.2545 4.61151L44.365 5.59301L44.7396 6.0604L44.3182 7.22886L43.5224 7.46255C43.5224 7.46255 43.0074 7.50929 43.0074 7.32234C43.0074 7.13538 43.8501 5.82671 43.8501 5.82671L42.867 5.49954L42.6797 6.34083L42.2584 6.71474L41.3689 5.40606L41.088 3.95717Z" fill="#EEEEEE"/>
<path d="M199.164 189.587L212.306 190.215L230.313 190.876L228.961 204.439L228.789 214.936L228.829 216.14L231.345 218.348L232.351 218.823L233.398 218.969L233.796 218.243L234.311 218.744L235.317 219.023L236.246 218.601L236.906 218.837L236.734 220.806L239.21 221.402L240.76 221.877L243.05 222.181L244.321 223.239L246.203 222.327L247.817 222.538L248.995 224.15L249.617 224.336L249.524 225.472L251.313 226.147L252.916 225.104L253.79 225.315L255.153 225.407L255.404 226.49L258.092 227.641L259.63 227.522L260.782 225.143H260.979L261.641 226.24L264.211 226.822L266.143 227.522L268.05 227.958L269.296 227.522L269.786 226.068H271.93L273.029 226.504L274.803 225.593H275.187L275.398 226.24H277.874L279.266 225.514L280.232 225.686L281.052 226.769L282.72 227.733L284.76 228.355L286.349 229.175L287.766 230.113L289.673 229.598L290.797 230.166L291.093 236.029L291.287 241.639L291.684 247.152L291.989 249.492L293.538 252.15L294.161 254.502L296.398 258.139L296.716 259.804L297.02 260.386L296.623 264.72L295.088 267.257L295.643 268.911L295.431 270.365L294.941 274.596L294.147 276.168L294.497 278.704L291.216 279.621L285.504 282.238L284.943 283.36L283.445 284.482L282.227 285.323L281.478 285.79L278.201 288.875L276.61 290.09L273.52 291.96L270.243 293.362L266.592 295.325L265.562 296.166L262.191 298.223L260.225 298.597L257.978 301.775L255.637 301.962L255.075 303.083L256.386 304.205L255.543 307.383L254.794 310.001L254.139 312.244L253.671 314.861L254.139 316.264L255.169 320.283L255.731 323.835L256.761 325.424L256.199 326.266L254.42 327.387L251.143 325.144L247.96 324.49L247.21 324.77L245.338 324.396L242.904 322.62L239.907 321.966L235.507 320.003L234.29 317.759L233.541 314.02L231.668 312.898L231.294 311.59L231.668 311.216L231.855 309.253L231.106 308.879L230.732 308.318L231.481 305.794L230.545 304.486L228.672 303.738L226.706 301.214L224.646 297.381L222.212 295.886L222.305 294.764L219.216 287.66L218.747 285.229L217.718 284.108L217.624 283.266L214.16 280.182L212.662 278.406V277.751L211.164 276.536L207.231 275.882L202.924 275.508L201.145 274.199L198.524 275.227L196.464 276.069L195.153 277.938L194.591 280.088L192.063 283.64L190.659 285.042L189.161 284.482L188.131 283.827L187.007 283.453L184.76 282.145V281.771L183.73 280.649L180.734 279.434L176.427 274.947L175.117 272.236V267.562L173.244 263.823L172.963 262.234L172.027 261.673L171.372 260.458L168.469 259.243L167.72 258.308L163.6 253.728L162.851 251.858L160.136 250.55L159.294 248.026L157.795 246.343L156.672 246.063L156.296 243.358L160.93 243.755L177.746 245.341L194.563 246.266L195.887 232.518L198.138 200.395L199.064 189.554L199.859 189.571M257.183 324.863L256.855 320.75L255.264 316.59L254.936 312.524L255.825 307.757L257.745 303.784L259.758 300.653L261.583 298.596L261.958 298.736L259.196 302.569L256.668 306.355L255.498 310.187L255.31 313.179L255.825 316.731L257.323 320.89L257.604 323.882L257.698 324.723L257.183 324.863Z" fill="#092A79"/>
<path d="M71.5666 220.453L73.7762 220.17L74.6369 219.007L75.0608 217.885L73.2211 217.833L72.5845 216.813L73.0352 215.822L73.0085 212.265L74.2931 211.498L75.8553 210.004L76.0934 207.162L77.047 205.14L78.1725 203.923L80.0657 202.932L80.8067 202.51L81.2447 201.652L80.7418 201.135L80.1854 200.262L79.643 197.17L77.9611 194.142L78.0174 192.531L76.7427 190.653L68.0558 177.221L56.8009 160.617L43.812 141.516L36.4551 130.215L37.4957 126.047L41.4413 111.043L46.1419 92.8658L38.9803 90.9363L31.168 88.9533L23.8855 86.5738L19.5159 85.3841L12.8954 83.6655L8.81179 82.271L7.89664 85.0028L7.80301 89.3027L4.8069 96.1265L3.02796 97.6221L2.84071 98.2764L1.8108 98.7438L0.968142 101.174L0.5 103.044L2.09168 105.474L3.02796 107.904L3.68336 109.961L3.49611 113.7L2.46619 115.476L2.09168 118.841L1.52991 120.991L2.55982 123.235L4.1515 125.852L5.4623 128.656L6.21133 130.993L6.02407 132.863L5.83681 133.143V134.358L9.1138 138.004L8.83292 139.406L8.45841 140.715L8.08389 141.836L8.17752 146.604L9.39469 148.754L10.5182 150.249L12.1099 150.53L12.6717 152.119L12.0163 154.175L10.7991 155.11H10.1437L9.67558 157.354L9.95646 159.036L11.829 161.56L12.7653 164.645L13.608 167.356L14.357 169.132L16.3232 172.497L17.1658 173.992L17.4467 175.675L18.383 176.236V177.638L17.9149 178.76L16.885 182.873L16.6041 183.994L18.0085 185.583L20.4428 185.864L23.0644 186.892L25.3115 188.107H26.9968L28.6821 189.883L30.1802 192.688L30.8356 193.996L33.0827 195.212L35.8915 195.679L36.7342 196.894L37.1087 198.764L36.266 199.138L36.4533 199.698L38.3258 200.166L39.9175 200.259L41.6028 202.97L43.8499 205.401L44.3181 206.709L45.8161 209.14L46.0034 211.009V216.431L46.2842 217.459L52.0892 218.3L63.5119 219.889L71.5666 220.453ZM20.6303 191.705L21.3793 192.593L21.2857 193.341L19.4131 193.295L19.0854 192.593L18.7109 191.752L20.6303 191.705ZM21.7538 191.705L22.456 191.331L24.5159 192.547L26.2948 193.248L25.7799 193.622L23.1582 193.481L22.222 192.547L21.7538 191.705ZM33.7383 203.156L34.7682 204.512L35.2363 205.073L36.1258 205.4L36.4535 204.558L35.8917 203.53L34.3469 202.362L33.7383 202.455V203.156ZM32.8956 208.157L33.9255 209.98L34.6278 211.102L33.7851 211.242L33.0361 210.541C33.0361 210.541 32.6147 209.7 32.6147 209.466C32.6147 209.232 32.6147 208.204 32.6147 208.204L32.8956 208.157Z" fill="#EEEEEE"/>
<path d="M72.1492 220.885L70.6277 222.133L70.4404 222.974L70.7213 223.535L81.6758 229.704L88.6979 234.098L97.2181 239.052L106.955 244.848L114.071 246.25L128.624 247.814L130.09 240.582L132.264 224.829L136.297 194.252L138.763 176.347L124.518 174.22L108.761 171.576L89.3997 167.923L87.7074 178.384L87.4426 178.648L86.4495 180.168L84.993 180.102L84.2647 178.516L82.6758 178.318L82.1462 177.657H81.6165L81.0869 177.987L79.9614 178.582L79.8952 182.614L79.7628 183.606L79.4317 190.876L78.5711 192.132L78.24 194.049L79.829 196.891L80.5572 200.262L81.0207 200.857L81.6165 201.188L81.5503 202.51L80.6234 203.303L78.6373 204.294L77.5118 205.418L76.6511 207.533L76.3201 210.375L74.665 211.962L73.4733 212.358L73.4071 215.729L73.1422 216.721L73.4071 217.183L75.5256 217.514L75.1946 219.1L74.3339 220.356L72.1492 220.885Z" fill="#EEEEEE"/>
<path d="M73.835 99.4983L85.986 102.107L91.6134 103.231L96.976 104.288L100.807 105.233L100.484 108.624L98.4313 118.644L96.0606 130.197L94.9351 135.817L93.6772 143.497L91.8502 152.988L89.8106 162.058L88.6706 167.944L87.2426 177.641L86.9778 178.277L86.3565 179.705L85.2717 179.638L84.6364 178.052L83.0475 177.761L82.239 177.193L81.0588 177.378L80.5291 177.802L79.7754 178.582L79.5233 182.614L79.205 183.606L78.9669 190.598L78.2012 191.589L77.1145 190.281L68.7064 177.128L57.4515 160.339L44.2767 140.774L37.1057 130.029L38.0534 126.233L42.0919 111.228L46.66 93.1022L66.1244 97.8105L74.069 99.529" fill="#EEEEEE"/>
<path d="M138.883 175.671L124.61 173.663L109.225 170.833L89.634 167.352L90.5542 162.058L92.4079 153.267L94.3279 143.682L95.5858 135.817L96.7112 130.661L98.896 118.83L100.948 108.717L101.594 105.494L108.959 106.8L115.911 107.99L121.869 109.047L126.702 109.84L128.832 110.117L127.972 116.264L126.634 123.881L131.155 124.418L140.658 125.461L145.413 125.956L144.179 138.659L142.325 151.707L140.152 167.797L139.187 174.22L138.883 175.671Z" fill="#EEEEEE"/>
<path d="M211.655 145.308L212.489 133.002L193.901 131.23L179.733 129.67L158.15 127.29L146.167 125.836L144.644 138.659L142.79 151.614L140.617 167.797L139.745 174.22L139.6 175.817L159.249 178.011L181.107 180.478L199.617 182.309L209.236 182.798" fill="#EEEEEE"/>
<path d="M156.115 246.063L155.738 242.523L160.744 242.827L177.839 244.599L194.284 245.431L195.422 232.518L197.58 200.209L198.228 188.998L199.394 189.2L199.386 182.796L180.735 181.406L159.341 178.846L139.38 176.467L136.948 194.252L132.914 225.015L130.741 240.582L129.554 248.278L138.508 249.428L139.257 243.632L148.901 245.128L156.115 246.063Z" fill="#EEEEEE"/>
<path d="M73.6312 98.9862L76.1202 88.6355L78.8219 78.2976L79.4305 75.852L80.7941 72.6005L80.4376 71.928L78.981 71.9013L78.2388 70.9353L78.5036 70.0887L78.7952 68.2113L81.3772 65.0386L82.4365 64.403L83.0985 63.7421L83.9592 61.6803L86.3031 58.4021L88.3682 56.1688L88.5006 54.1731L86.6074 52.7457L85.9072 50.1378L78.2401 47.9726L69.501 45.9236L60.5633 45.9897L60.2984 45.1965L57.1206 46.3863L54.5386 46.0558L53.1483 45.1304L52.42 45.527L49.7056 45.3948L48.7125 44.6016L45.6671 43.4119L45.2036 43.478L42.6878 42.6187L41.5623 43.6763L37.9873 43.478L34.5446 41.0984L34.9418 40.6358L35.0742 36.1411L33.7501 33.8938L31.3667 33.5633L30.9695 32.1091L29.6062 31.8394L26.2479 33.0298L24.9371 36.7689L23.0645 42.5644L21.1919 46.3035L18.2895 54.4359L14.5443 62.2879L9.86292 69.5791L8.73938 71.2617L8.27124 76.2159L7.52222 79.6746L9.09071 81.7142L12.9884 83.0159L19.7019 84.9201L24.2573 86.3882L31.447 88.4894L39.1662 90.5651L46.7926 92.6268" fill="#EEEEEE"/>
<path d="M265.335 70.6428L265.123 66.3083L263.971 62.0781L262.912 54.1857L262.647 48.5013L261.495 46.7039L260.568 43.61V37.6612L260.965 35.4139L259.74 32.2342L243.278 31.9081L232.511 31.5342L217.156 30.7864L202.708 29.6971L201.978 37.9256L201.183 46.6505L199.875 61.0759L199.594 67.4481L232.5 69.6247L265.335 70.6428Z" fill="#EEEEEE"/>
<path d="M266.199 114.306L265.647 113.681L264.766 111.584L265.825 109.444L266.434 106.231L264.938 105.042L264.766 103.455L265.11 101.723L266.355 101.259L266.527 97.9425L266.487 80.5461L266.129 78.8275L263.746 76.7518L263.177 75.6014V74.4905L264.276 73.7507L265.163 72.6791L265.269 71.1068L232.035 70.1814L199.501 67.9341L199.057 70.9868L198.122 80.1622L197.343 90.5396L196.417 104.762L205.699 105.357L217.073 106.018L227.494 106.772L241.264 107.525L247.487 107.075L249.144 108.397L251.646 110.116L252.215 110.552L254.266 110.037L256.61 109.866L258.199 109.826L260.002 110.527L262.636 111.359L264.45 112.377L264.808 113.488L265.337 114.585L265.746 114.307L266.199 114.306Z" fill="#EEEEEE"/>
<path d="M272.829 139.638L273.623 141.185L273.677 142.414L275.04 144.568L276.615 146.391H273.691L248.507 145.848L224.885 145.333L212.611 144.778L213.233 132.446L193.901 130.859L196.416 105.412L205.42 106.007L217.072 106.667L227.401 107.328L241.171 107.989L247.395 107.725L248.586 109.047L251.367 110.766L252.029 111.294L254.545 110.501L256.796 110.237L258.385 110.105L259.444 110.898L262.357 111.823L264.078 112.748L264.343 113.674L264.873 114.864H265.932L266.394 114.89L266.963 117.904L268.552 122.545L269.268 125.228L270.499 127.436L270.803 130.291L271.637 132.763L271.955 136.504" fill="#EEEEEE"/>
<path d="M320.523 113.408L320.621 114.532L321.945 115.191L322.607 115.917L322.806 116.647L325.057 118.499L325.454 119.755L324.991 121.41L324.129 123.459L323.666 125.045L322.407 125.971L321.414 126.302L318.237 127.161L317.84 128.481L317.377 129.802L317.708 130.595L318.702 131.586L318.701 133.703L317.444 134.628L317.179 135.488V136.943L316.317 137.208L315.324 138L315.06 138.859L315.324 139.852L314.528 140.548L313.2 138.992L312.34 137.473L307.51 137.935L301.619 138.265L287.119 138.663L279.569 138.795L274.14 138.927L273.378 138.997L272.42 136.412L272.288 132.578L271.361 130.198L270.964 127.158L269.639 125.043L269.11 122.267L267.521 117.904L266.859 114.797L266.064 113.542L265.137 111.955L266.197 109.444L266.991 106.139L265.402 104.949L265.137 103.363L265.667 101.908H266.66H273.347L302.08 101.512L313.592 101.115L314.664 102.704L315.725 104.219L315.989 104.685L314.929 106.274L315.193 108.715L316.649 110.962L318.368 112.017L319.761 112.15L320.523 113.408Z" fill="#EEEEEE"/>
<path d="M354.094 266.836L353.947 267.562H350.951L350.108 267.095L348.891 266.908L344.959 268.03L343.929 267.562L342.431 269.993L341.792 270.443L341.141 269.004L340.479 266.757L338.493 264.906L339.155 260.543L338.758 260.015L337.698 260.147L332.932 260.543L318.896 260.94L318.631 260.015L319.029 255.388L321.015 251.819L324.06 246.531L323.531 245.341H324.193L324.59 243.49L323.266 242.433L323.398 241.375L322.206 238.731L322.041 235.641L322.835 234.104L322.604 231.593L321.809 229.874L322.604 229.081L321.809 227.891L322.074 226.834L322.604 223.264L324.325 221.678L323.928 220.488L326.046 217.448L327.635 216.919V215.465L327.238 214.672L328.827 211.631L330.416 210.97L330.478 208.997L335.503 208.952L349.453 207.831L352.106 207.698L352.111 211.383L352.204 221.011L351.736 238.958L351.643 247.091L353.234 257.934L354.094 266.836Z" fill="#EEEEEE"/>
<path d="M350.539 170.784L350.577 169.131L350.858 166.514L352.169 164.831L353.198 162.588L354.697 160.157L354.416 156.792L353.386 155.203L353.198 153.334L353.667 150.155L353.386 146.136L352.637 136.882L351.888 128.001L351.326 121.225L353.104 121.739L353.947 122.3L354.602 122.113L355.82 120.991L357.458 120.056L360.408 119.962L373.141 118.654L376.371 118.346L377.241 127.572L379.703 148.875L380.05 152.212L379.835 153.521L380.546 154.559L380.602 155.352L379.142 156.277L377.092 157.174L375.237 157.492L374.891 160.307L372.241 162.222L370.621 164.541L370.809 165.915L370.472 166.802H368.545L367.627 165.868L366.183 166.597L364.629 167.467L364.723 169.233L364.031 169.382L363.76 168.793L362.506 167.924L360.623 168.7L359.725 170.438L358.892 169.971L358.049 169.046L355.464 169.326L352.224 169.887L350.539 170.784Z" fill="#092A79"/>
<path d="M350.183 171.216V169.131L350.332 166.317L351.708 164.503L352.738 162.325L354.236 160.092L354.021 157.055L352.86 155.006L352.804 153.071L353.207 150.024L352.728 145.874L352.111 136.751L351.362 128.067L350.828 121.337L350.67 120.804L350.202 119.309L349.453 117.159L348.516 116.13L347.674 114.635L347.539 111.461L341.803 112.22L326.046 113.211L321.015 112.963L321.147 114.335L322.471 114.731L323.001 115.392L323.266 116.45L325.517 118.433L325.914 119.755L325.517 121.738L324.457 123.853L324.06 125.307L322.736 126.365L321.677 126.761L318.631 127.554L318.234 128.612L317.837 129.802L318.234 130.595L319.293 131.52L319.161 133.9L318.102 134.825L317.704 135.751V137.337L316.645 137.601L315.718 138.262L315.586 139.055L315.718 140.245L314.725 141.005L314.129 142.625L314.394 144.74L315.718 148.97L319.955 153.333L323.133 155.448L323.001 157.959L323.531 158.753L327.238 159.017L328.827 159.81L328.43 161.925L327.106 165.362L326.708 167.213L328.032 169.461L331.74 172.501L334.388 172.898L335.58 175.806L336.772 177.657L336.242 179.375L337.169 181.755L338.228 182.944L339.354 182.486L339.752 181.236L340.931 180.404L342.806 179.768L344.595 180.45L346.26 181.067L346.718 180.945L346.68 180.227L346.063 178.628L346.316 177.254L347.637 176.347L349.003 175.776L349.677 175.533L349.34 174.768L348.9 173.515L349.621 172.785L350.183 171.216Z" fill="#092A79"/>
<path d="M265.667 71.1068L265.402 66.2155L264.343 61.9853L263.284 54.1857L263.019 48.5013L261.96 46.5183L261.033 43.61V37.6612L261.43 35.4139L260.375 32.2616L277.827 32.282L278.014 27.5147L278.389 27.4212L279.7 27.7016L280.823 28.169L281.291 31.3472L282.134 34.8993L283.07 35.8341H285.879L286.066 36.6754L289.718 36.8623V38.0775H292.527L292.714 37.3297L293.369 36.6754L294.68 36.3015L295.429 36.8623H297.115L299.362 38.358L302.451 39.7601L303.856 40.0405L304.137 39.4797L304.979 39.1992L305.26 40.8818L306.758 41.6296L307.039 41.3492L307.788 41.4427V42.6579L309.286 43.2187H311.065L312.002 42.7514L313.874 40.8818L315.372 40.6014L315.84 41.6296L316.121 42.3774H316.683L317.245 41.9101L322.394 41.7231L323.424 43.4992H323.799L324.212 42.8722L326.783 42.6579L326.429 43.9759L324.148 45.0382L318.793 47.3865L316.028 48.5469L314.249 50.0425L312.844 52.099L311.533 54.3424L310.503 54.8098L307.882 57.7076L307.133 57.8011L304.908 59.4975L303.277 61.3253L303.144 63.0428L303.276 67.5404L302.351 68.4658L299.305 70.8443L298.244 74.1502L299.703 76.2595L299.968 77.7166L299.303 79.4361L299.172 81.5522L299.437 85.6483L301.421 88.023H303.144L304.598 89.3488L306.453 90.1381L308.572 93.0494L312.677 95.9538L313.737 97.1465L313.872 100.328L301.949 100.724L267.055 100.99L266.859 80.3605L266.594 78.6419L264.211 76.659L263.549 75.6014V74.6761L264.74 73.7507L265.535 72.9575L265.667 71.1068Z" fill="#EEEEEE"/>
<path d="M347.365 110.837L347.58 109.12L346.644 106.502L346.269 102.95L345.614 101.548L346.176 99.772L346.644 98.0894L347.486 96.5938L347.112 94.6308L346.737 92.5743L347.018 91.5461L348.142 90.1439L348.236 88.5548L347.767 87.807L348.142 86.3114L348.423 84.4419L350.014 81.1702L351.7 77.2442L351.793 75.9355L351.606 75.3746L351.138 75.6551L348.704 79.3007L347.112 81.6376L345.988 82.6658L345.52 83.9745L344.678 84.4419L344.022 85.5636L343.18 85.3766L343.086 84.3484L343.835 82.9462L345.052 80.2354L346.082 79.3007L346.72 77.9756L345.776 77.4522L344.981 76.659L344.054 70.7102L341.936 70.0492L341.141 68.7272L333.859 67.1409L332.402 66.4799L327.635 65.158L322.868 64.497L320.454 61.3718L320.147 62.101L319.492 62.0075L319.117 61.3532L317.525 60.8858L316.87 60.9793L315.84 61.5401L315.278 61.1662L315.653 60.0445L316.776 58.2684L317.432 57.6141L316.308 56.7728L315.091 57.2402L313.406 58.3619L309.099 60.2315L307.414 60.6054L305.728 60.3249L305.16 59.8171L303.934 61.4565L303.801 63.0428V67.9341L303.139 68.8594L300.094 71.1068L298.77 74.5439L299.035 74.6761L300.491 75.8658L300.888 77.7166L299.829 79.5673V81.8146L300.094 85.6483L301.815 87.3669H303.801L304.861 89.2176L306.847 89.482L309.098 92.7869L313.203 95.1664L314.394 96.7528L314.924 101.049L315.321 102.966L316.645 103.891L316.778 104.685L315.586 106.667L315.718 108.518L317.175 110.766L318.631 111.427L320.353 111.691L321.13 112.489L326.443 112.489L341.54 111.629L347.365 110.837Z" fill="#092A79"/>
<path d="M314.265 141.105L312.805 139.32L312.143 137.998L307.641 138.394L301.948 138.659L287.25 139.188L279.438 139.32L274.87 139.386L273.546 139.452L274.274 140.906L274.142 142.228L275.598 144.475L277.386 146.855L279.173 148.441L280.497 148.574L281.292 149.102V150.821L280.232 151.746L279.968 153.068L281.159 155.051L282.616 156.77L284.072 157.827L284.867 164.569L284.47 184.993L284.602 187.703L284.867 190.816L298.438 190.749L311.879 190.352L323.928 189.889L330.678 189.756L331.934 191.737L331.538 193.649L329.75 195.039L329.419 196.101L332.534 196.366L334.789 195.969L335.784 192.793L336.161 189.406L337.504 188.235L338.496 187.375L339.688 186.78L339.754 185.126L340.087 184.134L339.49 183.123L337.9 183.207L336.643 181.689L335.848 179.244L336.312 177.788L335.186 175.806L334.125 173.16L331.346 172.698L327.31 169.46L326.314 167.082L326.777 165.231L327.97 161.728L328.236 160.073L327.107 159.476L323.136 159.015L322.541 158.025L322.476 155.579L319.298 153.595L315.258 149.101L313.934 144.871L313.801 142.428L314.265 141.105Z" fill="#EEEEEE"/>
<path d="M334.63 196.283L332.402 196.825L328.827 196.561L329.224 194.842L331.078 193.256L331.343 191.934L330.284 190.215L323.928 190.48L311.878 191.008L298.373 191.405L284.867 191.669L285.794 195.635V200.394L286.588 206.74L286.72 228.618L288.045 229.742L289.766 228.949L291.355 229.61L291.604 235.579L304.859 235.497L315.784 235.033L321.646 234.919L322.31 233.711L322.144 231.658L321.086 229.94L322.012 229.081L321.086 227.629L321.483 226.177L322.275 222.936L323.734 221.743L323.336 220.422L325.455 217.316L327.044 216.525L326.978 215.661L326.778 214.606L328.433 211.368L329.824 210.642L330.047 208.66L331.072 207.942L331.568 205.494L330.792 203.175L333.132 201.8L333.451 200.633L334.166 198.165L334.63 196.283Z" fill="#EEEEEE"/>
<path d="M209.757 183.341L203.566 183.077L199.842 182.796L199.991 182.911L199.584 188.938L212.306 189.751L230.871 190.505L229.519 204.625L229.254 214.936L229.387 215.861L231.902 217.976L233.094 218.637L233.491 218.505L233.889 217.315L234.683 218.373H235.875V217.58L237.464 218.373L237.199 220.62L239.582 220.752L241.039 221.413L243.422 221.81L244.879 222.868L246.203 221.678L248.189 222.074L249.645 224.057H250.175V225.379L251.499 225.776L252.823 224.454L253.883 224.851H255.339L255.869 226.305L258.649 227.362L259.444 226.966L260.503 224.586H261.165L261.827 225.776L264.211 226.173L266.329 226.966L268.05 227.494L269.11 226.966L269.507 225.512H272.023L273.214 226.04L274.803 224.851H275.465L275.863 225.776H278.246L279.173 224.586L280.232 224.851L281.424 226.305L283.278 227.362L285.131 227.891L286.256 228.538L286.03 207.018L285.236 200.673L285.143 195.542L284.309 191.762L283.858 187.611L283.819 185.404L276.79 185.588L249.91 185.324L223.825 184.134L209.757 183.341Z" fill="#092A79"/>
<path d="M283.912 184.821L276.604 184.939L249.911 184.674L224.104 183.485L209.84 182.758L212.24 145.335L224.885 145.797L248.321 146.591L273.877 146.855H276.828L278.708 148.72L280.311 148.852L280.827 149.474V150.635L279.768 151.561L279.503 153.068L280.787 155.144L282.244 156.955L283.701 158.106L284.309 164.569L283.912 184.821Z" fill="#092A79"/>
<path d="M341.146 270.32L340.55 268.807L339.888 267.019L337.967 264.972L338.498 261.068L338.429 260.408L337.699 260.606L332.932 261.134L318.436 261.399L318.04 260.015L318.569 255.125L320.489 251.687L323.403 246.662L323.071 245.275L323.798 244.882L324.064 243.753L322.74 242.564L322.675 241.441L321.615 238.928L321.351 235.493L315.718 235.558L304.596 236.087L291.736 236.104L291.752 241.639L292.149 247.059L292.547 249.307L294.003 251.686L294.533 254.595L297.049 257.767L297.181 259.618L297.578 260.015L297.181 264.906L295.46 267.814L296.386 269.004L295.989 270.458L295.592 274.688L294.798 276.539L294.868 278.63L297.583 277.751L302.264 277.564L308.256 279.621L312.002 280.275L314.155 279.434L316.028 280.088L317.9 280.649L318.368 279.434L316.496 278.78L314.998 279.06L313.406 278.125C313.406 278.125 313.5 277.377 313.874 277.284C314.249 277.19 315.653 276.723 315.653 276.723L316.683 277.564L317.713 277.003L319.585 277.377L320.428 278.78L320.615 280.088L323.237 280.275L324.267 281.303L323.799 282.238L323.05 282.706L323.986 283.64L328.855 285.697L330.914 284.949L331.476 283.547L332.974 283.173L334.004 282.332L334.753 282.892L335.221 284.575L333.911 285.042L334.285 285.416L336.251 284.669L337.562 282.706L338.03 282.425L336.813 282.238L337.281 281.303L337.188 280.462L338.405 280.182L339.06 279.434L339.435 279.901C339.435 279.901 339.341 281.677 339.809 281.677C340.277 281.677 342.243 282.051 342.243 282.051L344.584 283.173L345.146 284.014H346.831L347.487 284.575L348.797 282.799V281.958H348.048L346.082 280.369L342.712 279.901L340.839 278.593L341.494 277.003L342.805 277.19L342.899 276.817L341.869 276.256V275.975H343.742L344.771 274.199L344.022 273.077L343.835 271.488L342.992 271.582L341.869 272.797L341.494 274.293L339.715 273.919L339.154 272.89L340.184 271.769L341.354 270.741L341.146 270.32Z" fill="#EEEEEE"/>
<path d="M472.445 152.507L472.362 151.381L476.1 149.906L475.654 151.767L473.962 153.952L473.72 156.604L473.988 158.564L472.929 161.443L471.676 162.551L470.824 159.867L471.082 156.717L472.001 154.298L472.445 152.507ZM473.766 168.871L440.073 176.143L418.397 179.195L414.529 178.978L413.032 180.092L408.781 180.22L403.926 180.785L398.757 181.335L403.668 178.474L403.661 177.274L404.541 176.033L410.653 169.383L412.939 171.972L415.13 172.529L416.603 171.87L417.899 171.112L419.368 171.889L421.635 171.063L422.722 168.429L424.228 168.741L425.882 167.508L426.924 167.794L428.562 165.668L428.763 164.463L428.205 163.726L428.786 162.647L431.841 155.548L432.198 152.231L432.91 151.929L434.171 153.341L436.451 153.167L437.568 148.788L439.186 148.463L439.794 146.879L441.288 145.522L442.023 144.167L442.894 142.228L442.943 139.298L448.631 141.509C449.026 141.706 449.011 138.742 449.011 138.742L451.357 139.539L451.09 141.059L455.813 142.759L456.562 143.796L456.059 145.925L455.328 146.692L455.035 147.702L455.321 149.091L456.455 149.83L458.725 150.666L460.432 151.225L463.245 151.77L464.492 152.978L466.34 153.211L466.842 153.904L466.588 156.616L467.384 157.254L467.107 158.37L467.819 158.827L467.69 159.627L466.13 159.573L466.181 160.507L467.502 161.399L467.573 162.215L468.6 163.248L468.885 164.707L467.406 165.506L468.317 166.37L471.676 165.395L473.766 168.871Z" fill="#EEEEEE"/>
<path d="M456.721 143.601L456.098 142.655L455.51 142.167L456.147 141.233L457.44 142.106L456.721 143.601Z" fill="#D1EAFC"/>
</g>
<g filter="url(#filter1_ddd_1176_1911)">
<path d="M250.5 260.667C247.275 260.667 244.667 263.275 244.667 266.5C244.667 270.875 250.5 277.333 250.5 277.333C250.5 277.333 256.333 270.875 256.333 266.5C256.333 263.275 253.725 260.667 250.5 260.667ZM250.5 268.583C249.35 268.583 248.417 267.65 248.417 266.5C248.417 265.35 249.35 264.417 250.5 264.417C251.65 264.417 252.583 265.35 252.583 266.5C252.583 267.65 251.65 268.583 250.5 268.583Z" fill="#A4D3FA"/>
</g>
<g filter="url(#filter2_ddd_1176_1911)">
<path d="M262.5 242.667C259.275 242.667 256.667 245.275 256.667 248.5C256.667 252.875 262.5 259.333 262.5 259.333C262.5 259.333 268.333 252.875 268.333 248.5C268.333 245.275 265.725 242.667 262.5 242.667ZM262.5 250.583C261.35 250.583 260.417 249.65 260.417 248.5C260.417 247.35 261.35 246.417 262.5 246.417C263.65 246.417 264.583 247.35 264.583 248.5C264.583 249.65 263.65 250.583 262.5 250.583Z" fill="#A4D3FA"/>
</g>
<g filter="url(#filter3_ddd_1176_1911)">
<path d="M269.5 189.667C266.275 189.667 263.667 192.275 263.667 195.5C263.667 199.875 269.5 206.333 269.5 206.333C269.5 206.333 275.333 199.875 275.333 195.5C275.333 192.275 272.725 189.667 269.5 189.667ZM269.5 197.583C268.35 197.583 267.417 196.65 267.417 195.5C267.417 194.35 268.35 193.417 269.5 193.417C270.65 193.417 271.583 194.35 271.583 195.5C271.583 196.65 270.65 197.583 269.5 197.583Z" fill="#A4D3FA"/>
</g>
<g filter="url(#filter4_ddd_1176_1911)">
<path d="M257.5 160.667C254.275 160.667 251.667 163.275 251.667 166.5C251.667 170.875 257.5 177.333 257.5 177.333C257.5 177.333 263.333 170.875 263.333 166.5C263.333 163.275 260.725 160.667 257.5 160.667ZM257.5 168.583C256.35 168.583 255.417 167.65 255.417 166.5C255.417 165.35 256.35 164.417 257.5 164.417C258.65 164.417 259.583 165.35 259.583 166.5C259.583 167.65 258.65 168.583 257.5 168.583Z" fill="#A4D3FA"/>
</g>
<g filter="url(#filter5_ddd_1176_1911)">
<path d="M367.5 184.667C364.275 184.667 361.667 187.275 361.667 190.5C361.667 194.875 367.5 201.333 367.5 201.333C367.5 201.333 373.333 194.875 373.333 190.5C373.333 187.275 370.725 184.667 367.5 184.667ZM367.5 192.583C366.35 192.583 365.417 191.65 365.417 190.5C365.417 189.35 366.35 188.417 367.5 188.417C368.65 188.417 369.583 189.35 369.583 190.5C369.583 191.65 368.65 192.583 367.5 192.583Z" fill="#A4D3FA"/>
</g>
<g filter="url(#filter6_ddd_1176_1911)">
<path d="M346.5 114.667C343.275 114.667 340.667 117.275 340.667 120.5C340.667 124.875 346.5 131.333 346.5 131.333C346.5 131.333 352.333 124.875 352.333 120.5C352.333 117.275 349.725 114.667 346.5 114.667ZM346.5 122.583C345.35 122.583 344.417 121.65 344.417 120.5C344.417 119.35 345.35 118.417 346.5 118.417C347.65 118.417 348.583 119.35 348.583 120.5C348.583 121.65 347.65 122.583 346.5 122.583Z" fill="#A4D3FA"/>
</g>
<g filter="url(#filter7_ddd_1176_1911)">
<path d="M368.5 133.667C365.275 133.667 362.667 136.275 362.667 139.5C362.667 143.875 368.5 150.333 368.5 150.333C368.5 150.333 374.333 143.875 374.333 139.5C374.333 136.275 371.725 133.667 368.5 133.667ZM368.5 141.583C367.35 141.583 366.417 140.65 366.417 139.5C366.417 138.35 367.35 137.417 368.5 137.417C369.65 137.417 370.583 138.35 370.583 139.5C370.583 140.65 369.65 141.583 368.5 141.583Z" fill="#A4D3FA"/>
</g>
<path d="M464.5 126.667C461.275 126.667 458.667 129.275 458.667 132.5C458.667 136.875 464.5 143.333 464.5 143.333C464.5 143.333 470.333 136.875 470.333 132.5C470.333 129.275 467.725 126.667 464.5 126.667ZM464.5 134.583C463.35 134.583 462.417 133.65 462.417 132.5C462.417 131.35 463.35 130.417 464.5 130.417C465.65 130.417 466.583 131.35 466.583 132.5C466.583 133.65 465.65 134.583 464.5 134.583Z" fill="#A4D3FA"/>
<g filter="url(#filter8_ddd_1176_1911)">
<path d="M343.5 88.6667C340.275 88.6667 337.667 91.275 337.667 94.5C337.667 98.875 343.5 105.333 343.5 105.333C343.5 105.333 349.333 98.875 349.333 94.5C349.333 91.275 346.725 88.6667 343.5 88.6667ZM343.5 96.5834C342.35 96.5834 341.417 95.65 341.417 94.5C341.417 93.35 342.35 92.4167 343.5 92.4167C344.65 92.4167 345.583 93.35 345.583 94.5C345.583 95.65 344.65 96.5834 343.5 96.5834Z" fill="#A4D3FA"/>
</g>
<g filter="url(#filter9_ddd_1176_1911)">
<path d="M380.5 247.667C377.275 247.667 374.667 250.275 374.667 253.5C374.667 257.875 380.5 264.333 380.5 264.333C380.5 264.333 386.333 257.875 386.333 253.5C386.333 250.275 383.725 247.667 380.5 247.667ZM380.5 255.583C379.35 255.583 378.417 254.65 378.417 253.5C378.417 252.35 379.35 251.417 380.5 251.417C381.65 251.417 382.583 252.35 382.583 253.5C382.583 254.65 381.65 255.583 380.5 255.583Z" fill="#A4D3FA"/>
</g>
<g filter="url(#filter10_ddd_1176_1911)">
<path d="M429.5 252.667C426.275 252.667 423.667 255.275 423.667 258.5C423.667 262.875 429.5 269.333 429.5 269.333C429.5 269.333 435.333 262.875 435.333 258.5C435.333 255.275 432.725 252.667 429.5 252.667ZM429.5 260.583C428.35 260.583 427.417 259.65 427.417 258.5C427.417 257.35 428.35 256.417 429.5 256.417C430.65 256.417 431.583 257.35 431.583 258.5C431.583 259.65 430.65 260.583 429.5 260.583Z" fill="#A4D3FA"/>
</g>
</g>
<defs>
<filter id="filter0_ddd_1176_1911" x="-17.5" y="-16.5" width="565" height="367" filterUnits="userSpaceOnUse" color-interpolation-filters="sRGB">
<feFlood flood-opacity="0" result="BackgroundImageFix"/>
<feColorMatrix in="SourceAlpha" type="matrix" values="0 0 0 0 0 0 0 0 0 0 0 0 0 0 0 0 0 0 127 0" result="hardAlpha"/>
<feOffset dy="3"/>
<feGaussianBlur stdDeviation="2.5"/>
<feColorMatrix type="matrix" values="0 0 0 0 0.0588235 0 0 0 0 0.235294 0 0 0 0 0.592157 0 0 0 0.1 0"/>
<feBlend mode="normal" in2="BackgroundImageFix" result="effect1_dropShadow_1176_1911"/>
<feColorMatrix in="SourceAlpha" type="matrix" values="0 0 0 0 0 0 0 0 0 0 0 0 0 0 0 0 0 0 127 0" result="hardAlpha"/>
<feOffset dy="1"/>
<feGaussianBlur stdDeviation="9"/>
<feColorMatrix type="matrix" values="0 0 0 0 0.0588235 0 0 0 0 0.235294 0 0 0 0 0.592157 0 0 0 0.06 0"/>
<feBlend mode="normal" in2="effect1_dropShadow_1176_1911" result="effect2_dropShadow_1176_1911"/>
<feColorMatrix in="SourceAlpha" type="matrix" values="0 0 0 0 0 0 0 0 0 0 0 0 0 0 0 0 0 0 127 0" result="hardAlpha"/>
<feOffset dy="6"/>
<feGaussianBlur stdDeviation="5"/>
<feColorMatrix type="matrix" values="0 0 0 0 0.0588235 0 0 0 0 0.235294 0 0 0 0 0.592157 0 0 0 0.07 0"/>
<feBlend mode="normal" in2="effect2_dropShadow_1176_1911" result="effect3_dropShadow_1176_1911"/>
<feBlend mode="normal" in="SourceGraphic" in2="effect3_dropShadow_1176_1911" result="shape"/>
</filter>
<filter id="filter1_ddd_1176_1911" x="222.5" y="242" width="56" height="56" filterUnits="userSpaceOnUse" color-interpolation-filters="sRGB">
<feFlood flood-opacity="0" result="BackgroundImageFix"/>
<feColorMatrix in="SourceAlpha" type="matrix" values="0 0 0 0 0 0 0 0 0 0 0 0 0 0 0 0 0 0 127 0" result="hardAlpha"/>
<feOffset dy="3"/>
<feGaussianBlur stdDeviation="2.5"/>
<feColorMatrix type="matrix" values="0 0 0 0 0.0588235 0 0 0 0 0.235294 0 0 0 0 0.592157 0 0 0 0.1 0"/>
<feBlend mode="normal" in2="BackgroundImageFix" result="effect1_dropShadow_1176_1911"/>
<feColorMatrix in="SourceAlpha" type="matrix" values="0 0 0 0 0 0 0 0 0 0 0 0 0 0 0 0 0 0 127 0" result="hardAlpha"/>
<feOffset dy="1"/>
<feGaussianBlur stdDeviation="9"/>
<feColorMatrix type="matrix" values="0 0 0 0 0.0588235 0 0 0 0 0.235294 0 0 0 0 0.592157 0 0 0 0.06 0"/>
<feBlend mode="normal" in2="effect1_dropShadow_1176_1911" result="effect2_dropShadow_1176_1911"/>
<feColorMatrix in="SourceAlpha" type="matrix" values="0 0 0 0 0 0 0 0 0 0 0 0 0 0 0 0 0 0 127 0" result="hardAlpha"/>
<feOffset dy="6"/>
<feGaussianBlur stdDeviation="5"/>
<feColorMatrix type="matrix" values="0 0 0 0 0.0588235 0 0 0 0 0.235294 0 0 0 0 0.592157 0 0 0 0.07 0"/>
<feBlend mode="normal" in2="effect2_dropShadow_1176_1911" result="effect3_dropShadow_1176_1911"/>
<feBlend mode="normal" in="SourceGraphic" in2="effect3_dropShadow_1176_1911" result="shape"/>
</filter>
<filter id="filter2_ddd_1176_1911" x="234.5" y="224" width="56" height="56" filterUnits="userSpaceOnUse" color-interpolation-filters="sRGB">
<feFlood flood-opacity="0" result="BackgroundImageFix"/>
<feColorMatrix in="SourceAlpha" type="matrix" values="0 0 0 0 0 0 0 0 0 0 0 0 0 0 0 0 0 0 127 0" result="hardAlpha"/>
<feOffset dy="3"/>
<feGaussianBlur stdDeviation="2.5"/>
<feColorMatrix type="matrix" values="0 0 0 0 0.0588235 0 0 0 0 0.235294 0 0 0 0 0.592157 0 0 0 0.1 0"/>
<feBlend mode="normal" in2="BackgroundImageFix" result="effect1_dropShadow_1176_1911"/>
<feColorMatrix in="SourceAlpha" type="matrix" values="0 0 0 0 0 0 0 0 0 0 0 0 0 0 0 0 0 0 127 0" result="hardAlpha"/>
<feOffset dy="1"/>
<feGaussianBlur stdDeviation="9"/>
<feColorMatrix type="matrix" values="0 0 0 0 0.0588235 0 0 0 0 0.235294 0 0 0 0 0.592157 0 0 0 0.06 0"/>
<feBlend mode="normal" in2="effect1_dropShadow_1176_1911" result="effect2_dropShadow_1176_1911"/>
<feColorMatrix in="SourceAlpha" type="matrix" values="0 0 0 0 0 0 0 0 0 0 0 0 0 0 0 0 0 0 127 0" result="hardAlpha"/>
<feOffset dy="6"/>
<feGaussianBlur stdDeviation="5"/>
<feColorMatrix type="matrix" values="0 0 0 0 0.0588235 0 0 0 0 0.235294 0 0 0 0 0.592157 0 0 0 0.07 0"/>
<feBlend mode="normal" in2="effect2_dropShadow_1176_1911" result="effect3_dropShadow_1176_1911"/>
<feBlend mode="normal" in="SourceGraphic" in2="effect3_dropShadow_1176_1911" result="shape"/>
</filter>
<filter id="filter3_ddd_1176_1911" x="241.5" y="171" width="56" height="56" filterUnits="userSpaceOnUse" color-interpolation-filters="sRGB">
<feFlood flood-opacity="0" result="BackgroundImageFix"/>
<feColorMatrix in="SourceAlpha" type="matrix" values="0 0 0 0 0 0 0 0 0 0 0 0 0 0 0 0 0 0 127 0" result="hardAlpha"/>
<feOffset dy="3"/>
<feGaussianBlur stdDeviation="2.5"/>
<feColorMatrix type="matrix" values="0 0 0 0 0.0588235 0 0 0 0 0.235294 0 0 0 0 0.592157 0 0 0 0.1 0"/>
<feBlend mode="normal" in2="BackgroundImageFix" result="effect1_dropShadow_1176_1911"/>
<feColorMatrix in="SourceAlpha" type="matrix" values="0 0 0 0 0 0 0 0 0 0 0 0 0 0 0 0 0 0 127 0" result="hardAlpha"/>
<feOffset dy="1"/>
<feGaussianBlur stdDeviation="9"/>
<feColorMatrix type="matrix" values="0 0 0 0 0.0588235 0 0 0 0 0.235294 0 0 0 0 0.592157 0 0 0 0.06 0"/>
<feBlend mode="normal" in2="effect1_dropShadow_1176_1911" result="effect2_dropShadow_1176_1911"/>
<feColorMatrix in="SourceAlpha" type="matrix" values="0 0 0 0 0 0 0 0 0 0 0 0 0 0 0 0 0 0 127 0" result="hardAlpha"/>
<feOffset dy="6"/>
<feGaussianBlur stdDeviation="5"/>
<feColorMatrix type="matrix" values="0 0 0 0 0.0588235 0 0 0 0 0.235294 0 0 0 0 0.592157 0 0 0 0.07 0"/>
<feBlend mode="normal" in2="effect2_dropShadow_1176_1911" result="effect3_dropShadow_1176_1911"/>
<feBlend mode="normal" in="SourceGraphic" in2="effect3_dropShadow_1176_1911" result="shape"/>
</filter>
<filter id="filter4_ddd_1176_1911" x="229.5" y="142" width="56" height="56" filterUnits="userSpaceOnUse" color-interpolation-filters="sRGB">
<feFlood flood-opacity="0" result="BackgroundImageFix"/>
<feColorMatrix in="SourceAlpha" type="matrix" values="0 0 0 0 0 0 0 0 0 0 0 0 0 0 0 0 0 0 127 0" result="hardAlpha"/>
<feOffset dy="3"/>
<feGaussianBlur stdDeviation="2.5"/>
<feColorMatrix type="matrix" values="0 0 0 0 0.0588235 0 0 0 0 0.235294 0 0 0 0 0.592157 0 0 0 0.1 0"/>
<feBlend mode="normal" in2="BackgroundImageFix" result="effect1_dropShadow_1176_1911"/>
<feColorMatrix in="SourceAlpha" type="matrix" values="0 0 0 0 0 0 0 0 0 0 0 0 0 0 0 0 0 0 127 0" result="hardAlpha"/>
<feOffset dy="1"/>
<feGaussianBlur stdDeviation="9"/>
<feColorMatrix type="matrix" values="0 0 0 0 0.0588235 0 0 0 0 0.235294 0 0 0 0 0.592157 0 0 0 0.06 0"/>
<feBlend mode="normal" in2="effect1_dropShadow_1176_1911" result="effect2_dropShadow_1176_1911"/>
<feColorMatrix in="SourceAlpha" type="matrix" values="0 0 0 0 0 0 0 0 0 0 0 0 0 0 0 0 0 0 127 0" result="hardAlpha"/>
<feOffset dy="6"/>
<feGaussianBlur stdDeviation="5"/>
<feColorMatrix type="matrix" values="0 0 0 0 0.0588235 0 0 0 0 0.235294 0 0 0 0 0.592157 0 0 0 0.07 0"/>
<feBlend mode="normal" in2="effect2_dropShadow_1176_1911" result="effect3_dropShadow_1176_1911"/>
<feBlend mode="normal" in="SourceGraphic" in2="effect3_dropShadow_1176_1911" result="shape"/>
</filter>
<filter id="filter5_ddd_1176_1911" x="339.5" y="166" width="56" height="56" filterUnits="userSpaceOnUse" color-interpolation-filters="sRGB">
<feFlood flood-opacity="0" result="BackgroundImageFix"/>
<feColorMatrix in="SourceAlpha" type="matrix" values="0 0 0 0 0 0 0 0 0 0 0 0 0 0 0 0 0 0 127 0" result="hardAlpha"/>
<feOffset dy="3"/>
<feGaussianBlur stdDeviation="2.5"/>
<feColorMatrix type="matrix" values="0 0 0 0 0.0588235 0 0 0 0 0.235294 0 0 0 0 0.592157 0 0 0 0.1 0"/>
<feBlend mode="normal" in2="BackgroundImageFix" result="effect1_dropShadow_1176_1911"/>
<feColorMatrix in="SourceAlpha" type="matrix" values="0 0 0 0 0 0 0 0 0 0 0 0 0 0 0 0 0 0 127 0" result="hardAlpha"/>
<feOffset dy="1"/>
<feGaussianBlur stdDeviation="9"/>
<feColorMatrix type="matrix" values="0 0 0 0 0.0588235 0 0 0 0 0.235294 0 0 0 0 0.592157 0 0 0 0.06 0"/>
<feBlend mode="normal" in2="effect1_dropShadow_1176_1911" result="effect2_dropShadow_1176_1911"/>
<feColorMatrix in="SourceAlpha" type="matrix" values="0 0 0 0 0 0 0 0 0 0 0 0 0 0 0 0 0 0 127 0" result="hardAlpha"/>
<feOffset dy="6"/>
<feGaussianBlur stdDeviation="5"/>
<feColorMatrix type="matrix" values="0 0 0 0 0.0588235 0 0 0 0 0.235294 0 0 0 0 0.592157 0 0 0 0.07 0"/>
<feBlend mode="normal" in2="effect2_dropShadow_1176_1911" result="effect3_dropShadow_1176_1911"/>
<feBlend mode="normal" in="SourceGraphic" in2="effect3_dropShadow_1176_1911" result="shape"/>
</filter>
<filter id="filter6_ddd_1176_1911" x="318.5" y="96" width="56" height="56" filterUnits="userSpaceOnUse" color-interpolation-filters="sRGB">
<feFlood flood-opacity="0" result="BackgroundImageFix"/>
<feColorMatrix in="SourceAlpha" type="matrix" values="0 0 0 0 0 0 0 0 0 0 0 0 0 0 0 0 0 0 127 0" result="hardAlpha"/>
<feOffset dy="3"/>
<feGaussianBlur stdDeviation="2.5"/>
<feColorMatrix type="matrix" values="0 0 0 0 0.0588235 0 0 0 0 0.235294 0 0 0 0 0.592157 0 0 0 0.1 0"/>
<feBlend mode="normal" in2="BackgroundImageFix" result="effect1_dropShadow_1176_1911"/>
<feColorMatrix in="SourceAlpha" type="matrix" values="0 0 0 0 0 0 0 0 0 0 0 0 0 0 0 0 0 0 127 0" result="hardAlpha"/>
<feOffset dy="1"/>
<feGaussianBlur stdDeviation="9"/>
<feColorMatrix type="matrix" values="0 0 0 0 0.0588235 0 0 0 0 0.235294 0 0 0 0 0.592157 0 0 0 0.06 0"/>
<feBlend mode="normal" in2="effect1_dropShadow_1176_1911" result="effect2_dropShadow_1176_1911"/>
<feColorMatrix in="SourceAlpha" type="matrix" values="0 0 0 0 0 0 0 0 0 0 0 0 0 0 0 0 0 0 127 0" result="hardAlpha"/>
<feOffset dy="6"/>
<feGaussianBlur stdDeviation="5"/>
<feColorMatrix type="matrix" values="0 0 0 0 0.0588235 0 0 0 0 0.235294 0 0 0 0 0.592157 0 0 0 0.07 0"/>
<feBlend mode="normal" in2="effect2_dropShadow_1176_1911" result="effect3_dropShadow_1176_1911"/>
<feBlend mode="normal" in="SourceGraphic" in2="effect3_dropShadow_1176_1911" result="shape"/>
</filter>
<filter id="filter7_ddd_1176_1911" x="340.5" y="115" width="56" height="56" filterUnits="userSpaceOnUse" color-interpolation-filters="sRGB">
<feFlood flood-opacity="0" result="BackgroundImageFix"/>
<feColorMatrix in="SourceAlpha" type="matrix" values="0 0 0 0 0 0 0 0 0 0 0 0 0 0 0 0 0 0 127 0" result="hardAlpha"/>
<feOffset dy="3"/>
<feGaussianBlur stdDeviation="2.5"/>
<feColorMatrix type="matrix" values="0 0 0 0 0.0588235 0 0 0 0 0.235294 0 0 0 0 0.592157 0 0 0 0.1 0"/>
<feBlend mode="normal" in2="BackgroundImageFix" result="effect1_dropShadow_1176_1911"/>
<feColorMatrix in="SourceAlpha" type="matrix" values="0 0 0 0 0 0 0 0 0 0 0 0 0 0 0 0 0 0 127 0" result="hardAlpha"/>
<feOffset dy="1"/>
<feGaussianBlur stdDeviation="9"/>
<feColorMatrix type="matrix" values="0 0 0 0 0.0588235 0 0 0 0 0.235294 0 0 0 0 0.592157 0 0 0 0.06 0"/>
<feBlend mode="normal" in2="effect1_dropShadow_1176_1911" result="effect2_dropShadow_1176_1911"/>
<feColorMatrix in="SourceAlpha" type="matrix" values="0 0 0 0 0 0 0 0 0 0 0 0 0 0 0 0 0 0 127 0" result="hardAlpha"/>
<feOffset dy="6"/>
<feGaussianBlur stdDeviation="5"/>
<feColorMatrix type="matrix" values="0 0 0 0 0.0588235 0 0 0 0 0.235294 0 0 0 0 0.592157 0 0 0 0.07 0"/>
<feBlend mode="normal" in2="effect2_dropShadow_1176_1911" result="effect3_dropShadow_1176_1911"/>
<feBlend mode="normal" in="SourceGraphic" in2="effect3_dropShadow_1176_1911" result="shape"/>
</filter>
<filter id="filter8_ddd_1176_1911" x="315.5" y="70" width="56" height="56" filterUnits="userSpaceOnUse" color-interpolation-filters="sRGB">
<feFlood flood-opacity="0" result="BackgroundImageFix"/>
<feColorMatrix in="SourceAlpha" type="matrix" values="0 0 0 0 0 0 0 0 0 0 0 0 0 0 0 0 0 0 127 0" result="hardAlpha"/>
<feOffset dy="3"/>
<feGaussianBlur stdDeviation="2.5"/>
<feColorMatrix type="matrix" values="0 0 0 0 0.0588235 0 0 0 0 0.235294 0 0 0 0 0.592157 0 0 0 0.1 0"/>
<feBlend mode="normal" in2="BackgroundImageFix" result="effect1_dropShadow_1176_1911"/>
<feColorMatrix in="SourceAlpha" type="matrix" values="0 0 0 0 0 0 0 0 0 0 0 0 0 0 0 0 0 0 127 0" result="hardAlpha"/>
<feOffset dy="1"/>
<feGaussianBlur stdDeviation="9"/>
<feColorMatrix type="matrix" values="0 0 0 0 0.0588235 0 0 0 0 0.235294 0 0 0 0 0.592157 0 0 0 0.06 0"/>
<feBlend mode="normal" in2="effect1_dropShadow_1176_1911" result="effect2_dropShadow_1176_1911"/>
<feColorMatrix in="SourceAlpha" type="matrix" values="0 0 0 0 0 0 0 0 0 0 0 0 0 0 0 0 0 0 127 0" result="hardAlpha"/>
<feOffset dy="6"/>
<feGaussianBlur stdDeviation="5"/>
<feColorMatrix type="matrix" values="0 0 0 0 0.0588235 0 0 0 0 0.235294 0 0 0 0 0.592157 0 0 0 0.07 0"/>
<feBlend mode="normal" in2="effect2_dropShadow_1176_1911" result="effect3_dropShadow_1176_1911"/>
<feBlend mode="normal" in="SourceGraphic" in2="effect3_dropShadow_1176_1911" result="shape"/>
</filter>
<filter id="filter9_ddd_1176_1911" x="352.5" y="229" width="56" height="56" filterUnits="userSpaceOnUse" color-interpolation-filters="sRGB">
<feFlood flood-opacity="0" result="BackgroundImageFix"/>
<feColorMatrix in="SourceAlpha" type="matrix" values="0 0 0 0 0 0 0 0 0 0 0 0 0 0 0 0 0 0 127 0" result="hardAlpha"/>
<feOffset dy="3"/>
<feGaussianBlur stdDeviation="2.5"/>
<feColorMatrix type="matrix" values="0 0 0 0 0.0588235 0 0 0 0 0.235294 0 0 0 0 0.592157 0 0 0 0.1 0"/>
<feBlend mode="normal" in2="BackgroundImageFix" result="effect1_dropShadow_1176_1911"/>
<feColorMatrix in="SourceAlpha" type="matrix" values="0 0 0 0 0 0 0 0 0 0 0 0 0 0 0 0 0 0 127 0" result="hardAlpha"/>
<feOffset dy="1"/>
<feGaussianBlur stdDeviation="9"/>
<feColorMatrix type="matrix" values="0 0 0 0 0.0588235 0 0 0 0 0.235294 0 0 0 0 0.592157 0 0 0 0.06 0"/>
<feBlend mode="normal" in2="effect1_dropShadow_1176_1911" result="effect2_dropShadow_1176_1911"/>
<feColorMatrix in="SourceAlpha" type="matrix" values="0 0 0 0 0 0 0 0 0 0 0 0 0 0 0 0 0 0 127 0" result="hardAlpha"/>
<feOffset dy="6"/>
<feGaussianBlur stdDeviation="5"/>
<feColorMatrix type="matrix" values="0 0 0 0 0.0588235 0 0 0 0 0.235294 0 0 0 0 0.592157 0 0 0 0.07 0"/>
<feBlend mode="normal" in2="effect2_dropShadow_1176_1911" result="effect3_dropShadow_1176_1911"/>
<feBlend mode="normal" in="SourceGraphic" in2="effect3_dropShadow_1176_1911" result="shape"/>
</filter>
<filter id="filter10_ddd_1176_1911" x="401.5" y="234" width="56" height="56" filterUnits="userSpaceOnUse" color-interpolation-filters="sRGB">
<feFlood flood-opacity="0" result="BackgroundImageFix"/>
<feColorMatrix in="SourceAlpha" type="matrix" values="0 0 0 0 0 0 0 0 0 0 0 0 0 0 0 0 0 0 127 0" result="hardAlpha"/>
<feOffset dy="3"/>
<feGaussianBlur stdDeviation="2.5"/>
<feColorMatrix type="matrix" values="0 0 0 0 0.0588235 0 0 0 0 0.235294 0 0 0 0 0.592157 0 0 0 0.1 0"/>
<feBlend mode="normal" in2="BackgroundImageFix" result="effect1_dropShadow_1176_1911"/>
<feColorMatrix in="SourceAlpha" type="matrix" values="0 0 0 0 0 0 0 0 0 0 0 0 0 0 0 0 0 0 127 0" result="hardAlpha"/>
<feOffset dy="1"/>
<feGaussianBlur stdDeviation="9"/>
<feColorMatrix type="matrix" values="0 0 0 0 0.0588235 0 0 0 0 0.235294 0 0 0 0 0.592157 0 0 0 0.06 0"/>
<feBlend mode="normal" in2="effect1_dropShadow_1176_1911" result="effect2_dropShadow_1176_1911"/>
<feColorMatrix in="SourceAlpha" type="matrix" values="0 0 0 0 0 0 0 0 0 0 0 0 0 0 0 0 0 0 127 0" result="hardAlpha"/>
<feOffset dy="6"/>
<feGaussianBlur stdDeviation="5"/>
<feColorMatrix type="matrix" values="0 0 0 0 0.0588235 0 0 0 0 0.235294 0 0 0 0 0.592157 0 0 0 0.07 0"/>
<feBlend mode="normal" in2="effect2_dropShadow_1176_1911" result="effect3_dropShadow_1176_1911"/>
<feBlend mode="normal" in="SourceGraphic" in2="effect3_dropShadow_1176_1911" result="shape"/>
</filter>
<clipPath id="clip0_1176_1911">
<rect width="529" height="331" fill="white" transform="translate(0.5 0.5)"/>
</clipPath>
</defs>
</svg>
