<?xml version="1.0" encoding="utf-8"?>
<svg width="21px" height="15px" viewBox="0 0 21 15" version="1.1" xmlns="http://www.w3.org/2000/svg">
  <title>Icon/arrow-right Copy 10</title>
  <defs>
    <path d="M15.17546,5.4455786 C15.6212911,5.04378876 16.3441262,5.04378876 16.7899574,5.4455786 L16.7899574,5.4455786 L23.6396897,11.6186621 C23.6439357,11.6224886 23.6481413,11.6263378 23.6523064,11.6302093 C23.6730914,11.6495265 23.6932888,11.6698407 23.7125771,11.6908574 C23.7227006,11.70181 23.7324237,11.7128486 23.7418593,11.7240214 C23.7557982,11.7406569 23.7692159,11.7576009 23.782066,11.774916 C23.7918789,11.787978 23.801166,11.8011364 23.8100889,11.8144376 C23.8215124,11.8316304 23.8324864,11.8491152 23.8428986,11.8669083 C23.8528888,11.883863 23.86221,11.9009676 23.8709726,11.9182459 C23.9371405,12.0484974 23.974063,12.1934462 23.974063,12.3461669 C23.974063,12.4613408 23.9530638,12.5720945 23.9143275,12.6754881 C23.8950107,12.7269364 23.8713001,12.7769609 23.843009,12.8253797 C23.8324864,12.8432187 23.8215124,12.8607034 23.8099981,12.8778606 C23.801166,12.8911975 23.7918789,12.9043559 23.7822277,12.9173598 C23.7692159,12.934733 23.7557982,12.951677 23.7418369,12.9682283 C23.7108988,13.0049732 23.6768423,13.0401893 23.6396897,13.0736718 L23.7125771,13.0014765 C23.6932888,13.0224931 23.6730914,13.0428074 23.6520393,13.0623703 L23.6396897,13.0736718 L16.7899574,19.2467553 C16.3441262,19.6485451 15.6212911,19.6485451 15.17546,19.2467553 C14.7296289,18.8449654 14.7296289,18.1935354 15.17546,17.7917455 L15.17546,17.7917455 L20.0758661,13.3742362 L4.5664882,13.3750142 C3.97802111,13.3750142 3.49354627,12.9737537 3.43156503,12.4582712 L3.42486615,12.3461669 C3.42486615,11.7779503 3.93598775,11.3173197 4.5664882,11.3173197 L4.5664882,11.3173197 L20.0768661,11.3172362 L15.17546,6.90058833 C14.7614739,6.52749776 14.7319035,5.9391562 15.0867487,5.53531549 Z" id="path-1"/>
  </defs>
  <g id="Symbols" stroke="none" stroke-width="1" fill="none" fill-rule="evenodd">
    <g id="Button-Solid" transform="translate(-199.000000, -26.000000)">
      <g id="Group" transform="translate(0.000000, -0.000000)">
        <g transform="translate(196.027447, 21.097753)" id="Icon/arrow-right-Copy-10">
          <path d="M15.17546,5.4455786 C15.6212911,5.04378876 16.3441262,5.04378876 16.7899574,5.4455786 L16.7899574,5.4455786 L23.6396897,11.6186621 C23.6439357,11.6224886 23.6481413,11.6263378 23.6523064,11.6302093 C23.6730914,11.6495265 23.6932888,11.6698407 23.7125771,11.6908574 C23.7227006,11.70181 23.7324237,11.7128486 23.7418593,11.7240214 C23.7557982,11.7406569 23.7692159,11.7576009 23.782066,11.774916 C23.7918789,11.787978 23.801166,11.8011364 23.8100889,11.8144376 C23.8215124,11.8316304 23.8324864,11.8491152 23.8428986,11.8669083 C23.8528888,11.883863 23.86221,11.9009676 23.8709726,11.9182459 C23.9371405,12.0484974 23.974063,12.1934462 23.974063,12.3461669 C23.974063,12.4613408 23.9530638,12.5720945 23.9143275,12.6754881 C23.8950107,12.7269364 23.8713001,12.7769609 23.843009,12.8253797 C23.8324864,12.8432187 23.8215124,12.8607034 23.8099981,12.8778606 C23.801166,12.8911975 23.7918789,12.9043559 23.7822277,12.9173598 C23.7692159,12.934733 23.7557982,12.951677 23.7418369,12.9682283 C23.7108988,13.0049732 23.6768423,13.0401893 23.6396897,13.0736718 L23.7125771,13.0014765 C23.6932888,13.0224931 23.6730914,13.0428074 23.6520393,13.0623703 L23.6396897,13.0736718 L16.7899574,19.2467553 C16.3441262,19.6485451 15.6212911,19.6485451 15.17546,19.2467553 C14.7296289,18.8449654 14.7296289,18.1935354 15.17546,17.7917455 L15.17546,17.7917455 L20.0758661,13.3742362 L4.5664882,13.3750142 C3.97802111,13.3750142 3.49354627,12.9737537 3.43156503,12.4582712 L3.42486615,12.3461669 C3.42486615,11.7779503 3.93598775,11.3173197 4.5664882,11.3173197 L4.5664882,11.3173197 L20.0768661,11.3172362 L15.17546,6.90058833 C14.7614739,6.52749776 14.7319035,5.9391562 15.0867487,5.53531549 Z" id="Combined-Shape" transform="matrix(1, 0, 0, 1, 0, 0)" fill-rule="nonzero" style="fill: rgb(255, 255, 255);"/>
        </g>
      </g>
    </g>
  </g>
</svg>