<?xml version="1.0" encoding="UTF-8"?>
<svg id="Layer_1" xmlns="http://www.w3.org/2000/svg" version="1.1" viewBox="0 0 137 94">
  <!-- Generator: Adobe Illustrator 29.4.0, SVG Export Plug-In . SVG Version: 2.1.0 Build 152)  -->
  <defs>
    <style>
      .st0 {
        fill: #93beeb;
      }

      .st1 {
        fill: #666;
      }
    </style>
  </defs>
  <path class="st0" d="M29.2,35.9s-1.1-.6-.3-1,1.2-.2,1.4-.8c.1-.6-.2-1,1.3-1s3.2.4,3.5-.1-.1-2,.7-1.4,1.2,1.7,1.9,1.2-.5-1.5,1-1.7,3.8.1,4.9.3,2.4.4,2.8-.2c.4-.6,1.3-1.3,1.7-.1s1.7,2.1,2.6,2.2c.9.1,2.1.1,1.7-.9s-4.6-3.8-3.8-3.8,2.6.7,3.5,1.7,1,2.1,1.9,2.1,2.8.1,3.5.6.6.8,1.4,1.2c.8.4,1.1.1,1.9.4s2.8.5,2.8,1-.6,0,.1.5c.6.5,1.2,1.8,2.1,1.9s1.9.5,1.9,1.1c.1.6-1.5.3-1.3,1.2.2.8.2,1,1.5.7s2.8-.8,2.5-.1-1.7.5-1.7,1.2c-.1.7.3,1.7-.5,1.5s-1.9-1.7-2.9-1.4-1.8.1-2.6.3c-.8.1-2.6-.5-2.1.3s2.3,2.1,1.5,2.3-1.6-.1-2.3-.7c-.8-.6-.6-1.2-2-.8s-1.5,1.2-2.6.1-1.7-.8-2.3-1.5-1.4-1.2-.9-2.1,2.3-.8.8-1.4-3.2-1.3-3.6-.5-.9.8-1.9.8-1.2.1-1.6.9-1.2.9-1.2.1-.3,1.4-.8,1,.6-3-.2-2.7-.5,2.7-1.3,1.5-.1-2.4-1.2-3-2.2-2.1-3.1-1.6-1.7.9-2.8,1.5-1,.3-1.5,0c-.6-.3-.1,0-1.2.3s-1.5.1-2.2-.5-1-.6-1-.6Z"/>
  <path class="st0" d="M77.8,40.3c-.2-.7-1-1.2-.2-1.9s1.7-.5,1.7-1.3c.1-.8-.6-2.5.2-2.1s1.2,1.3,1.7,1.1.1-1,.8-1.2c.8-.1,1.4.3,1.6.1s-.1-.7.8-.7,1.7.3,2,0,1.7,0,1.7-.6c.1-.6.3-1.6-.2-1.8-.6-.2-1.8-.9-1.4-1.2s3.7-.4,3.7.2c-.1.6-1.6.6-1,1,.6.4,1.9.4,2.7.5s-.1-.5.9-.8,3.3-.6,3.2.3c-.1.9-.3,1.4.6,1.2.8-.2,1.9-1,2.5-.1.6,1,.1,1.3.8,1.5s.7.7,1.3.9c.6.2.4-.4,1.2,0,.8.4.6.6,1.5.8.9.3,1.7,1,1.2,1.4s-1,.7-1.6,1.2c-.6.6-2.3.3-2-.3.3-.7,1.1-.8.6-1.5s-1-1.7-2-.9-1.8,1.7-1.6.6c.2-1.1,1.2-.9.2-1.7s-1.7-1.5-2.1-.8c-.3.7.3.8.1,1.7-.2,1-1.1.9-1.7.3s-1.5-.5-1.2.4,1,1.7,1.9,2.2,1.6.6,1.5,1.8-.6,1.7-.4,2.7,1.2,2.3.3,2.2c-.9-.1-.5-1.5-1.5-1.6s-1.5-.1-2.3-.1.1-.7-.6-1.4c-.8-.7-1.2-.6-1.9-.2-.8.4-2-1.7-2.9-1.5s-1.3,1.5-2.2,1.5c-.9-.1-1-1.2-1.5-1.2s0,2.5-.4,2.2-.8-2-1.5-1.7c-.6.3-1,.7-1.4,1.2s-1.5.1-1.4-.3c.1-.4-1.2.3-1.5-.3-.2-.6,1.2-.1,1-1-.1-.3-1.2-.8-1.2-.8Z"/>
  <path class="st0" d="M39.5,80.8s-1.1-.6-.3-1.4,4.2-3.9,4-6-2.8-7.5-2.4-8,.8-.2,1-.8-.3-1.7.6-2.1q.8-.4,1.2-.6c.4-.2-.2-1.4,1.4-1.2s6.2,2.1,8,1.6,4.2-3.3,5.8-3.4c1.6-.1,2.6,0,3.3-.4s.3-1,2.1-.7c1.7.3,3,.2,3.6.7s.3,1.2,1.1.8c.8-.5.6-1.2,1.5-.9s1.7.6,2.1,1.7c.4,1.2,2.3,2.4,3.1,3.2.8.8,1.6,2,3,2.1,1.5.1,1.6,0,2.9-.2s1.9-1.5.9-1.6-2.4-.6-1.2-1,3.6.6,4.4.5,2.3-.9,3.5-.9,1,.3,2.6.4c1.6.1,5.4-.4,6,0s.6.9,1.5,1,3.4-.6,4.4-.8,3-.1,3.2.6c.1.7-.3,1.2-1,1.6s-.8.8-1.7.8-2.6-.4-3.5-.1-.8,1.9-1.7,2.3c-.9.4-1.6-.1-2.6.3-1,.3-1.7.7-2.1,1.1-.5.4-.1,1.2-1.4,1.3s-1.7-.5-3-.8-1.9-.6-1.7.3c.2.9-.1,2.1-.8,2.3-.6.2-3,.2-3.4.3-.3.1.1.8-.8,1s-2.3.1-2.8.5c-.6.3-.5-.2-1.8.6-1.3.8-.1,1.2-2.2.5-2.1-.8-3.5-1.5-3.7-.3s.1,2.8-.3,2.1c-.5-.6-1.6-2.3-1.9-1.9-.3.5.3,1.4-.1,1.6s-.6-1-1.2-1.1-.8.6-1.2.3c-.4-.3-2.3-3.1-2.4-2.4s1.9,2.8,1.6,3.3-1.4-.1-2.6-.4-4.5-.6-5.2.1c-.7.6-3.8,1-4.8,1.8s-1,1.7-1.6,1.2,1.4-.5-.6-1-2.1-.3-3.5-.2c-1.4.1-2.2.5-3.7.3s-.9-1-2.3-.1c-1.9,1-3.3,2.1-3.3,2.1Z"/>
  <g>
    <path class="st1" d="M30.15,7.92v4.5c0,.72-.24,1.37-.72,1.77s-1.13.64-1.93.64-1.45-.24-1.93-.64-.72-1.04-.72-1.77v-4.5h1.45v4.5c0,.48.08.8.32.96.24.16.48.32.88.32.8,0,1.21-.4,1.21-1.29v-4.5h1.45Z"/>
    <path class="st1" d="M34.98,12.99c0-.24-.08-.48-.32-.64s-.48-.32-.96-.48-.88-.32-1.13-.48c-.8-.4-1.21-.96-1.21-1.69,0-.4.08-.72.32-.96s.48-.48.88-.64.8-.24,1.29-.24.96.08,1.29.24.64.4.88.72.32.72.32,1.13h-1.45c0-.32-.08-.56-.32-.72s-.48-.24-.8-.24-.64.08-.8.24-.24.24-.24.48.08.4.32.56.56.32.96.4c.8.24,1.37.56,1.77.88s.56.8.56,1.37-.24,1.04-.64,1.37-1.04.48-1.85.48c-.56,0-1.04-.08-1.45-.32s-.8-.48-.96-.8-.32-.72-.32-1.21h1.45c0,.72.48,1.13,1.37,1.13.32,0,.56-.08.8-.24s.24-.08.24-.32Z"/>
    <path class="st1" d="M42.45,13.07l1.53-5.14h1.61l-2.41,6.83h-1.45l-2.41-6.83h1.61l1.53,5.14Z"/>
    <path class="st1" d="M47.83,14.76h-1.45v-6.83h1.45v6.83Z"/>
    <path class="st1" d="M51.77,12.26h-1.13v2.49h-1.45v-6.83h2.57c.8,0,1.45.16,1.85.56.4.4.64.88.64,1.53,0,.48-.08.88-.32,1.21s-.48.56-.88.72l1.45,2.81v.08h-1.53l-1.21-2.57ZM50.65,11.06h1.13c.32,0,.64-.08.8-.24s.32-.4.32-.72-.08-.56-.24-.72-.48-.32-.88-.32h-1.13v2.01Z"/>
    <path class="st1" d="M60.93,13.87c-.24.32-.64.56-1.04.72s-.96.24-1.53.24-1.13-.16-1.53-.4-.8-.64-1.04-1.13-.4-1.04-.4-1.77v-.48c0-.72.08-1.29.32-1.77s.56-.88.96-1.13.96-.4,1.53-.4c.8,0,1.45.16,1.93.56.48.4.72.96.8,1.69h-1.37c-.08-.4-.24-.64-.4-.88s-.56-.16-.88-.16c-.48,0-.88.16-1.13.56s-.4.88-.4,1.61v.4c0,.72.16,1.29.4,1.61s.64.56,1.21.56.88-.08,1.13-.32v-1.21h-1.29v-1.04h2.73v2.73Z"/>
    <path class="st1" d="M63.66,14.76h-1.45v-6.83h1.45v6.83Z"/>
    <path class="st1" d="M70.66,14.76h-1.45l-2.73-4.5v4.5h-1.45v-6.83h1.45l2.73,4.5v-4.5h1.45v6.83Z"/>
    <path class="st1" d="M75.96,14.76h-1.45v-6.83h1.45v6.83Z"/>
    <path class="st1" d="M80.94,12.99c0-.24-.08-.48-.32-.64s-.56-.32-1.04-.48-.88-.32-1.13-.48c-.8-.4-1.21-.96-1.21-1.69,0-.4.08-.72.32-.96s.48-.48.88-.64.8-.24,1.29-.24.96.08,1.29.24.64.4.88.72.32.72.32,1.13h-1.45c0-.32-.08-.56-.32-.72s-.48-.24-.8-.24-.64.08-.8.24-.16.24-.16.48.08.4.32.56.56.32.96.4c.8.24,1.37.56,1.77.88s.56.8.56,1.37-.24,1.04-.64,1.37-1.04.48-1.85.48c-.56,0-1.04-.08-1.45-.32s-.8-.48-.96-.8-.32-.56-.32-1.04h1.45c0,.72.48,1.13,1.37,1.13.32,0,.56-.08.8-.24s.24-.24.24-.48Z"/>
    <path class="st1" d="M84.8,13.63h2.97v1.13h-4.42v-6.83h1.45v5.71Z"/>
    <path class="st1" d="M92.68,13.31h-2.49l-.48,1.45h-1.53l2.57-6.83h1.29l2.57,6.83h-1.45l-.48-1.45ZM90.59,12.18h1.69l-.88-2.57-.8,2.57Z"/>
    <path class="st1" d="M100.95,14.76h-1.37l-2.73-4.5v4.5h-1.45v-6.83h1.45l2.73,4.5v-4.5h1.45v6.83h-.08Z"/>
    <path class="st1" d="M102.32,14.76v-6.83h2.09c.64,0,1.13.16,1.61.4s.88.64,1.13,1.13.4,1.04.4,1.69v.32c0,.64-.16,1.21-.4,1.69s-.64.88-1.13,1.13-1.04.4-1.61.4h-2.09v.08ZM103.69,9.05v4.58h.64c.56,0,.96-.16,1.29-.56s.4-.88.48-1.53v-.4c0-.72-.16-1.21-.4-1.61s-.72-.56-1.29-.56h-.72v.08Z"/>
    <path class="st1" d="M112.2,12.99c0-.24-.08-.48-.32-.64s-.56-.32-1.04-.48-.88-.32-1.13-.48c-.8-.4-1.21-.96-1.21-1.69,0-.4.08-.72.32-.96s.48-.48.88-.64.8-.24,1.29-.24.96.08,1.29.24.64.4.88.72.32.72.32,1.13h-1.45c0-.32-.08-.56-.32-.72s-.48-.24-.8-.24-.64.08-.8.24-.08.24-.08.48.08.4.32.56.56.32.96.4c.8.24,1.37.56,1.77.88s.56.8.56,1.37-.24,1.04-.64,1.37-1.04.48-1.85.48c-.56,0-1.04-.08-1.45-.32s-.8-.48-.96-.8-.32-.72-.32-1.21h1.45c0,.72.48,1.13,1.37,1.13.32,0,.56-.08.8-.24s.16-.08.16-.32Z"/>
  </g>
</svg>