<?xml version="1.0" encoding="UTF-8"?>
<svg id="Layer_2" data-name="Layer 2" xmlns="http://www.w3.org/2000/svg" xmlns:xlink="http://www.w3.org/1999/xlink" viewBox="0 0 187.64 55.92">
  <defs>
    <style>
      .cls-1 {
        fill: #fff;
      }

      .cls-1, .cls-2 {
        stroke-width: 0px;
      }

      .cls-2 {
        fill: url(#radial-gradient);
      }
    </style>
    <radialGradient id="radial-gradient" cx="97.72" cy="41.22" fx="97.72" fy="41.22" r="19.5" gradientTransform="translate(0 60.72) scale(1 -1)" gradientUnits="userSpaceOnUse">
      <stop offset=".4" stop-color="#fdb714"/>
      <stop offset="1" stop-color="#fdb714" stop-opacity="0"/>
    </radialGradient>
  </defs>
  <g id="Logo">
    <path class="cls-2" d="m97.72,0c-10.77,0-19.5,8.73-19.5,19.5s8.73,19.5,19.5,19.5,19.5-8.73,19.5-19.5S108.49,0,97.72,0Zm.68,30.58c-5.89,0-10-4.93-10-12,0-6.34,3.49-10.28,9.11-10.28,4.57,0,9.49,3.62,9.49,11.55,0,10.21-7.16,10.73-8.6,10.73Z"/>
    <path class="cls-1" d="m187.64,9.62c0,1.31-1.08,2.33-2.33,2.33s-2.35-1.03-2.35-2.33,1.06-2.36,2.35-2.36c1.26,0,2.33,1.03,2.33,2.36Zm-4.18,0c0,1.07.86,1.87,1.84,1.87s1.83-.81,1.83-1.87-.82-1.89-1.83-1.89-1.84.82-1.84,1.89Zm1.93-1.34c.34,0,.91.11.91.71,0,.45-.32.59-.47.66l.52,1.22h-.51l-.45-1.09h-.39v1.09h-.48v-2.59h.87Zm-.38.34v.81h.34c.27,0,.47-.13.47-.45,0-.22-.15-.36-.45-.36,0,0-.36,0-.36,0ZM48.1,26.95c-.37,0-.44.39-.48.64-.21,1.25-.57,1.83-1.32,2.14-.79.33-2.16.33-2.98.33-3.23,0-3.99-.45-4.07-2.42-.02-.47,0-8.16,0-8.24v-.02h.02c.45,0,3.78.06,4.96.18,1.04.11,1.57.77,1.57,1.94,0,.4.2.49.37.49.18,0,.39-.11.39-.62v-4.01c0-.19-.07-.3-.13-.36-.07-.07-.15-.1-.25-.1-.17,0-.27.13-.39.27-.19.22-.42.49-1.01.55-.62.07-2.38.1-5.24.1h-.29s0-.06,0-.12v-8.74c0-.07,0-.1,0-.12.47,0,4.21.03,4.72.09,1.64.18,1.91.53,2.1.97.14.33.21.83.21,1.07,0,.42.22.61.43.61.33,0,.44-.21.44-.84v-3.31c0-.44-.23-.49-.33-.49-.14,0-.22.04-.31.08-.19.09-.5.24-1.89.24h-10.8c-.31,0-.43.24-.43.39,0,.23.19.39.46.39s.8.03,1.04.09c.97.21,1.16.65,1.21,1.63h0c.05.8.14,17.01-.06,19.05s-.55,2.07-1.74,2.07h-2.6c-.07-.02-.14-.02-.18-.02-1.29,0-2.82-.26-3.18-2.29l-2.3-20.84v-.12c-.05-.35-.1-.79-.56-.79-.39,0-.57.41-.66.63l-9.19,19.63S6.21,7.74,6.05,7.42c-.15-.34-.31-.61-.65-.61-.45,0-.53.57-.55.75s-2.28,20.81-2.36,21.4c-.25,1.82-.67,1.91-1.98,1.91-.27,0-.51.19-.51.42,0,.41.4.46.74.46h.42c1.13.02,1.71.32,1.76,1.92h0l.04,12.83c0,2.83-.06,6.31-.32,7.17-.23.79-.74.82-1.28.85-.09,0-.18,0-.27.02-.4.05-.44.32-.44.4,0,.45.52.45.71.45h7.04c.47,0,.71-.15.71-.45,0-.13-.06-.43-.57-.43-1.59,0-2.08-.13-2.26-1.01-.12-.6-.21-1.97-.25-4.08-.01-.64-.02-1.35-.03-2.1-.02-2.37.01-4.55.02-4.71h13.49c.01.33.15,9.59-.29,11.06-.23.79-.74.82-1.28.85-.09,0-.18,0-.27.02-.41.05-.45.31-.45.39,0,.45.52.45.71.45h7.04c.64,0,.71-.32.71-.45,0-.19-.14-.39-.46-.39-1.45,0-2.16-.11-2.4-1.09-.14-.56-.22-3.15-.25-7.5-.01-1.37-.01-2.91-.01-4.6.01-3.9.08-7.84.08-7.84,0-1.55.71-1.77,1.92-1.77h5.67c1.06,0,1.84.25,1.84,1.66h0c.05.8.14,17.01-.06,19.05-.2,2.04-.55,2.13-1.74,2.13-.17,0-.28.03-.35.1-.07.08-.07.18-.07.28,0,.29.24.44.71.44h11.57c1.26,0,1.67-.04,1.91-.98.17-.66.42-2.84.42-3.14,0-.24,0-.68-.39-.68s-.44.39-.48.64c-.21,1.25-.57,1.83-1.32,2.14-.79.33-2.16.33-2.98.33-3.23,0-3.99-.45-4.07-2.42-.02-.47,0-8.16,0-8.24v-.02h.02c.45,0,3.78.06,4.96.18,1.04.11,1.57.77,1.57,1.94,0,.4.2.49.37.49.18,0,.39-.11.39-.62v-4.01c0-.19-.07-.3-.13-.36-.07-.07-.15-.1-.25-.1-.17,0-.27.13-.39.27-.19.22-.42.49-1.01.55-.62.07-2.38.1-5.24.1h-.29s0-.06,0-.12c0,0,0-8.87,0-8.89.47,0,4.21.03,4.72.09,1.64.18,1.91.53,2.1.97.14.33.21.83.21,1.07,0,.42.22.61.43.61.33,0,.44-.21.44-.84v-2.63h3.05c1.26,0,1.67-.04,1.91-.98.17-.66.42-2.84.42-3.14.01-.22.01-.66-.39-.66Zm-22.99,3.59c-.2.22-.56.33-1.08.33h-6.12c-.19,0-.71.05-.71.5,0,.22.17.37.45.39,1.27.12,1.68.22,1.78,1.72.05.71.08,7.52.08,7.52H6.02v-.03s.02-6.57.09-7.5c.11-1.5.51-1.61,1.78-1.72.28-.02.45-.17.45-.39,0-.45-.52-.49-.71-.49h-.77c-.9,0-1.47-.14-1.76-.43-.17-.17-.24-.39-.24-.7.01-1.34,1.09-13.57,1.27-15.65,0,0,7.46,15.48,7.79,16.13.68,1.35.79,1.45,1.1,1.46.33,0,.41-.1,1.01-1.33.36-.74,6.8-14.43,7.8-16.54l1.47,15.88c.02.21.05.58-.19.85Zm81.82-2.25c2.28-2.43,3.54-5.74,3.54-9.33,0-7.27-5.12-12.15-12.74-12.15-5.06,0-8.09,2.37-9.74,4.37-1.89,2.29-3.03,5.39-3.03,8.29,0,6.13,3.93,12.72,12.57,12.72.34,0,.65,0,.95-.02l-8.68,18.54s-7.61-15.64-9.23-18.96h2.21c.27,0,.62-.05.62-.46s-.51-.42-.71-.42c-1.29,0-2.82-.26-3.18-2.29l-2.3-20.85v-.12c-.05-.35-.1-.79-.56-.79-.39,0-.57.41-.66.63l-9.19,19.63s-9.41-19.34-9.57-19.66c-.16-.32-.31-.59-.66-.59-.45,0-.53.57-.55.75s-2.28,20.81-2.36,21.4c-.25,1.82-.67,1.91-1.98,1.91h-1.95c-.28,0-.71.04-.72.46,0,.11.04.22.11.3.1.1.24.15.43.15,1.89,0,2.05.72,2.09,1.9.08,2.56.15,15.64,0,18.13-.17,2.57-.36,2.72-1.77,2.72-.29,0-.46.16-.46.44,0,.44.54.44.71.44h6.91c.51,0,.71-.13.71-.46,0-.2-.14-.42-.45-.42-2.01,0-2.31-.1-2.46-1.57-.24-2.3-.18-7.71-.18-7.77v-.05s3.94.07,3.94.07c.12,0,.21.05.27.13.15.21,4.39,6.17,5.97,7.88,1.58,1.7,2.62,2.18,4.98,2.18h2.63c.58,0,.79-.12.79-.45,0-.24-.14-.39-.4-.41h-.12c-2.04,0-3.4-.76-5.4-3.01-1.64-1.85-5.41-6.7-5.86-7.29h0c2.58-2.42,3.79-4.77,3.79-7.38,0-2.25-1.43-3.89-2.28-4.5-1.46-1.05-3.24-1.37-4.91-1.45h-.03c-.13-.01-.26-.01-.39-.01-.66-.04-1.11-.2-1.35-.44-.17-.17-.24-.39-.24-.7,0-1.34,1.08-13.57,1.27-15.65,0,0,7.46,15.48,7.79,16.13.68,1.35.79,1.45,1.1,1.46.33,0,.41-.1,1.01-1.33.36-.74,6.8-14.43,7.8-16.54l1.47,15.88c.02.22.05.59-.19.85-.2.22-.56.33-1.08.33-.33,0-.51.17-.51.46,0,.42.52.42.71.42h3.56c-.11,1.03-2.22,20.27-2.3,20.86-.25,1.82-.67,1.91-1.97,1.91-.27,0-.51.19-.51.42,0,.41.4.46.74.46h5.79c.21,0,.77,0,.77-.49,0-.21-.21-.39-.46-.39-.9,0-1.47-.14-1.76-.43-.17-.17-.24-.39-.24-.7.01-1.34,1.09-13.57,1.27-15.65,0,0,7.46,15.48,7.79,16.13.68,1.35.79,1.45,1.1,1.46.33,0,.41-.1,1.01-1.33.36-.74,6.8-14.43,7.8-16.54l1.47,15.88c.02.22.05.59-.19.85-.2.22-.56.33-1.08.33-.33,0-.51.17-.51.46,0,.42.52.42.71.42h7.38c.27,0,.62-.05.62-.46s-.51-.42-.71-.42c-1.29,0-2.82-.26-3.18-2.29l-2.25-20.3c.05,0,.1-.02.15-.03,2.59-.6,4.84-1.84,6.53-3.65Zm-50.08,4.04c3.33,0,5.31,2.31,5.31,6.17,0,2.17-.69,3.94-1.86,4.74h0c-.73.51-1.65.57-2.28.57-1.37,0-2.79-.21-3.24-.48-.09-.06-.13-.11-.13-.21v-10.42c0-.1.04-.16.12-.19.3-.09,1.16-.18,2.08-.18Zm41.55-1.75c-5.89,0-10-4.93-10-12,0-6.34,3.49-10.28,9.11-10.28,4.57,0,9.49,3.62,9.49,11.55,0,10.21-7.16,10.73-8.6,10.73Zm88.85-3.75c-.41,0-.47.43-.49.59-.1.62-.42,1.36-.78,1.81-.67.8-1.7.88-4.28.88s-3.12-.22-3.35-2.52c-.31-2.99-.17-14.06-.08-17.76.03-1.14.32-1.72,1.84-1.72.6,0,.73-.16.73-.43,0-.11-.04-.21-.11-.28-.15-.15-.41-.14-.57-.14h-7.08c-.19,0-.71,0-.71.45,0,.22.19.39.45.39,1.65.03,2.14.26,2.25,1.72.11,1.39.15,17.68-.09,19.27-.24,1.54-.34,1.74-1.67,1.79-.41.02-.49.26-.48.47,0,.36.31.38.84.38h5.03c.09,0,.87,0,1.54.19.68.2,1.03.8,1.1,3.51,0,0,.38,14.03.39,14.52,0,0-15.41-17.69-15.87-18.21h5.42c.58,0,.79-.12.79-.45,0-.19-.09-.42-.52-.42-1.79,0-2.67-.79-3.74-3.36-1.65-4.05-7.46-19.23-7.52-19.38-.38-.99-.55-1.27-.89-1.27s-.5.29-.89,1.37c-.06.16-5.91,16.19-7.32,19.98-1.05,2.67-2.12,2.67-3.23,2.67h-.09c-.28,0-.49.17-.49.41,0,.45.57.45.81.45h2.41c.09,0,.87,0,1.54.19.68.2,1.03.8,1.1,3.51,0,0,.38,14.03.39,14.52l-15.87-18.21h7.98c.5,0,.71-.14.71-.45,0-.42-.53-.42-.79-.42-1.87,0-1.96-.2-2.17-2.05-.22-1.92-.23-16.77-.07-19,.11-1.5.51-1.61,1.78-1.72.28-.02.45-.17.45-.39,0-.45-.52-.45-.71-.45h-6.34c-.34,0-.71.04-.71.45,0,.09.04.39.59.39,1.13.02,1.71.32,1.76,1.93h0c.13,2.74.14,16.81-.08,18.79-.21,1.85-.29,2.05-2.17,2.05h0c-1.94-.04-3.29-.82-5.23-3.01-1.64-1.85-5.41-6.7-5.86-7.29,2.58-2.42,3.79-4.77,3.79-7.38,0-2.25-1.43-3.89-2.28-4.5-1.77-1.27-4-1.44-5.95-1.44h-7.27c-.28,0-.71,0-.72.43,0,.11.04.22.11.3.1.1.24.15.43.15,1.89,0,2.05.72,2.09,1.9.08,2.56.15,15.64-.01,18.13-.17,2.57-.36,2.72-1.77,2.72-.29,0-.46.16-.46.44,0,.44.54.44.71.44h3.27s-5.95,16.31-7.37,20.11c-1.05,2.67-2.12,2.67-3.23,2.67h-.09c-.28,0-.49.17-.49.41,0,.45.57.45.81.45h6.08c.46,0,.68-.14.68-.46,0-.07,0-.16-.07-.23-.08-.08-.27-.12-.53-.12-.8,0-1.03-.18-1.17-.34-.3-.34-.05-1.21-.05-1.21.37-1.18,2.29-6.82,2.31-6.87.05-.12.1-.12.13-.12h6.85c.06,0,.07,0,.1.07l2.81,7.39c.1.28.1.49-.01.64-.17.25-.64.37-1.43.37-.31,0-.48.23-.48.45,0,.29.2.43.61.43h7.23c.58,0,.79-.12.79-.45,0-.19-.09-.42-.52-.42-1.79,0-2.67-.79-3.74-3.36-1.59-3.91-7.14-18.4-7.53-19.41h1.93c.51,0,.71-.13.71-.46,0-.2-.14-.42-.45-.42-2.01,0-2.31-.1-2.46-1.57-.24-2.3-.18-7.71-.18-7.77v-.05s3.94.07,3.94.07c.12,0,.21.05.27.13.15.21,4.39,6.17,5.97,7.88,1.58,1.7,2.62,2.19,4.98,2.19h.6c0,2.42-.03,18.59-.03,18.76,0,2.86-.17,3.69-.81,3.87-.46.16-1.01.15-1.19.14h-.05c-.31,0-.46.22-.46.42,0,.45.48.45.71.45h6.44c.21,0,.77,0,.77-.45,0-.18-.12-.39-.46-.39-.09,0-.87,0-1.54-.19-.68-.2-1.03-.8-1.1-3.51l-.4-14.09s15.87,18.19,16.35,18.73c.23.26.53.41.79.41.08,0,.15,0,.22-.04.13-.05.42-.12.42-.51v-.5c0-.29.03-18.88.03-19.07,0-2.86.17-3.69.81-3.87.15-.05.33-.09.53-.11.14,0,.72-.06.72-.06.31-.02.46-.19.46-.39,0-.45-.48-.45-.71-.45h-2.92c-.94,0-1.11-.15-1.25-.31-.3-.34-.05-1.21-.05-1.21.37-1.18,2.29-6.82,2.31-6.87.05-.12.1-.12.13-.12h6.85c.06,0,.07,0,.1.07l2.81,7.39h0c.1.28.1.49,0,.64-.17.25-.64.37-1.43.37-.31,0-.48.23-.48.45,0,.27.18.41.54.42,0,2.42-.03,18.59-.03,18.77,0,2.86-.17,3.69-.81,3.87-.46.16-1.01.15-1.19.14h-.05c-.31,0-.46.22-.46.42,0,.45.48.45.71.45h6.44c.21,0,.77,0,.77-.45,0-.18-.12-.39-.46-.39-.09,0-.87,0-1.54-.19-.68-.2-1.03-.8-1.1-3.51l-.4-14.09s15.87,18.19,16.35,18.73c.23.26.53.41.79.41.08,0,.15,0,.22-.04.13-.05.42-.12.42-.51v-.5c0-.29.03-18.91.03-19.1,0-2.86.17-3.69.81-3.87.15-.05.33-.09.53-.11.12,0,.25-.02.39-.02h.02c1.31-.04,1.54-.24,1.77-1,.26-.94.49-2.89.49-3.24,0-.29,0-.69-.39-.69Zm-65.04,17.66h-5.91l2.84-8.67,3.07,8.67Zm3.52-24.9h0c-.73.51-1.65.57-2.28.57-1.37,0-2.79-.21-3.24-.48-.09-.06-.13-.11-.13-.21v-10.42c0-.1.04-.16.12-.19.29-.09,1.14-.18,2.07-.18,3.33,0,5.31,2.31,5.31,6.17,0,2.17-.69,3.95-1.85,4.74Zm30.29,1.26l2.84-8.67,3.07,8.67h-5.91Z"/>
  </g>
</svg>